<svg width="32" height="32" viewBox="0 0 32 32" fill="none" xmlns="http://www.w3.org/2000/svg">
<g filter="url(#filter0_d_80_3606)">
<path fill-rule="evenodd" clip-rule="evenodd" d="M16 6C14.3244 6 12.7199 6.67343 11.5387 7.86829C10.3579 9.06277 9.69658 10.6804 9.69658 12.3647C9.69658 15.4149 9.05158 17.3095 8.45716 18.4119C8.15878 18.9652 7.86836 19.328 7.66691 19.5431C7.56595 19.6509 7.4867 19.7223 7.43912 19.7624C7.41532 19.7825 7.39941 19.7947 7.39264 19.7998L7.39028 19.8016C7.06619 20.0269 6.92409 20.4358 7.03992 20.8139C7.15702 21.196 7.51029 21.457 7.91048 21.457H24.0895C24.4897 21.457 24.843 21.196 24.9601 20.8139C25.0759 20.4358 24.9338 20.0269 24.6097 19.8016L24.6074 19.7998C24.6006 19.7947 24.5847 19.7825 24.5609 19.7624C24.5133 19.7223 24.4341 19.6509 24.3331 19.5431C24.1316 19.328 23.8412 18.9652 23.5428 18.4119C22.9484 17.3095 22.3034 15.4149 22.3034 12.3647C22.3034 10.6804 21.6421 9.06277 20.4613 7.86829C19.2801 6.67343 17.6756 6 16 6ZM14.4249 23.2755C14.0993 23.2755 13.7985 23.4492 13.636 23.7309C13.4735 24.0127 13.474 24.3597 13.6374 24.641C13.8775 25.0543 14.2221 25.3974 14.6367 25.636C15.0514 25.8745 15.5214 26 15.9999 26C16.4784 26 16.9485 25.8745 17.3631 25.636C17.7777 25.3974 18.1223 25.0543 18.3624 24.641C18.5258 24.3597 18.5263 24.0127 18.3638 23.7309C18.2013 23.4492 17.9005 23.2755 17.5749 23.2755H14.4249Z" fill="white"/>
</g>
<defs>
<filter id="filter0_d_80_3606" x="4" y="4" width="24" height="26" filterUnits="userSpaceOnUse" color-interpolation-filters="sRGB">
<feFlood flood-opacity="0" result="BackgroundImageFix"/>
<feColorMatrix in="SourceAlpha" type="matrix" values="0 0 0 0 0 0 0 0 0 0 0 0 0 0 0 0 0 0 127 0" result="hardAlpha"/>
<feOffset dy="1"/>
<feGaussianBlur stdDeviation="1.5"/>
<feComposite in2="hardAlpha" operator="out"/>
<feColorMatrix type="matrix" values="0 0 0 0 0 0 0 0 0 0 0 0 0 0 0 0 0 0 0.25 0"/>
<feBlend mode="normal" in2="BackgroundImageFix" result="effect1_dropShadow_80_3606"/>
<feBlend mode="normal" in="SourceGraphic" in2="effect1_dropShadow_80_3606" result="shape"/>
</filter>
</defs>
</svg>
