<svg width="126" height="123" viewBox="0 0 126 123" fill="none" xmlns="http://www.w3.org/2000/svg">
<g filter="url(#filter0_d_80_1956)">
<rect x="10" y="6" width="106" height="103" rx="10" fill="white"/>
</g>
<path fill-rule="evenodd" clip-rule="evenodd" d="M58.5 44C62.2279 44 65.25 40.9779 65.25 37.25C65.25 33.5221 62.2279 30.5 58.5 30.5C54.7721 30.5 51.75 33.5221 51.75 37.25C51.75 40.9779 54.7721 44 58.5 44ZM70.5 57.5V54C70.5 52.1435 69.8679 50.363 68.7426 49.0503C67.6174 47.7375 66.0913 47 64.5 47H52.5C50.9087 47 49.3826 47.7375 48.2574 49.0503C47.1321 50.363 46.5 52.1435 46.5 54V57.5H70.5ZM75 36.5C75.8284 36.5 76.5 37.1716 76.5 38V41H79.5C80.3284 41 81 41.6716 81 42.5C81 43.3284 80.3284 44 79.5 44H76.5V47C76.5 47.8284 75.8284 48.5 75 48.5C74.1716 48.5 73.5 47.8284 73.5 47V44H70.5C69.6716 44 69 43.3284 69 42.5C69 41.6716 69.6716 41 70.5 41H73.5V38C73.5 37.1716 74.1716 36.5 75 36.5Z" fill="#FFBB6A"/>
<path d="M50.7211 76.4258V84.2188H49.2211V76.4258H50.7211ZM41.8852 81.9336C43.6488 81.418 44.434 80.1641 44.4281 78.8984V78.8164H42.2484V77.6562H44.4281V76.4727H45.9516V77.6562H48.1195V78.8164H45.9398V78.8984C45.9281 80.0879 46.7367 81.2715 48.4945 81.7461L47.7797 82.918C46.5492 82.5781 45.6996 81.8691 45.2133 80.9609C44.7328 81.9512 43.8656 82.7363 42.6 83.0938L41.8852 81.9336ZM43.5727 86.8906V83.5273H45.0844V85.6953H51.0023V86.8906H43.5727ZM60.4523 77.0352V77.9961C60.4465 78.9922 60.4465 80.0762 60.177 81.5703H61.5891V82.7773H57.4289V87.0898H55.9289V82.7773H51.8625V81.5703H58.6594C58.9348 80.1992 58.9582 79.1504 58.9641 78.2305H52.9758V77.0352H60.4523ZM74.1609 84.6406V85.8594H64.3992V84.6406H68.5242V82.5547H70.0125V84.6406H74.1609ZM64.7273 81.7578C67.159 81.4648 68.366 80.2578 68.5008 79.0742H65.243V77.8789H68.5242V76.543H70.0125V77.8789H73.3055V79.0742H70.0477C70.1707 80.2578 71.3836 81.4648 73.8094 81.7578L73.2703 82.918C71.3602 82.6719 69.9832 81.8809 69.2625 80.7793C68.5535 81.8809 67.1824 82.6719 65.2781 82.918L64.7273 81.7578ZM83.693 76.4141V87.0781H82.275V81.7227H81.2438V86.5625H79.8727V76.5898H81.2438V80.5273H82.275V76.4141H83.693ZM74.775 84.6641V77.6445H78.7477V78.8516H76.275V83.4102C77.3063 83.3926 78.2203 83.334 79.2516 83.1523L79.357 84.3711C78.0563 84.6172 76.9195 84.6582 75.5133 84.6641H74.775Z" fill="#FFBB6A"/>
<defs>
<filter id="filter0_d_80_1956" x="0" y="0" width="126" height="123" filterUnits="userSpaceOnUse" color-interpolation-filters="sRGB">
<feFlood flood-opacity="0" result="BackgroundImageFix"/>
<feColorMatrix in="SourceAlpha" type="matrix" values="0 0 0 0 0 0 0 0 0 0 0 0 0 0 0 0 0 0 127 0" result="hardAlpha"/>
<feOffset dy="4"/>
<feGaussianBlur stdDeviation="5"/>
<feComposite in2="hardAlpha" operator="out"/>
<feColorMatrix type="matrix" values="0 0 0 0 0 0 0 0 0 0 0 0 0 0 0 0 0 0 0.1 0"/>
<feBlend mode="normal" in2="BackgroundImageFix" result="effect1_dropShadow_80_1956"/>
<feBlend mode="normal" in="SourceGraphic" in2="effect1_dropShadow_80_1956" result="shape"/>
</filter>
</defs>
</svg>
