<svg width="126" height="123" viewBox="0 0 126 123" fill="none" xmlns="http://www.w3.org/2000/svg">
<g filter="url(#filter0_d_80_1982)">
<rect x="10" y="6" width="106" height="103" rx="10" fill="white"/>
</g>
<path d="M46.5176 84.6406V85.8945H36.7559V84.6406H40.8574V82.7188H37.5645V81.5469H38.9941V78.5H37.5176V77.3047H45.6973V78.5H44.1973V81.5469H45.6504V82.7188H42.3457V84.6406H46.5176ZM40.4941 81.5469H42.7207V78.5H40.4941V81.5469ZM55.7566 76.4258V84.0898H54.2566V76.4258H55.7566ZM46.991 79.7891C46.991 78.2246 48.2684 77.0996 49.909 77.1055C51.5437 77.0996 52.8211 78.2246 52.827 79.7891C52.8211 81.377 51.5437 82.4961 49.909 82.4961C48.2684 82.4961 46.991 81.377 46.991 79.7891ZM48.4559 79.7891C48.4441 80.6797 49.0711 81.1953 49.909 81.1953C50.7176 81.1953 51.3445 80.6797 51.3504 79.7891C51.3445 78.9219 50.7176 78.4004 49.909 78.4062C49.0711 78.4004 48.4441 78.9219 48.4559 79.7891ZM48.6082 86.8906V83.3164H50.1199V85.6953H56.0379V86.8906H48.6082ZM65.5934 81.9219V83.1055H58.0465V77.1992H65.5113V78.4062H59.5699V79.5312H65.2652V80.7031H59.5699V81.9219H65.5934ZM56.898 85.8359V84.6172H66.6598V85.8359H56.898ZM77.8957 76.4141V79.4727H79.3371V80.7148H77.8957V84.1836H76.3957V76.4141H77.8957ZM69.5051 79.8125C69.4992 78.2246 70.7941 77.0996 72.4348 77.1055C74.0695 77.0996 75.341 78.2246 75.341 79.8125C75.341 81.377 74.0695 82.5195 72.4348 82.5195C70.7941 82.5195 69.4992 81.377 69.5051 79.8125ZM70.9816 86.8906V83.3633H72.4699V85.6953H78.2824V86.8906H70.9816ZM70.9816 79.8125C70.9699 80.6797 71.6203 81.2188 72.4348 81.2188C73.2551 81.2188 73.882 80.6797 73.8879 79.8125C73.882 78.9219 73.2551 78.4004 72.4348 78.4062C71.6203 78.4004 70.9699 78.9219 70.9816 79.8125ZM88.7051 76.4141V87.0781H87.2637V81.7461H86.2676V86.5625H84.8613V76.5898H86.2676V80.5391H87.2637V76.4141H88.7051ZM79.9395 84.4766V77.5977H81.4395V83.1699C82.2949 83.1465 83.2383 83.0703 84.2637 82.8711L84.416 84.1602C82.9863 84.4062 81.7676 84.4824 80.666 84.4766H79.9395Z" fill="#FF8D4D"/>
<path fill-rule="evenodd" clip-rule="evenodd" d="M51.9676 27.6845C54.4581 27.3779 58.0207 27.125 63 27.125C67.9792 27.125 71.5419 27.3779 74.0323 27.6845C75.7004 27.8898 76.9267 28.8911 77.4336 30.2597C77.9305 31.6016 77.6905 33.1646 76.7466 34.4697C77.6033 34.7288 78.4643 35.2492 79.1933 36.1884C80.6857 38.1108 80.5066 41.0865 79.226 43.38C78.1655 45.2792 76.2915 46.8792 73.6465 47.4875C72.5871 50.6601 69.7583 52.9643 66.3938 53.3255L66.6181 55.2322C66.6758 55.7223 67.046 56.1175 67.5312 56.2071L69.0685 56.4909C70.0882 56.6792 70.9014 57.4499 71.1441 58.4579L71.3361 59.2553C71.5348 60.0809 70.9092 60.875 70.06 60.875H55.9399C55.0908 60.875 54.4652 60.0809 54.6639 59.2553L54.8559 58.4579C55.0986 57.4499 55.9118 56.6792 56.9314 56.4909L58.4688 56.2071C58.954 56.1175 59.3242 55.7223 59.3818 55.2322L59.6062 53.3255C56.2417 52.9644 53.4128 50.6601 52.3534 47.4875C49.7085 46.8792 47.8345 45.2792 46.774 43.38C45.4934 41.0865 45.3143 38.1108 46.8066 36.1884C47.5357 35.2492 48.3966 34.7289 49.2534 34.4697C48.3095 33.1646 48.0694 31.6016 48.5664 30.2597C49.0733 28.8911 50.2995 27.8898 51.9676 27.6845ZM74.9959 38.8081L74.2614 44.116C75.3622 43.5848 76.1266 42.7771 76.6066 41.9174C77.5174 40.2863 77.3384 38.6912 76.8235 38.028C76.3999 37.4823 75.8945 37.2742 75.3454 37.2508C75.1864 37.7576 75.0693 38.2784 74.9959 38.8081ZM51.004 38.8081C50.9307 38.2784 50.8135 37.7576 50.6546 37.2508C50.1055 37.2742 49.6 37.4823 49.1764 38.028C48.6616 38.6912 48.4825 40.2863 49.3933 41.9174C49.8733 42.777 50.6377 43.5848 51.7386 44.116L51.004 38.8081ZM63.6658 33.2836C63.3859 32.744 62.6141 32.744 62.3342 33.2836L60.789 36.2628L57.5459 36.9014C56.9747 37.0138 56.7439 37.7059 57.1331 38.1387L59.4225 40.6848L58.9994 44.1129C58.9261 44.7067 59.5435 45.143 60.0787 44.8759L63 43.4178L65.9212 44.8759C66.4565 45.143 67.0738 44.7067 67.0006 44.1129L66.5775 40.6848L68.8669 38.1387C69.2561 37.7059 69.0253 37.0138 68.4541 36.9014L65.211 36.2628L63.6658 33.2836Z" fill="#FF8D4D"/>
<defs>
<filter id="filter0_d_80_1982" x="0" y="0" width="126" height="123" filterUnits="userSpaceOnUse" color-interpolation-filters="sRGB">
<feFlood flood-opacity="0" result="BackgroundImageFix"/>
<feColorMatrix in="SourceAlpha" type="matrix" values="0 0 0 0 0 0 0 0 0 0 0 0 0 0 0 0 0 0 127 0" result="hardAlpha"/>
<feOffset dy="4"/>
<feGaussianBlur stdDeviation="5"/>
<feComposite in2="hardAlpha" operator="out"/>
<feColorMatrix type="matrix" values="0 0 0 0 0 0 0 0 0 0 0 0 0 0 0 0 0 0 0.1 0"/>
<feBlend mode="normal" in2="BackgroundImageFix" result="effect1_dropShadow_80_1982"/>
<feBlend mode="normal" in="SourceGraphic" in2="effect1_dropShadow_80_1982" result="shape"/>
</filter>
</defs>
</svg>
