<svg width="126" height="123" viewBox="0 0 126 123" fill="none" xmlns="http://www.w3.org/2000/svg">
<g filter="url(#filter0_d_80_1955)">
<rect x="10" y="6" width="106" height="103" rx="10" fill="white"/>
</g>
<path d="M45.5039 79.9414C45.4336 79.2676 44.9004 78.875 44.0391 78.875C43.1484 78.875 42.6504 79.2852 42.6445 79.8477C42.6387 80.4629 43.2715 80.7383 44.0039 80.9023L44.7656 81.0898C46.2188 81.4238 47.3027 82.1621 47.3086 83.5742C47.3027 85.127 46.0957 86.123 44.0273 86.1172C41.9766 86.123 40.6699 85.1738 40.6172 83.3516H42.3281C42.3867 84.207 43.0664 84.6406 44.0039 84.6406C44.9297 84.6406 45.5273 84.207 45.5273 83.5742C45.5273 82.9941 45 82.7246 44.0742 82.4961L43.1484 82.2734C41.7188 81.9219 40.8398 81.207 40.8398 79.9648C40.834 78.4238 42.1934 77.3984 44.0508 77.3984C45.9316 77.3984 47.168 78.4414 47.1914 79.9414H45.5039ZM55.2352 77.5156V86H53.7117L49.9852 80.6094H49.9148V86H48.157V77.5156H49.7039L53.407 82.9062H53.4891V77.5156H55.2352ZM60.9703 79.9414C60.9 79.2676 60.3668 78.875 59.5055 78.875C58.6148 78.875 58.1168 79.2852 58.1109 79.8477C58.1051 80.4629 58.7379 80.7383 59.4703 80.9023L60.232 81.0898C61.6852 81.4238 62.7691 82.1621 62.775 83.5742C62.7691 85.127 61.5621 86.123 59.4937 86.1172C57.443 86.123 56.1363 85.1738 56.0836 83.3516H57.7945C57.8531 84.207 58.5328 84.6406 59.4703 84.6406C60.3961 84.6406 60.9937 84.207 60.9937 83.5742C60.9937 82.9941 60.4664 82.7246 59.5406 82.4961L58.6148 82.2734C57.1852 81.9219 56.3062 81.207 56.3062 79.9648C56.3004 78.4238 57.6598 77.3984 59.5172 77.3984C61.398 77.3984 62.6344 78.4414 62.6578 79.9414H60.9703ZM70.4953 83.0586C72.8273 83.0586 74.2922 83.7969 74.3039 85.0742C74.2922 86.334 72.8273 87.084 70.4953 87.0781C68.1809 87.084 66.6926 86.334 66.6984 85.0742C66.6926 83.7969 68.1809 83.0586 70.4953 83.0586ZM65.7141 82.3789V81.1719H69.3469V79.3086H70.8234V81.1719H75.3937V82.3789H65.7141ZM66.8039 78.0664V76.8945H74.2453V77.7617C74.2512 78.6113 74.2512 79.5254 73.9406 80.6211L72.4758 80.4805C72.716 79.5137 72.7453 78.793 72.757 78.0664H66.8039ZM68.1867 85.0742C68.1809 85.6484 69.0246 85.9414 70.4953 85.9414C71.966 85.9414 72.8156 85.6484 72.8156 85.0742C72.8156 84.4824 71.966 84.166 70.4953 84.1719C69.0246 84.166 68.1809 84.4824 68.1867 85.0742ZM85.5117 82.3438V83.5508H83.2266V87.0781H81.7031V83.5508H79.5234V87.0781H77.9883V83.5508H75.75V82.3438H85.5117ZM76.7344 79.1797C76.7285 77.709 78.3105 76.7715 80.6016 76.7656C82.8926 76.7715 84.4922 77.709 84.4922 79.1797C84.4922 80.6152 82.8926 81.5293 80.6016 81.5234C78.3105 81.5293 76.7285 80.6152 76.7344 79.1797ZM78.2695 79.1797C78.2637 79.9297 79.1719 80.3457 80.6016 80.3516C82.043 80.3457 82.9453 79.9297 82.9453 79.1797C82.9453 78.3945 82.043 77.9668 80.6016 77.9609C79.1719 77.9668 78.2637 78.3945 78.2695 79.1797Z" fill="#FF5C00"/>
<g clip-path="url(#clip0_80_1955)">
<path fill-rule="evenodd" clip-rule="evenodd" d="M72 26H54C49.0294 26 45 30.0294 45 35V53C45 57.9706 49.0294 62 54 62H72C76.9706 62 81 57.9706 81 53V35C81 30.0294 76.9706 26 72 26ZM63.9278 37.7434C62.6118 37.5483 61.2678 37.7731 60.0869 38.3858C58.906 38.9985 57.9484 39.968 57.3503 41.1564C56.7522 42.3447 56.544 43.6914 56.7553 45.0049C56.9667 46.3183 57.5868 47.5317 58.5275 48.4725C59.4683 49.4132 60.6817 50.0333 61.9951 50.2447C63.3086 50.456 64.6553 50.2478 65.8437 49.6497C67.032 49.0516 68.0015 48.094 68.6142 46.9131C69.2269 45.7322 69.4517 44.3882 69.2566 43.0722C69.0575 41.7299 68.432 40.4871 67.4724 39.5276C66.5129 38.568 65.2701 37.9425 63.9278 37.7434ZM59.2809 36.8325C60.7885 36.0502 62.5044 35.7632 64.1845 36.0124C65.8982 36.2665 67.4848 37.0651 68.7099 38.2901C69.9349 39.5152 70.7335 41.1018 70.9877 42.8155C71.2368 44.4956 70.9498 46.2115 70.1676 47.7191C69.3853 49.2267 68.1476 50.4493 66.6304 51.2129C65.1133 51.9765 63.394 52.2423 61.7171 51.9725C60.0402 51.7026 58.4911 50.9109 57.2901 49.7099C56.0891 48.5089 55.2974 46.9598 55.0276 45.2829C54.7577 43.606 55.0235 41.8867 55.7871 40.3696C56.5507 38.8524 57.7733 37.6147 59.2809 36.8325ZM72.9 35.9C73.8941 35.9 74.7 35.0941 74.7 34.1C74.7 33.1059 73.8941 32.3 72.9 32.3C71.9059 32.3 71.1 33.1059 71.1 34.1C71.1 35.0941 71.9059 35.9 72.9 35.9Z" fill="#FF5C00"/>
</g>
<defs>
<filter id="filter0_d_80_1955" x="0" y="0" width="126" height="123" filterUnits="userSpaceOnUse" color-interpolation-filters="sRGB">
<feFlood flood-opacity="0" result="BackgroundImageFix"/>
<feColorMatrix in="SourceAlpha" type="matrix" values="0 0 0 0 0 0 0 0 0 0 0 0 0 0 0 0 0 0 127 0" result="hardAlpha"/>
<feOffset dy="4"/>
<feGaussianBlur stdDeviation="5"/>
<feComposite in2="hardAlpha" operator="out"/>
<feColorMatrix type="matrix" values="0 0 0 0 0 0 0 0 0 0 0 0 0 0 0 0 0 0 0.1 0"/>
<feBlend mode="normal" in2="BackgroundImageFix" result="effect1_dropShadow_80_1955"/>
<feBlend mode="normal" in="SourceGraphic" in2="effect1_dropShadow_80_1955" result="shape"/>
</filter>
<clipPath id="clip0_80_1955">
<rect width="36" height="36" fill="white" transform="translate(45 26)"/>
</clipPath>
</defs>
</svg>
