<svg width="40" height="40" viewBox="0 0 40 40" fill="none" xmlns="http://www.w3.org/2000/svg">
<path fill-rule="evenodd" clip-rule="evenodd" d="M16.4762 1.78319C18.2238 -0.594398 21.7762 -0.594398 23.5238 1.78319C25.1001 3.92773 27.7471 5.02085 30.3819 4.61833C33.305 4.17172 35.8281 6.695 35.3816 9.6182C34.9791 12.2528 36.0723 14.8998 38.2168 16.4762C40.5944 18.2238 40.5944 21.7762 38.2168 23.5238C36.0723 25.1001 34.9791 27.7471 35.3816 30.3819C35.8281 33.305 33.305 35.8281 30.3819 35.3816C27.7471 34.9791 25.1001 36.0723 23.5238 38.2168C21.7762 40.5944 18.2238 40.5944 16.4762 38.2168C14.8998 36.0723 12.2528 34.9791 9.6182 35.3816C6.695 35.8281 4.17172 33.305 4.61833 30.3819C5.02085 27.7471 3.92773 25.1001 1.78319 23.5238C-0.594398 21.7762 -0.594398 18.2238 1.78319 16.4762C3.92773 14.8998 5.02085 12.2528 4.61833 9.6182C4.17172 6.695 6.695 4.17172 9.6182 4.61833C12.2528 5.02085 14.8998 3.92773 16.4762 1.78319Z" fill="url(#paint0_linear_123_5976)"/>
<circle cx="20" cy="20" r="14.5" stroke="white"/>
<path d="M14.275 16.8201L15.467 16.5006L15.7938 17.7197L14.6019 18.0392L14.275 16.8201ZM10.9481 16.9514L18.4224 14.9476L18.659 15.83L11.1847 17.8339L10.9481 16.9514ZM13.1238 12.5259L14.3067 12.2088L14.5799 13.2277L13.3969 13.5449L13.1238 12.5259ZM13.3399 13.6187L14.3884 13.3376L14.4323 13.5013C14.7568 14.7114 13.7615 15.8363 11.5014 16.5788L10.9283 15.767C12.9318 15.1421 13.5399 14.3647 13.3838 13.7825L13.3399 13.6187ZM13.6177 13.5442L14.6663 13.2631L14.7102 13.4269C14.8663 14.0091 15.7817 14.378 17.8201 13.9193L17.73 14.9089C15.4105 15.3942 13.986 14.918 13.6616 13.708L13.6177 13.5442ZM10.8642 13.8436L16.9314 12.217L17.168 13.0995L11.1008 14.7261L10.8642 13.8436ZM12.1637 18.1176L17.8994 16.5798L18.458 18.6632L13.9053 19.8838L14.1199 20.6844L12.9459 20.9992L12.5142 19.3889L17.0669 18.1683L16.9595 17.768L12.3979 18.991L12.1637 18.1176ZM12.8483 20.6353L18.7901 19.0422L19.0267 19.9247L13.0849 21.5178L12.8483 20.6353Z" fill="white"/>
<path d="M22.5384 11.6889L24.2232 11.2372L24.4867 12.2197L22.8018 12.6715L22.5384 11.6889ZM19.8968 11.1879L20.8737 10.926L21.0859 11.7175C21.5323 13.3824 21.1942 15.0236 19.7657 16.0014L18.8822 15.2143C20.1469 14.3779 20.4139 13.1166 20.109 11.9794L19.8968 11.1879ZM20.1388 11.123L21.0977 10.8659L21.3295 11.7302C21.61 12.7765 22.4412 13.6555 23.8554 13.7347L23.4907 14.8467C21.8436 14.7227 20.7876 13.543 20.3705 11.9873L20.1388 11.123ZM20.6168 16.3096L26.2718 14.7935L27.084 17.823L25.8921 18.1426L25.3359 16.0683L20.8729 17.2649L20.6168 16.3096ZM23.6334 9.718L24.8253 9.39844L26.1693 14.4114L24.9774 14.7309L23.6334 9.718Z" fill="white"/>
<path d="M15.2164 25.3834L16.4084 25.0638L16.7499 26.3375L15.5579 26.6571L15.2164 25.3834ZM14.9745 22.1521C16.1754 21.8301 17.2325 22.2976 17.5057 23.3166C17.774 24.3173 17.0925 25.2509 15.8916 25.5729C14.6907 25.8949 13.6336 25.4274 13.3653 24.4266C13.0921 23.4077 13.7736 22.4741 14.9745 22.1521ZM15.2184 23.0619C14.6538 23.2133 14.3376 23.6101 14.4766 24.1287C14.6132 24.6382 15.0856 24.8236 15.6502 24.6722C16.2237 24.5184 16.531 24.124 16.3944 23.6145C16.2554 23.0959 15.792 22.9081 15.2184 23.0619ZM17.8083 21.0413L19.0002 20.7217L20.7223 27.1448L19.5304 27.4644L17.8083 21.0413ZM19.2864 23.473L20.7472 23.0814L21.0131 24.073L19.5523 24.4647L19.2864 23.473ZM15.418 29.5031L21.2343 27.9437L21.4953 28.9172L15.679 30.4766L15.418 29.5031ZM15.035 28.0747L16.2359 27.7528L16.7311 29.5996L15.5302 29.9216L15.035 28.0747ZM13.9501 27.7902L13.5571 26.8619C14.9641 26.4847 16.9065 25.9542 18.4741 25.2804L18.7865 26.123C17.196 26.8908 15.3213 27.4226 13.9501 27.7902Z" fill="white"/>
<path d="M23.5451 24.7595L24.7101 24.4471L25.2418 26.4304L24.0768 26.7428L23.5451 24.7595ZM26.1685 24.0464L27.3335 23.734L27.8677 25.7264L26.7026 26.0388L26.1685 24.0464ZM22.0744 26.8701L29.5845 24.8566L29.848 25.8391L22.3378 27.8526L22.0744 26.8701ZM21.3167 20.676L27.142 19.1142L27.8908 21.9073L23.2665 23.1471L23.6494 24.5755L22.4664 24.8926L21.8298 22.5181L26.4542 21.2783L26.2151 20.3867L21.5728 21.6313L21.3167 20.676ZM22.3298 24.3831L28.3254 22.7757L28.5864 23.7492L22.5908 25.3566L22.3298 24.3831Z" fill="white"/>
<defs>
<linearGradient id="paint0_linear_123_5976" x1="20" y1="0" x2="20" y2="40" gradientUnits="userSpaceOnUse">
<stop stop-color="#FE0000"/>
<stop offset="1" stop-color="#FF7000"/>
</linearGradient>
</defs>
</svg>
