<svg width="48" height="48" viewBox="0 0 48 48" fill="none" xmlns="http://www.w3.org/2000/svg">
<path d="M11.9695 34.9102C11.9646 37.5713 11.1736 39.8662 8.01445 41.4922L7.41875 40.6621C8.88359 39.9053 9.79668 39.0264 10.3191 37.9766L7.61406 38.2305L7.45781 37.3027L10.6561 37.1074C10.7781 36.6924 10.8514 36.2529 10.8855 35.7891H7.9168V34.9102H11.9695ZM11.95 38.377V37.4883H13.7664V34.041H14.8504V42.8691H13.7664V38.377H11.95ZM23.857 39.0215V39.9004H21.9625V42.8984H20.8785V39.9004H18.818V42.8984H17.7242V39.9004H15.7906V39.0215H23.857ZM16.777 37.9961V34.4902H22.8707V37.9961H16.777ZM17.8414 37.127H21.7867V35.3496H17.8414V37.127ZM31.5063 34.041V42.8691H30.432V34.041H31.5063ZM24.6508 40.6523V34.9004H25.725V39.7246C26.9604 39.7051 28.2787 39.5977 29.641 39.3242L29.7777 40.2324C28.225 40.5547 26.7846 40.6572 25.4125 40.6523H24.6508ZM37.4172 34.8027V35.6914H34.0676V37.2637H37.0656V38.123H34.0676V39.9395C35.5129 39.9346 36.6164 39.8809 37.8859 39.6758L37.9934 40.5547C36.6018 40.7744 35.3615 40.8184 33.7355 40.8184H32.9934V34.8027H37.4172ZM38.7648 42.8691V34.041H39.8586V42.8691H38.7648Z" fill="#FF0A00"/>
<path d="M24 17H24.01M20 17H20.01M28 17H28.01M24.2896 23.9984C30.0965 23.9343 33 21.9189 33 17C33 12 30 10 24 10C18 10 15 12 15 17C15 20.0771 16.1362 22.018 18.4087 23.0557L17 27L24.2896 23.9984Z" stroke="#FF0A00" stroke-width="1.4" stroke-linecap="round" stroke-linejoin="round"/>
</svg>
