<svg width="48" height="48" viewBox="0 0 48 48" fill="none" xmlns="http://www.w3.org/2000/svg">
<path d="M11.95 34.9688C11.9451 37.5469 11.1053 39.8418 7.99492 41.4238L7.47734 40.7207C9.01055 39.9395 9.95781 38.9971 10.49 37.8838L7.65313 38.1523L7.50664 37.3516L10.7732 37.1465C10.91 36.6973 10.993 36.2188 11.0271 35.7207H7.95586V34.9688H11.95ZM11.9305 38.3086V37.5469H13.8543V34.0801H14.7723V42.8301H13.8543V38.3086H11.9305ZM23.8277 39.0801V39.8418H21.8648V42.8789H20.9371V39.8418H18.7398V42.8789H17.8121V39.8418H15.8199V39.0801H23.8277ZM16.8258 37.9863V34.5391H22.8219V37.9863H16.8258ZM17.734 37.2441H21.8941V35.2812H17.734V37.2441ZM31.4379 34.0801V42.8301H30.5102V34.0801H31.4379ZM24.7094 40.6035V34.9297H25.6273V39.8027C26.9066 39.7979 28.2494 39.6855 29.6508 39.4023L29.7777 40.1836C28.2299 40.501 26.8236 40.6084 25.4418 40.6035H24.7094ZM37.3781 34.8516V35.6133H33.9699V37.3027H37.0461V38.0449H33.9699V40.0078C35.4982 39.998 36.6066 39.9443 37.9055 39.7344L38.0031 40.4863C36.6164 40.7109 35.4152 40.7549 33.7648 40.7598H33.052V34.8516H37.3781ZM38.8527 42.8301V34.0801H39.7902V42.8301H38.8527Z" fill="#939393"/>
<path d="M24 17H24.01M20 17H20.01M28 17H28.01M24.2896 23.9984C30.0965 23.9343 33 21.9189 33 17C33 12 30 10 24 10C18 10 15 12 15 17C15 20.0771 16.1362 22.018 18.4087 23.0557L17 27L24.2896 23.9984Z" stroke="#939393" stroke-width="1.4" stroke-linecap="round" stroke-linejoin="round"/>
</svg>
