<svg width="48" height="48" viewBox="0 0 48 48" fill="none" xmlns="http://www.w3.org/2000/svg">
<path d="M18.9045 34.0801V42.8496H17.9768V34.0801H18.9045ZM11.9611 37.8008C11.9611 35.9307 12.9035 34.7393 14.2268 34.7344C15.5256 34.7393 16.4826 35.9307 16.4826 37.8008C16.4826 39.6904 15.5256 40.8818 14.2268 40.877C12.9035 40.8818 11.9611 39.6904 11.9611 37.8008ZM12.8596 37.8008C12.8547 39.1924 13.4113 40.0469 14.2268 40.0469C15.0275 40.0469 15.5842 39.1924 15.5842 37.8008C15.5842 36.4287 15.0275 35.5693 14.2268 35.5645C13.4113 35.5693 12.8547 36.4287 12.8596 37.8008ZM27.4619 34.0801V40.7207H26.583V34.0801H27.4619ZM20.3721 39.0996V34.7734H21.251V36.209H22.9404V34.7734H23.7998V36.5801H24.874V34.2363H25.7529V40.4473H24.874V37.332H23.7998V39.0996H20.3721ZM21.251 38.3477H22.9404V36.9219H21.251V38.3477ZM21.6611 42.6445V39.8223H22.5791V41.8926H27.7158V42.6445H21.6611ZM35.4432 38.7383V39.4805H29.3494V34.8027H35.3553V35.5547H30.2869V36.7363H35.1697V37.4688H30.2869V38.7383H35.4432ZM28.3436 41.7266V40.9648H36.3514V41.7266H28.3436Z" fill="#939393"/>
<path d="M33 17V15C33 13.8954 32.1046 13 31 13H29M33 17H15M33 17H32V24C32 25.1046 31.1046 26 30 26H24M15 17V15C15 13.8954 15.8954 13 17 13H19M15 17V17C15.5523 17 16 17.4477 16 18V24C16 25.1046 16.8954 26 18 26H24M24 13V26M24 13H29M24 13H19M24 13V12M29 13L29.3158 11.7369C29.6633 10.3467 28.6119 9 27.1788 9V9C26.4424 9 25.7546 9.36807 25.3461 9.98086L24 12M19 13L18.6842 11.7369C18.3367 10.3467 19.3881 9 20.8212 9V9C21.5576 9 22.2454 9.36807 22.6539 9.98086L24 12" stroke="#939393" stroke-width="1.4" stroke-linecap="round" stroke-linejoin="round"/>
</svg>
