<svg width="109" height="192" viewBox="0 0 109 192" fill="none" xmlns="http://www.w3.org/2000/svg">
<g filter="url(#filter0_d_92_864)">
<path fill-rule="evenodd" clip-rule="evenodd" d="M72 20C72 10.0589 63.9411 2 54 2C44.0589 2 36 10.0589 36 20H14C8.47715 20 4 24.4772 4 30V176C4 181.523 8.47715 186 14 186H95C100.523 186 105 181.523 105 176V30C105 24.4772 100.523 20 95 20H72Z" fill="white"/>
</g>
<circle cx="54" cy="20" r="14" fill="#FF5C00"/>
<path d="M56.207 12.8594V27H53.2578V15.6523H53.1797L49.9375 17.6836V15.0859L53.4336 12.8594H56.207Z" fill="white"/>
<defs>
<filter id="filter0_d_92_864" x="0" y="0" width="109" height="192" filterUnits="userSpaceOnUse" color-interpolation-filters="sRGB">
<feFlood flood-opacity="0" result="BackgroundImageFix"/>
<feColorMatrix in="SourceAlpha" type="matrix" values="0 0 0 0 0 0 0 0 0 0 0 0 0 0 0 0 0 0 127 0" result="hardAlpha"/>
<feOffset dy="2"/>
<feGaussianBlur stdDeviation="2"/>
<feComposite in2="hardAlpha" operator="out"/>
<feColorMatrix type="matrix" values="0 0 0 0 0 0 0 0 0 0 0 0 0 0 0 0 0 0 0.16 0"/>
<feBlend mode="normal" in2="BackgroundImageFix" result="effect1_dropShadow_92_864"/>
<feBlend mode="normal" in="SourceGraphic" in2="effect1_dropShadow_92_864" result="shape"/>
</filter>
</defs>
</svg>
