<svg width="347" height="119" viewBox="0 0 347 119" fill="none" xmlns="http://www.w3.org/2000/svg">
<g filter="url(#filter0_d_102_4830)">
<rect x="6" y="4" width="335" height="107" rx="14" fill="white"/>
</g>
<path d="M36.7598 21.8711V31.1816H35.2422V27.2852H33.4238V26.0547H35.2422V21.8711H36.7598ZM26.4375 24.4551V23.2383H29.3086V21.8574H30.8125V23.2383H33.6836V24.4551H26.4375ZM27.1348 27.3262C27.1279 25.9316 28.3516 24.9609 30.0605 24.9609C31.7559 24.9609 32.9932 25.9316 33 27.3262C32.9932 28.707 31.7559 29.6641 30.0605 29.6641C28.3516 29.6641 27.1279 28.707 27.1348 27.3262ZM28.584 27.3262C28.584 28.0576 29.1924 28.4951 30.0605 28.4883C30.9219 28.4951 31.5371 28.0576 31.5371 27.3262C31.5371 26.5947 30.9219 26.1367 30.0605 26.1367C29.1855 26.1367 28.584 26.5947 28.584 27.3262ZM28.6113 33.9707V30.375H30.1562V32.7402H37.0332V33.9707H28.6113ZM45.4414 22.8145V23.9766H38.5371V22.8145H41.2988V21.7207H42.8164V22.8145H45.4414ZM39.1797 26.5059C39.1729 25.2275 40.3486 24.4004 42.0371 24.4004C43.7529 24.4004 44.9287 25.2275 44.9355 26.5059C44.9287 27.7705 43.7529 28.5908 42.0371 28.5977C40.3486 28.5908 39.1729 27.7705 39.1797 26.5059ZM40.6016 26.5059C40.5947 27.1348 41.1895 27.5176 42.0371 27.5176C42.8916 27.5176 43.4932 27.1348 43.5 26.5059C43.4932 25.877 42.8916 25.501 42.0371 25.5078C41.1895 25.501 40.5947 25.877 40.6016 26.5059ZM40.7109 30.3066V29.1992H48.8594V32.125H42.2422V32.9727H49.1875V34.1074H40.7246V31.0859H47.3418V30.3066H40.7109ZM45.5098 27.7637V26.5879H47.3418V25.5488H45.5234V24.373H47.3418V21.8574H48.8594V28.6797H47.3418V27.7637H45.5098ZM65.1973 27.6133V28.8438H53.9316V27.6133H65.1973ZM54.4785 25.8633C56.7686 25.6377 58.2588 24.7217 58.4912 23.6895H54.957V22.4453H64.1855V23.6895H60.6172C60.8428 24.708 62.3193 25.6377 64.6641 25.8633L64.1309 27.0664C61.8818 26.834 60.2207 25.9385 59.5508 24.6875C58.8809 25.9385 57.2402 26.834 54.998 27.0664L54.4785 25.8633ZM55.2441 31.9336C55.2441 30.498 56.8643 29.6641 59.5508 29.6641C62.2168 29.6641 63.8232 30.498 63.8301 31.9336C63.8232 33.3896 62.2168 34.2031 59.5508 34.2031C56.8643 34.2031 55.2441 33.3896 55.2441 31.9336ZM56.7891 31.9336C56.7822 32.6514 57.7529 33.0068 59.5508 33.0137C61.3213 33.0068 62.2988 32.6514 62.3125 31.9336C62.2988 31.2158 61.3213 30.8535 59.5508 30.8535C57.7529 30.8535 56.7822 31.2158 56.7891 31.9336ZM70.5977 24.8242C70.5908 27.1211 71.6914 29.377 73.6602 30.2383L72.7441 31.4551C71.3496 30.7715 70.3652 29.459 69.8389 27.8389C69.2988 29.5479 68.2871 30.9697 66.8652 31.6875L65.9082 30.457C67.9248 29.5137 69.0459 27.1348 69.0527 24.8242V22.8555H70.5977V24.8242ZM72.293 27.0801V25.8496H74.8906V21.8574H76.3945V34.2305H74.8906V27.0801H72.293ZM92.9648 26.6289V27.873H91.1328V34.1895H89.6152V21.8574H91.1328V26.6289H92.9648ZM81.8906 31.1406V23.0605H83.3945V29.8828C85.042 29.8555 86.792 29.7119 88.6582 29.3223L88.8223 30.6074C86.7373 31.0244 84.7617 31.1338 82.9297 31.1406H81.8906ZM103.547 25.002V26.2324H95.0156V22.0625H96.5332V25.002H103.547ZM93.5527 28.5293V27.2988H104.832V28.5293H99.9102V29.7734H103.424V34.0527H94.9746V29.7734H98.3926V28.5293H93.5527ZM96.4512 32.8496H101.947V30.9629H96.4512V32.8496ZM116.316 21.8574V34.2168H114.854V21.8574H116.316ZM105.775 27.2031C105.775 24.4824 106.828 22.7939 108.441 22.8008C109.938 22.7939 110.957 24.1953 111.135 26.5059H112.324V22.0762H113.773V33.6152H112.324V27.7363H111.148C111.005 30.1494 109.973 31.626 108.441 31.6191C106.828 31.626 105.775 29.9307 105.775 27.2031ZM107.184 27.2031C107.177 29.1377 107.655 30.1768 108.441 30.1699C109.262 30.1768 109.747 29.1377 109.754 27.2031C109.747 25.2754 109.262 24.2295 108.441 24.2363C107.655 24.2295 107.177 25.2754 107.184 27.2031ZM131.711 21.8574V34.2168H130.262V27.9141H128.867V33.5879H127.473V22.0898H128.867V26.6973H130.262V21.8574H131.711ZM121.457 31.332V23.3203H126.078V24.5508H122.988V30.0469C124.328 30.0332 125.436 29.9648 126.693 29.7324L126.803 30.9766C125.306 31.2773 124.014 31.3184 122.291 31.332H121.457ZM142.854 21.8574V26.7793H144.754V28.0371H142.854V34.2168H141.35V21.8574H142.854ZM133.105 24.9746V23.7578H136.031V22.0352H137.549V23.7578H140.393V24.9746H133.105ZM133.68 28.6934C133.666 26.9844 134.992 25.7744 136.797 25.7812C138.574 25.7744 139.894 26.9844 139.9 28.6934C139.894 30.3955 138.574 31.5918 136.797 31.5918C134.992 31.5918 133.666 30.3955 133.68 28.6934ZM135.129 28.6934C135.122 29.6982 135.826 30.3408 136.797 30.334C137.747 30.3408 138.438 29.6982 138.451 28.6934C138.438 27.6885 137.747 27.0254 136.797 27.0254C135.826 27.0254 135.122 27.6885 135.129 28.6934ZM148.65 22.7598C149.765 22.7598 150.688 23.3818 151.241 24.4688H154.133V21.8574H155.637V34.2305H154.133V29.5547H151.351C150.811 30.7852 149.84 31.4961 148.65 31.4961C146.791 31.4961 145.472 29.8076 145.479 27.1211C145.472 24.4551 146.791 22.7598 148.65 22.7598ZM146.941 27.1211C146.935 29.0215 147.632 30.1221 148.65 30.1289C149.676 30.1221 150.366 29.0215 150.373 27.1211C150.366 25.2344 149.676 24.127 148.65 24.127C147.632 24.127 146.935 25.2344 146.941 27.1211ZM151.672 25.7129C151.761 26.1436 151.809 26.6152 151.809 27.1211C151.809 27.5449 151.774 27.9482 151.706 28.3242H154.133V25.7129H151.672ZM158.877 33.1094C158.289 33.1094 157.804 32.6309 157.811 32.043C157.804 31.4688 158.289 30.9971 158.877 30.9902C159.444 30.9971 159.93 31.4688 159.93 32.043C159.93 32.6309 159.444 33.1094 158.877 33.1094ZM162.691 33.1094C162.104 33.1094 161.618 32.6309 161.625 32.043C161.618 31.4688 162.104 30.9971 162.691 30.9902C163.259 30.9971 163.744 31.4688 163.744 32.043C163.744 32.6309 163.259 33.1094 162.691 33.1094Z" fill="black"/>
<path d="M35.0586 46.543V54.418H34.1328V50.9023H32.3164V50.1289H34.1328V46.543H35.0586ZM26.4336 48.5703V47.8203H29.0234V46.5312H29.9258V47.8203H32.5156V48.5703H26.4336ZM27.0547 51.0898C27.0547 49.9355 28.0566 49.1445 29.4688 49.1445C30.875 49.1445 31.8828 49.9355 31.8945 51.0898C31.8828 52.2383 30.875 53.0176 29.4688 53.0117C28.0566 53.0176 27.0547 52.2383 27.0547 51.0898ZM27.9336 51.0898C27.9336 51.8047 28.5664 52.2969 29.4688 52.2852C30.3652 52.2969 31.0039 51.8047 31.0039 51.0898C31.0039 50.375 30.3652 49.8652 29.4688 49.8711C28.5664 49.8652 27.9336 50.375 27.9336 51.0898ZM28.3203 56.7266V53.7148H29.2461V55.9531H35.293V56.7266H28.3203ZM42.3992 47.457V48.1836H36.5047V47.457H39.0359V46.4023H39.95V47.457H42.3992ZM37.1258 50.4688C37.1141 49.3789 38.075 48.6934 39.4812 48.6875C40.8934 48.6934 41.8543 49.3789 41.8602 50.4688C41.8543 51.541 40.8934 52.2266 39.4812 52.2266C38.075 52.2266 37.1141 51.541 37.1258 50.4688ZM37.9812 50.4688C37.9754 51.1191 38.5906 51.5586 39.4812 51.5586C40.3719 51.5586 40.9871 51.1191 40.993 50.4688C40.9871 49.8066 40.3719 49.3789 39.4812 49.3906C38.5906 49.3789 37.9754 49.8066 37.9812 50.4688ZM38.368 53.5625V52.8711H45.118V55.1211H39.3055V56.1289H45.4227V56.832H38.3914V54.4531H44.2039V53.5625H38.368ZM42.3875 51.4297V50.6914H44.2039V49.5781H42.3992V48.8516H44.2039V46.5312H45.118V52.3555H44.2039V51.4297H42.3875ZM57.9125 46.5312V56.9727H56.9867V51.4883H54.7016V50.7266H56.9867V46.5312H57.9125ZM49.2992 54.2188C50.8285 53.5039 51.9711 51.7227 51.9711 49.9297V49.0977H49.5805V48.3477H51.9711V46.7305H52.8852V48.3477H55.2406V49.0977H52.8734V49.9297C52.8734 51.6465 54.0512 53.3398 55.5922 54.0312L55.0648 54.7461C53.8754 54.207 52.8969 53.0645 52.434 51.6934C51.9828 53.1465 51.016 54.3594 49.8266 54.9336L49.2992 54.2188ZM64.093 46.7656C66.3605 46.7656 67.7668 47.498 67.7727 48.7461C67.7668 49.9766 66.3605 50.6973 64.093 50.6914C61.8254 50.6973 60.4016 49.9766 60.4016 48.7461C60.4016 47.498 61.8254 46.7656 64.093 46.7656ZM59.3469 52.3555V51.5938H68.8391V52.3555H59.3469ZM60.507 56.8086V53.3867H67.6789V56.8086H60.507ZM61.3508 48.7461C61.3449 49.502 62.4055 49.959 64.093 49.9648C65.7629 49.959 66.8293 49.502 66.8352 48.7461C66.8293 47.9668 65.7629 47.5039 64.093 47.5039C62.4055 47.5039 61.3449 47.9668 61.3508 48.7461ZM61.4211 56.0586H66.7766V54.125H61.4211V56.0586ZM75.8328 49.332C75.827 51.2363 77.1219 53.1465 78.657 53.8438L78.0945 54.5703C76.9051 53.9961 75.8797 52.7598 75.3816 51.2773C74.9012 52.8477 73.8758 54.166 72.657 54.7812L72.0711 54.0078C73.6238 53.2988 74.907 51.3066 74.9188 49.332V47.4336H75.8328V49.332ZM79.7938 56.9727V46.5312H80.7195V56.9727H79.7938ZM85.7281 48.4648C85.734 49.8535 86.7535 51.1191 88.2945 51.6523L87.8258 52.3672C86.6363 51.9453 85.7281 51.0957 85.2828 50.0176C84.8375 51.2012 83.8824 52.1211 82.6578 52.5664L82.1656 51.8516C83.7242 51.3008 84.8141 49.959 84.8258 48.4648V48.0195H82.4469V47.2695H88.0719V48.0195H85.7281V48.4648ZM83.525 54.1133V53.3633H90.3453V56.9492H89.4313V54.1133H83.525ZM89.4313 52.8125V46.5312H90.3453V49.2852H91.9156V50.0703H90.3453V52.8125H89.4313ZM100.334 46.5312V50.832H102.08V51.5938H100.334V56.9492H99.4203V46.5312H100.334ZM92.2133 48.9688V48.207H94.8969V46.6602H95.8109V48.207H98.4125V48.9688H92.2133ZM92.8109 52.2266C92.8051 50.8203 93.8832 49.8359 95.3656 49.8359C96.8363 49.8359 97.9086 50.8203 97.9203 52.2266C97.9086 53.6387 96.8363 54.6172 95.3656 54.6172C93.8832 54.6172 92.8051 53.6387 92.8109 52.2266ZM93.6898 52.2266C93.684 53.1758 94.393 53.8438 95.3656 53.832C96.3266 53.8438 97.0297 53.1758 97.0414 52.2266C97.0297 51.2832 96.3266 50.6035 95.3656 50.6094C94.393 50.6035 93.684 51.2832 93.6898 52.2266ZM110.698 47.5859V48.6289C110.687 49.9062 110.687 51.3359 110.312 53.4336L109.374 53.3281C109.767 51.3359 109.767 49.877 109.773 48.6289V48.3477H103.351V47.5859H110.698ZM102.343 55.4727V54.7109H106.07V50.9844H106.972V54.7109H111.835V55.4727H102.343ZM123.27 46.5195V49.2148H124.841V49.9883H123.27V52.4961H122.356V46.5195H123.27ZM115.149 51.7344C117.745 51.0605 119.262 49.6895 119.432 47.9609H115.606V47.1992H120.434C120.429 49.8359 118.6 51.6758 115.501 52.4844L115.149 51.7344ZM116.192 56.1992C117.932 55.9297 119.485 54.9336 119.544 53.75H116.591V53.0117H123.458V53.75H120.505C120.557 54.9102 122.128 55.9297 123.856 56.2109L123.505 56.9258C121.981 56.668 120.61 55.8887 120.024 54.8223C119.444 55.8945 118.067 56.6621 116.555 56.9258L116.192 56.1992ZM133.552 47.5859V48.6289C133.541 49.9062 133.541 51.3359 133.166 53.4336L132.228 53.3281C132.621 51.3359 132.621 49.877 132.627 48.6289V48.3477H126.205V47.5859H133.552ZM125.197 55.4727V54.7109H128.923V50.9844H129.826V54.7109H134.689V55.4727H125.197ZM141.507 53.5273C141.501 54.4473 141.999 55.4258 142.989 55.9883C143.986 55.373 144.513 54.3301 144.507 53.5273V52.9531H145.409V53.5273C145.404 54.5996 146.195 55.666 147.53 56.1289L147.073 56.8086C146.03 56.4395 145.304 55.7129 144.941 54.8398C144.618 55.6836 143.98 56.4863 143.019 56.8906C142.005 56.5039 141.361 55.7422 141.05 54.8691C140.675 55.707 139.96 56.4336 138.964 56.8086L138.495 56.1289C139.814 55.6367 140.605 54.5234 140.616 53.5273V52.9531H141.507V53.5273ZM138.226 49.5898C138.22 48.1367 139.374 47.1465 140.956 47.1523C142.538 47.1465 143.681 48.1367 143.687 49.5898C143.681 51.0195 142.538 52.0039 140.956 52.0039C139.374 52.0039 138.22 51.0195 138.226 49.5898ZM139.128 49.5898C139.116 50.5566 139.884 51.2363 140.956 51.2422C142.017 51.2363 142.784 50.5566 142.784 49.5898C142.784 48.6172 142.017 47.9258 140.956 47.9375C139.884 47.9258 139.116 48.6172 139.128 49.5898ZM145.667 52.4961V46.543H146.581V52.4961H145.667ZM153.453 47.4102V48.1719H149.562V51.8516C151.426 51.8457 152.639 51.7871 154.039 51.5117L154.156 52.2734C152.668 52.5371 151.408 52.6133 149.445 52.6133H148.66V47.4102H153.453ZM149.973 56.7852V53.5742H150.898V56.0352H156.969V56.7852H149.973ZM152.773 50.1875V49.4375H155.762V46.543H156.688V54.1484H155.762V50.1875H152.773ZM169.47 46.543V54.418H168.545V50.9023H166.728V50.1289H168.545V46.543H169.47ZM160.845 48.5703V47.8203H163.435V46.5312H164.337V47.8203H166.927V48.5703H160.845ZM161.466 51.0898C161.466 49.9355 162.468 49.1445 163.88 49.1445C165.287 49.1445 166.295 49.9355 166.306 51.0898C166.295 52.2383 165.287 53.0176 163.88 53.0117C162.468 53.0176 161.466 52.2383 161.466 51.0898ZM162.345 51.0898C162.345 51.8047 162.978 52.2969 163.88 52.2852C164.777 52.2969 165.416 51.8047 165.416 51.0898C165.416 50.375 164.777 49.8652 163.88 49.8711C162.978 49.8652 162.345 50.375 162.345 51.0898ZM162.732 56.7266V53.7148H163.658V55.9531H169.705V56.7266H162.732ZM176.811 47.457V48.1836H170.916V47.457H173.448V46.4023H174.362V47.457H176.811ZM171.538 50.4688C171.526 49.3789 172.487 48.6934 173.893 48.6875C175.305 48.6934 176.266 49.3789 176.272 50.4688C176.266 51.541 175.305 52.2266 173.893 52.2266C172.487 52.2266 171.526 51.541 171.538 50.4688ZM172.393 50.4688C172.387 51.1191 173.002 51.5586 173.893 51.5586C174.784 51.5586 175.399 51.1191 175.405 50.4688C175.399 49.8066 174.784 49.3789 173.893 49.3906C173.002 49.3789 172.387 49.8066 172.393 50.4688ZM172.78 53.5625V52.8711H179.53V55.1211H173.717V56.1289H179.834V56.832H172.803V54.4531H178.616V53.5625H172.78ZM176.799 51.4297V50.6914H178.616V49.5781H176.811V48.8516H178.616V46.5312H179.53V52.3555H178.616V51.4297H176.799ZM193.18 51.4883V52.25H183.688V51.4883H193.18ZM184.227 50.1289C186.043 49.918 187.795 49.0215 187.836 47.832H184.555V47.0703H192.336V47.832H189.031C189.072 49.0098 190.807 49.918 192.652 50.1289L192.312 50.8672C190.607 50.6504 189.008 49.8828 188.434 48.7285C187.859 49.8828 186.271 50.6504 184.555 50.8672L184.227 50.1289ZM184.836 55.0508C184.83 53.8555 186.184 53.1641 188.434 53.1641C190.666 53.1641 192.008 53.8555 192.02 55.0508C192.008 56.2578 190.666 56.9258 188.434 56.9258C186.184 56.9258 184.83 56.2578 184.836 55.0508ZM185.773 55.0508C185.762 55.7773 186.764 56.1934 188.434 56.1875C190.086 56.1934 191.088 55.7773 191.094 55.0508C191.088 54.3184 190.086 53.9023 188.434 53.8906C186.764 53.9023 185.762 54.3184 185.773 55.0508ZM197.427 49.332C197.421 51.2188 198.634 53.1172 200.145 53.8086L199.595 54.5586C198.411 53.9492 197.432 52.707 196.97 51.2246C196.507 52.7832 195.528 54.1191 194.345 54.7461L193.747 54.0078C195.276 53.2578 196.483 51.2539 196.489 49.332V47.4336H197.427V49.332ZM199.009 50.8438V50.0938H201.481V46.5312H202.395V56.9727H201.481V50.8438H199.009ZM205.541 55.2148L204.627 58.4023H203.759L204.404 55.2148H205.541ZM217.925 46.5312V51.9453H216.999V46.5312H217.925ZM209.488 50.8086C209.904 50.8086 210.355 50.8027 210.823 50.7969V47.9844H209.78V47.2461H215.417V47.9844H214.363V50.6562C214.902 50.6152 215.429 50.5625 215.933 50.5039L215.98 51.1836C213.894 51.4941 211.445 51.5762 209.605 51.5703L209.488 50.8086ZM211.105 53.1875V52.4492H217.925V54.9336H212.042V56.082H218.323V56.832H211.14V54.2422H217.011V53.1875H211.105ZM211.714 50.7793C212.288 50.7617 212.88 50.7441 213.472 50.709V47.9844H211.714V50.7793ZM228.922 54.8398V55.6133H219.383V54.8398H221.75V52.0332C220.859 51.5703 220.32 50.8203 220.32 49.8711C220.32 48.2598 221.902 47.1992 224.129 47.1875C226.355 47.1992 227.938 48.2598 227.938 49.8711C227.938 50.8027 227.416 51.541 226.555 52.0039V54.8398H228.922ZM221.211 49.8711C221.205 51.0371 222.418 51.8164 224.129 51.8164C225.822 51.8164 227.047 51.0371 227.047 49.8711C227.047 48.7051 225.822 47.9375 224.129 47.9492C222.418 47.9375 221.205 48.7051 221.211 49.8711ZM222.652 54.8398H225.629V52.3613C225.178 52.4785 224.674 52.543 224.129 52.543C223.596 52.543 223.098 52.4844 222.652 52.3672V54.8398ZM237.516 46.5312V50.832H239.262V51.5938H237.516V56.9492H236.602V46.5312H237.516ZM229.395 48.9688V48.207H232.079V46.6602H232.993V48.207H235.595V48.9688H229.395ZM229.993 52.2266C229.987 50.8203 231.065 49.8359 232.548 49.8359C234.018 49.8359 235.091 50.8203 235.102 52.2266C235.091 53.6387 234.018 54.6172 232.548 54.6172C231.065 54.6172 229.987 53.6387 229.993 52.2266ZM230.872 52.2266C230.866 53.1758 231.575 53.8438 232.548 53.832C233.509 53.8438 234.212 53.1758 234.223 52.2266C234.212 51.2832 233.509 50.6035 232.548 50.6094C231.575 50.6035 230.866 51.2832 230.872 52.2266ZM248.127 46.543V54.1836H247.212V46.543H248.127ZM239.63 51.957C241.207 51.3418 242.279 49.8184 242.279 48.1719V47.1289H243.216V48.1719C243.205 49.7598 244.289 51.1836 245.841 51.7461L245.361 52.4844C244.154 52.0215 243.216 51.084 242.754 49.8828C242.302 51.1602 241.353 52.1855 240.134 52.6719L239.63 51.957ZM241.4 56.7266V53.4805H242.314V55.9531H248.455V56.7266H241.4ZM261.835 52.0508V52.8008H257.593V54.8398H256.679V52.8008H252.296V52.0508H261.835ZM253.515 56.7266V53.8789H254.429V55.9531H260.769V56.7266H253.515ZM253.573 51.0312V46.8711H254.488V48.207H259.644V46.8711H260.558V51.0312H253.573ZM254.488 50.2812H259.644V48.9102H254.488V50.2812ZM264.969 47.7969C264.957 49.9824 264.652 52.4434 263.129 54.4648L262.402 54.043C263.703 52.4141 264.09 50.4746 264.166 48.5586H262.613V47.7969H264.969ZM264.746 54.7227C266.182 52.8828 266.434 50.5039 266.475 48.5586H265.297V47.7969H267.277C267.277 48.6465 267.254 49.625 267.125 50.6328H268.508V46.8125H269.387V56.4219H268.508V51.3945H267.002C266.762 52.6953 266.311 54.0137 265.461 55.1562L264.746 54.7227ZM270.453 56.9492V46.5312H271.344V56.9492H270.453ZM283.775 46.5312V56.9492H282.849V46.5312H283.775ZM275.291 54.2422C278.109 52.9062 279.55 50.9082 279.755 48.418H275.771V47.668H280.693C280.681 50.6621 279.287 53.3164 275.795 54.9922L275.291 54.2422ZM294.76 52.7188V53.4688H290.413V56.9492H289.51V53.4688H285.221V52.7188H294.76ZM286.44 51.4531V46.9648H287.354V48.4062H292.604V46.9648H293.53V51.4531H286.44ZM287.354 50.7031H292.604V49.1562H287.354V50.7031ZM304.152 46.543V53H303.273V50.1758H301.913V52.8359H301.034V46.707H301.913V49.4141H303.273V46.543H304.152ZM295.245 48.4883V47.7266H297.472V46.5781H298.386V47.7266H300.589V48.4883H295.245ZM295.702 50.7969C295.696 49.7012 296.616 49.0156 297.929 49.0156C299.247 49.0156 300.161 49.7012 300.167 50.7969C300.161 51.8633 299.247 52.5781 297.929 52.5781C296.616 52.5781 295.696 51.8633 295.702 50.7969ZM295.972 56.1289C297.279 55.6836 298.087 54.6172 298.093 53.668V53.293H298.995V53.668C298.984 54.5586 299.47 55.4902 300.454 56.0234C301.445 55.4375 301.948 54.4297 301.96 53.668V53.293H302.862V53.668C302.857 54.6816 303.648 55.7188 304.984 56.1289L304.55 56.832C303.501 56.4688 302.763 55.7598 302.4 54.9102C302.083 55.7305 301.45 56.5215 300.472 56.9141C299.47 56.5391 298.831 55.8008 298.515 54.957C298.134 55.7656 297.413 56.4688 296.417 56.832L295.972 56.1289ZM296.523 50.7969C296.523 51.4531 297.097 51.8809 297.929 51.8867C298.761 51.8809 299.335 51.4531 299.335 50.7969C299.335 50.123 298.761 49.7012 297.929 49.707C297.097 49.7012 296.523 50.123 296.523 50.7969ZM313.801 49.6953V50.4336H306.664V46.918H307.578V49.6953H313.801ZM305.363 52.6016V51.8516H314.902V52.6016H305.363ZM306.605 56.6914V53.668H307.52V55.9297H313.859V56.6914H306.605ZM35.3398 60.5312V70.9492H34.4492V60.5312H35.3398ZM26.832 68.4414V61.8203H30.7578V62.582H27.7227V67.668C29.2285 67.6562 30.1777 67.6035 31.2969 67.3516L31.3906 68.1367C30.1836 68.3828 29.1641 68.4355 27.4883 68.4414H26.832ZM30.0547 65.2891V64.5156H32.3281V60.7891H33.207V70.4102H32.3281V65.2891H30.0547ZM47.7945 60.5312V70.9727H46.8687V60.5312H47.7945ZM39.5914 64.9727C39.5973 62.7578 40.6988 61.3457 42.2516 61.3398C43.7984 61.3457 44.9176 62.7578 44.9117 64.9727C44.9176 67.1934 43.7984 68.5996 42.2516 68.5938C40.6988 68.5996 39.5973 67.1934 39.5914 64.9727ZM40.482 64.9727C40.482 66.666 41.2086 67.7793 42.2516 67.7734C43.3004 67.7793 44.0211 66.666 44.0211 64.9727C44.0211 63.2793 43.3004 62.166 42.2516 62.1602C41.2086 62.166 40.482 63.2793 40.482 64.9727ZM57.9125 60.5312V66.2617H56.9867V63.3555H55.0063V62.5938H56.9867V60.5312H57.9125ZM49.6859 61.7383V61.0234H54.3383V63.6016H50.6352V64.8438C52.3988 64.8438 53.6762 64.7969 55.2055 64.5156L55.2875 65.2539C53.6879 65.5234 52.352 65.582 50.4945 65.582H49.7094V62.9219H53.4242V61.7383H49.6859ZM50.8344 67.5742V66.8594H54.0453V65.8516H54.9594V66.8594H58.1469V67.5742H50.8344ZM51.5609 69.4609C51.5609 68.5176 52.6508 68.002 54.4906 68.0078C56.3305 68.002 57.4203 68.5176 57.4203 69.4609C57.4203 70.4219 56.3305 70.9258 54.4906 70.9258C52.6508 70.9258 51.5609 70.4219 51.5609 69.4609ZM52.4633 69.4609C52.4574 69.9824 53.1957 70.2637 54.4906 70.2695C55.7797 70.2637 56.5297 69.9824 56.5297 69.4609C56.5297 68.9746 55.7797 68.6641 54.4906 68.6641C53.1957 68.6641 52.4574 68.9746 52.4633 69.4609ZM68.2648 60.5312V70.9492H67.3859V60.5312H68.2648ZM59.3586 68.0312C61.6203 66.6895 62.757 64.8086 62.9328 62.6289H59.8039V61.8672H63.8469C63.8469 62.8926 63.6828 63.8828 63.3254 64.8086H65.1945V60.8125H66.0734V70.4219H65.1945V65.5586H62.9855C62.3586 66.7715 61.3508 67.8438 59.8977 68.6992L59.3586 68.0312ZM79.168 64.6914V65.4648H77.4805V70.9492H76.5664V60.5312H77.4805V64.6914H79.168ZM69.8516 68.3008V61.5625H70.7656V67.5273C72.2891 67.5273 73.8418 67.4102 75.5586 67.0469L75.6758 67.832C73.877 68.1953 72.2598 68.3008 70.6836 68.3008H69.8516ZM83.9234 60.9883V62.4297H85.6227V60.9883H86.525V65.4883H83.0328V60.9883H83.9234ZM82.1891 67.4453V66.6719H91.7281V67.4453H87.3805V70.9492H86.4781V67.4453H82.1891ZM83.9234 64.7383H85.6227V63.1797H83.9234V64.7383ZM87.3688 65.4883V60.9883H88.2711V62.4297H89.9703V60.9883H90.8727V65.4883H87.3688ZM88.2711 64.7383H89.9703V63.1797H88.2711V64.7383ZM101.776 65.5703V66.332H92.2719V65.5703H101.776ZM93.0219 70.1758C94.9086 69.8945 96.5551 68.8633 96.5609 67.4688V67.1289H97.4984V67.4688C97.4926 68.8633 99.1449 69.8945 101.037 70.1758L100.686 70.8906C99.1039 70.627 97.6508 69.8887 97.0297 68.752C96.4027 69.8887 94.9555 70.627 93.3734 70.8906L93.0219 70.1758ZM93.4789 64.4922V60.918H100.592V61.6797H94.393V63.7422H100.698V64.4922H93.4789ZM110.488 60.4961V63.0273H112.07V63.7891H110.488V66.2617H109.573V60.4961H110.488ZM102.366 62.2188V61.4805H105.015V60.4258H105.929V61.4805H108.577V62.2188H102.366ZM102.964 64.3984C102.958 63.3438 103.954 62.6934 105.472 62.6875C106.984 62.6934 107.968 63.3438 107.98 64.3984C107.968 65.459 106.984 66.1035 105.472 66.1094C103.954 66.1035 102.958 65.459 102.964 64.3984ZM103.843 67.4922V66.8008H110.488V69.1094H104.769V70.1289H110.874V70.832H103.866V68.4297H109.573V67.4922H103.843ZM103.843 64.3984C103.837 65.0254 104.482 65.418 105.472 65.418C106.456 65.418 107.101 65.0254 107.113 64.3984C107.101 63.7773 106.456 63.373 105.472 63.3672C104.482 63.373 103.837 63.7773 103.843 64.3984ZM117.641 61.5039C117.646 62.9746 119.557 64.2402 121.438 64.5039L121.062 65.2539C119.445 64.9844 117.84 64.0879 117.172 62.8105C116.504 64.0996 114.904 64.9844 113.281 65.2539L112.906 64.5039C114.787 64.2402 116.691 62.998 116.691 61.5039V60.9062H117.641V61.5039ZM112.414 67.1758V66.4023H121.906V67.1758H117.594V70.9492H116.691V67.1758H112.414ZM130.548 60.5312V64.7734H132.235V65.5469H130.548V70.9492H129.634V60.5312H130.548ZM122.555 68.2422C125.245 66.9062 126.71 64.8965 126.921 62.4297H123.036V61.6562H127.852C127.846 64.6035 126.464 67.293 123.071 68.9688L122.555 68.2422ZM137.342 66.6484V67.9492H139.241V66.6484H140.096V70.8086H136.475V66.6484H137.342ZM135.432 63.3906C135.426 61.9668 136.551 61 138.139 61C139.539 61 140.6 61.791 140.799 62.9922H142.979V60.5312H143.905V66.0508H142.979V63.7539H140.805C140.623 64.9844 139.551 65.793 138.139 65.793C136.551 65.793 135.426 64.8203 135.432 63.3906ZM136.311 63.3906C136.311 64.3457 137.067 65.0254 138.139 65.0312C139.188 65.0254 139.944 64.3457 139.944 63.3906C139.944 62.4414 139.188 61.7734 138.139 61.7734C137.067 61.7734 136.311 62.4414 136.311 63.3906ZM137.342 70.082H139.241V68.6523H137.342V70.082ZM140.237 70.1875C141.491 69.666 142.153 68.5234 142.159 67.4688V66.5781H143.073V67.4688C143.061 68.5645 143.723 69.7188 144.995 70.1875L144.514 70.8906C143.553 70.5098 142.926 69.7715 142.604 68.9102C142.276 69.7598 141.637 70.498 140.717 70.8906L140.237 70.1875ZM153.402 60.5312V64.6562H155.148V65.4297H153.402V70.9727H152.488V60.5312H153.402ZM145.796 68.3594V61.5508H150.659V62.3125H146.71V67.5859C148.597 67.5801 149.927 67.498 151.48 67.2109L151.597 68.0078C149.962 68.3008 148.597 68.3594 146.616 68.3594H145.796ZM156.512 70.0703C156.102 70.0645 155.75 69.7246 155.762 69.3086C155.75 68.8984 156.102 68.5586 156.512 68.5586C156.928 68.5586 157.268 68.8984 157.262 69.3086C157.268 69.7246 156.928 70.0645 156.512 70.0703ZM169.435 60.5312V70.9727H168.509V60.5312H169.435ZM161.232 64.9727C161.238 62.7578 162.339 61.3457 163.892 61.3398C165.439 61.3457 166.558 62.7578 166.552 64.9727C166.558 67.1934 165.439 68.5996 163.892 68.5938C162.339 68.5996 161.238 67.1934 161.232 64.9727ZM162.123 64.9727C162.123 66.666 162.849 67.7793 163.892 67.7734C164.941 67.7793 165.662 66.666 165.662 64.9727C165.662 63.2793 164.941 62.166 163.892 62.1602C162.849 62.166 162.123 63.2793 162.123 64.9727ZM175.979 61.2695V64.3164H172.276V65.9922C174.245 65.998 175.44 65.9395 176.846 65.6992L176.928 66.4727C175.452 66.707 174.215 66.7598 172.147 66.7539H171.35V63.5664H175.065V62.0195H171.327V61.2695H175.979ZM172.791 70.7266V67.6094H173.705V69.9531H179.87V70.7266H172.791ZM176.647 64.0586V63.2617H178.627V60.543H179.553V68.1953H178.627V64.0586H176.647ZM193.449 64.6914V65.4648H191.762V70.9492H190.848V60.5312H191.762V64.6914H193.449ZM184.133 68.3008V61.5625H185.047V67.5273C186.57 67.5273 188.123 67.4102 189.84 67.0469L189.957 67.832C188.158 68.1953 186.541 68.3008 184.965 68.3008H184.133ZM202.173 63.0391V63.8008H195.059V60.707H195.962V63.0391H202.173ZM193.759 65.4648V64.7148H203.298V65.4648H198.95V66.5781H202.067V68.957H195.903V70.0938H202.442V70.832H194.977V68.2891H201.165V67.293H194.954V66.5781H198.059V65.4648H193.759ZM216.045 64.8906V65.6406H211.745V66.6953H214.827V69.0625H208.639V70.1055H215.143V70.832H207.725V68.3828H213.924V67.3984H207.702V66.6953H210.842V65.6406H206.553V64.8906H216.045ZM207.069 63.6719C208.891 63.5078 210.625 62.7168 210.772 61.6328H207.42V60.9062H215.202V61.6328H211.832C211.967 62.7109 213.707 63.5078 215.541 63.6719L215.237 64.375C213.532 64.1992 211.926 63.5371 211.299 62.4824C210.678 63.5371 209.079 64.1992 207.373 64.375L207.069 63.6719ZM222.125 61.3398C223.66 61.3457 224.75 62.7578 224.762 64.9727C224.75 67.1934 223.66 68.5996 222.125 68.5938C220.578 68.5996 219.494 67.1934 219.5 64.9727C219.494 62.7578 220.578 61.3457 222.125 61.3398ZM220.367 64.9727C220.373 66.666 221.094 67.7793 222.125 67.7734C223.168 67.7793 223.871 66.666 223.871 64.9727C223.871 63.2793 223.168 62.166 222.125 62.1602C221.094 62.166 220.373 63.2793 220.367 64.9727ZM226.484 70.9492V60.5312H227.398V64.6914H229.145V65.4883H227.398V70.9492H226.484ZM237.833 63.6953V64.4336H230.696V60.918H231.61V63.6953H237.833ZM229.395 66.6016V65.8516H238.934V66.6016H229.395ZM230.637 70.6914V67.668H231.552V69.9297H237.891V70.6914H230.637ZM247.428 61.5859V68.3008H242.623V61.5859H247.428ZM243.514 67.5508H246.514V62.3242H243.514V67.5508ZM249.338 70.9492V60.5312H250.252V64.6914H251.998V65.4883H250.252V70.9492H249.338ZM257.007 60.7656C259.275 60.7656 260.681 61.498 260.687 62.7461C260.681 63.9766 259.275 64.6973 257.007 64.6914C254.739 64.6973 253.316 63.9766 253.316 62.7461C253.316 61.498 254.739 60.7656 257.007 60.7656ZM252.261 66.3555V65.5938H261.753V66.3555H252.261ZM253.421 70.8086V67.3867H260.593V70.8086H253.421ZM254.265 62.7461C254.259 63.502 255.32 63.959 257.007 63.9648C258.677 63.959 259.743 63.502 259.749 62.7461C259.743 61.9668 258.677 61.5039 257.007 61.5039C255.32 61.5039 254.259 61.9668 254.265 62.7461ZM254.335 70.0586H259.691V68.125H254.335V70.0586ZM267.078 60.7188C269.393 60.7188 270.752 61.3574 270.758 62.5117C270.752 63.6953 269.393 64.334 267.078 64.3398C264.752 64.334 263.387 63.6953 263.387 62.5117C263.387 61.3574 264.752 60.7188 267.078 60.7188ZM262.332 65.793V65.043H271.824V65.793H262.332ZM263.48 67.3984V66.6953H270.605V69.0273H264.418V70.1055H270.922V70.832H263.504V68.3477H269.703V67.3984H263.48ZM264.348 62.5117C264.336 63.2383 265.35 63.6367 267.078 63.6367C268.807 63.6367 269.814 63.2383 269.82 62.5117C269.814 61.8262 268.807 61.416 267.078 61.4102C265.35 61.416 264.336 61.8262 264.348 62.5117ZM283.177 60.5312V64.7734H284.865V65.5469H283.177V70.9492H282.263V60.5312H283.177ZM275.185 68.2422C277.875 66.9062 279.339 64.8965 279.55 62.4297H275.666V61.6562H280.482C280.476 64.6035 279.093 67.293 275.701 68.9688L275.185 68.2422ZM288.936 62.7695C288.942 64.1758 290.049 65.4414 291.608 65.9336L291.139 66.6719C289.926 66.2559 288.965 65.4004 288.491 64.3047C288.039 65.4883 287.061 66.4258 285.819 66.8828L285.338 66.1445C286.903 65.5996 288.004 64.2461 288.01 62.7695V62.1602H285.573V61.4102H291.338V62.1602H288.936V62.7695ZM287.061 70.7266V67.457H287.975V69.9531H294.116V70.7266H287.061ZM292.873 68.1836V60.543H293.788V68.1836H292.873ZM301.461 63.332C301.461 65.166 302.674 67.0586 304.156 67.7852L303.594 68.5234C302.445 67.9258 301.484 66.6895 301.021 65.2422C300.559 66.7773 299.574 68.0957 298.402 68.7227L297.816 67.9844C299.34 67.2344 300.547 65.2363 300.559 63.332V61.4336H301.461V63.332ZM305.117 70.9492V60.5312H306.031V64.7617H307.777V65.5586H306.031V70.9492H305.117ZM309.141 70.0703C308.731 70.0645 308.38 69.7246 308.391 69.3086C308.38 68.8984 308.731 68.5586 309.141 68.5586C309.557 68.5586 309.897 68.8984 309.891 69.3086C309.897 69.7246 309.557 70.0645 309.141 70.0703ZM311.888 70.0703C311.478 70.0645 311.127 69.7246 311.138 69.3086C311.127 68.8984 311.478 68.5586 311.888 68.5586C312.304 68.5586 312.644 68.8984 312.638 69.3086C312.644 69.7246 312.304 70.0645 311.888 70.0703ZM314.635 70.0703C314.225 70.0645 313.873 69.7246 313.885 69.3086C313.873 68.8984 314.225 68.5586 314.635 68.5586C315.051 68.5586 315.391 68.8984 315.385 69.3086C315.391 69.7246 315.051 70.0645 314.635 70.0703Z" fill="#4B4B4B"/>
<path d="M29.7969 83.5156V92H28.7305V84.6172H28.6836L26.6211 85.9883V84.9219L28.7305 83.5156H29.7969ZM31.7586 92L31.7469 91.2266L34.6414 88.1797C35.6434 87.1133 36.1238 86.5391 36.1297 85.7539C36.1238 84.8809 35.3973 84.3184 34.4422 84.3125C33.4285 84.3184 32.7957 84.957 32.7898 85.9062H31.7937C31.782 84.4062 32.9422 83.3984 34.4773 83.3984C36.0184 83.3984 37.1082 84.4355 37.1141 85.7539C37.1082 86.7031 36.6687 87.4414 35.1687 88.9883L33.2234 90.9922V91.0625H37.2664V92H31.7586ZM47.6539 88.0508V88.8008H43.4117V90.8398H42.4977V88.8008H38.1148V88.0508H47.6539ZM39.3336 92.7266V89.8789H40.2477V91.9531H46.5875V92.7266H39.3336ZM39.3922 87.0312V82.8711H40.3062V84.207H45.4625V82.8711H46.3766V87.0312H39.3922ZM40.3062 86.2812H45.4625V84.9102H40.3062V86.2812ZM59.5461 82.543V90.1836H58.6203V86.1875H56.4758V85.4258H58.6203V82.543H59.5461ZM50.9562 88.0977C52.4914 87.5586 53.6047 86.1816 53.6047 84.6875V84.1484H51.2492V83.3867H56.8625V84.1484H54.5305V84.6875C54.5305 86.0352 55.5734 87.3418 57.0969 87.8633L56.6164 88.6016C55.4445 88.1738 54.5363 87.3008 54.0852 86.2227C53.634 87.4297 52.673 88.3848 51.4367 88.8477L50.9562 88.0977ZM52.8547 92.7266V89.4922H53.7805V91.9531H59.8391V92.7266H52.8547ZM65.5438 82.3203V93.1953H64.6766V82.3203H65.5438ZM73.393 84.4531C73.393 85.8066 74.4359 87.1016 75.9594 87.6289L75.4789 88.3555C74.307 87.9336 73.3988 87.0605 72.9535 85.9883C72.5023 87.1836 71.5355 88.1445 70.2992 88.6016L69.8187 87.875C71.3539 87.3242 72.4672 85.9355 72.4672 84.4648V84.0078H70.1117V83.2578H75.725V84.0078H73.393V84.4531ZM71.4008 90.0898V89.3281H78.4086V92.9492H77.4828V90.0898H71.4008ZM75.3969 86.0352V85.2617H77.4828V82.5312H78.4086V88.7773H77.4828V86.0352H75.3969ZM83.5344 83.8672C83.5227 85.3027 84.6477 86.6035 86.1945 87.1133L85.7492 87.8281C84.5246 87.4062 83.552 86.5391 83.0773 85.4258C82.6086 86.627 81.6242 87.582 80.382 88.0273L79.9133 87.2891C81.4836 86.7441 82.5969 85.373 82.5969 83.8672V82.8828H83.5344V83.8672ZM81.6945 92.8086V88.6484H82.6086V89.9141H87.5305V88.6484H88.4445V92.8086H81.6945ZM82.6086 92.0586H87.5305V90.6523H82.6086V92.0586ZM87.5305 88.1211V82.5312H88.4445V88.1211H87.5305ZM93.4414 85.7305C93.4297 87.4004 94.6367 89.2402 96.1484 89.9609L95.6211 90.6875C94.4492 90.1133 93.459 88.8828 92.9902 87.4707C92.5098 89 91.4668 90.3477 90.3008 90.9453L89.7383 90.2188C91.2383 89.4863 92.5273 87.5059 92.5391 85.7305V84.3711H90.1133V83.6094H95.7852V84.3711H93.4414V85.7305ZM97.0625 92.9492V82.5312H97.9766V86.75H99.7227V87.5352H97.9766V92.9492H97.0625ZM108.891 82.5312V92.9492H108.012V87.4883H106.477V92.4102H105.634V82.7656H106.477V86.7266H108.012V82.5312H108.891ZM100.372 90.3711V83.8086H104.274V84.5703H101.286V89.5859C102.721 89.5801 103.712 89.5273 104.872 89.293L104.954 90.0664C103.7 90.3242 102.639 90.3652 101.04 90.3711H100.372ZM116.291 83.6562V84.4062H110.08V83.6562H112.728V82.4844H113.642V83.6562H116.291ZM110.677 86.832C110.671 85.6836 111.679 84.957 113.185 84.9453C114.679 84.957 115.681 85.6836 115.693 86.832C115.681 87.9629 114.679 88.7012 113.185 88.707C111.679 88.7012 110.671 87.9629 110.677 86.832ZM111.38 90.3711V89.6211H118.201V92.9492H117.287V90.3711H111.38ZM111.556 86.832C111.55 87.5234 112.201 87.9746 113.185 87.9688C114.158 87.9746 114.814 87.5234 114.826 86.832C114.814 86.123 114.158 85.666 113.185 85.6602C112.201 85.666 111.55 86.123 111.556 86.832ZM117.287 89.0469V82.5312H118.201V85.4258H119.771V86.1992H118.201V89.0469H117.287ZM128.495 83.5859V84.7461C128.489 86.082 128.489 87.4238 128.12 89.3633L127.217 89.2578C127.586 87.418 127.586 86.0469 127.592 84.7461V84.3477H121.123V83.5859H128.495ZM120.127 91.4727V90.7109H122.483V87.2773H123.397V90.7109H125.084V87.2773H125.987V90.7109H129.62V91.4727H120.127ZM137.656 89.75C139.941 89.7441 141.23 90.3008 141.242 91.3555C141.23 92.3867 139.941 92.9258 137.656 92.9258C135.348 92.9258 134.053 92.3867 134.059 91.3555C134.053 90.3008 135.348 89.7441 137.656 89.75ZM132.91 89.0938V88.3555H137.199V87.541C135.324 87.4707 134.27 86.9668 134.27 86.0703C134.27 85.0801 135.494 84.5762 137.656 84.5703C139.812 84.5762 141.031 85.0801 141.031 86.0703C141.031 86.9668 139.982 87.4707 138.113 87.541V88.3555H142.402V89.0938H132.91ZM133.402 84.1484V83.4102H137.199V82.3906H138.113V83.4102H141.852V84.1484H133.402ZM134.996 91.3555C135.002 91.9238 135.963 92.2402 137.656 92.2344C139.344 92.2402 140.305 91.9238 140.305 91.3555C140.305 90.7637 139.344 90.4414 137.656 90.4414C135.963 90.4414 135.002 90.7637 134.996 91.3555ZM135.254 86.0703C135.248 86.5859 136.127 86.8848 137.656 86.8906C139.186 86.8848 140.053 86.5859 140.059 86.0703C140.053 85.5195 139.186 85.2207 137.656 85.2266C136.127 85.2207 135.248 85.5195 135.254 86.0703ZM147.786 92.3867C145.237 92.3809 143.169 90.3066 143.169 87.7578C143.169 85.209 145.237 83.1348 147.786 83.1289C150.341 83.1348 152.415 85.209 152.415 87.7578C152.415 90.3066 150.341 92.3809 147.786 92.3867ZM144.059 87.7578C144.059 89.8145 145.741 91.4844 147.786 91.4844C149.843 91.4844 151.518 89.8145 151.524 87.7578C151.518 85.7012 149.843 84.0254 147.786 84.0312C145.741 84.0254 144.059 85.7012 144.059 87.7578ZM162.638 87.6875V88.4258H153.134V87.6875H157.435V86.4688H154.341V83.0234H161.455V83.7617H155.244V85.7188H161.525V86.4688H158.326V87.6875H162.638ZM154.283 91.0625C154.277 89.873 155.63 89.1934 157.88 89.1875C160.113 89.1934 161.455 89.873 161.466 91.0625C161.455 92.2637 160.113 92.9375 157.88 92.9492C155.63 92.9375 154.277 92.2637 154.283 91.0625ZM155.22 91.0625C155.209 91.7949 156.211 92.2168 157.88 92.2109C159.533 92.2168 160.535 91.7949 160.541 91.0625C160.535 90.3418 159.533 89.9141 157.88 89.9141C156.211 89.9141 155.209 90.3418 155.22 91.0625Z" fill="#939393"/>
<defs>
<filter id="filter0_d_102_4830" x="0" y="0" width="347" height="119" filterUnits="userSpaceOnUse" color-interpolation-filters="sRGB">
<feFlood flood-opacity="0" result="BackgroundImageFix"/>
<feColorMatrix in="SourceAlpha" type="matrix" values="0 0 0 0 0 0 0 0 0 0 0 0 0 0 0 0 0 0 127 0" result="hardAlpha"/>
<feOffset dy="2"/>
<feGaussianBlur stdDeviation="3"/>
<feComposite in2="hardAlpha" operator="out"/>
<feColorMatrix type="matrix" values="0 0 0 0 0 0 0 0 0 0 0 0 0 0 0 0 0 0 0.1 0"/>
<feBlend mode="normal" in2="BackgroundImageFix" result="effect1_dropShadow_102_4830"/>
<feBlend mode="normal" in="SourceGraphic" in2="effect1_dropShadow_102_4830" result="shape"/>
</filter>
</defs>
</svg>
