<svg width="347" height="119" viewBox="0 0 347 119" fill="none" xmlns="http://www.w3.org/2000/svg">
<g filter="url(#filter0_d_102_4813)">
<rect x="6" y="4" width="335" height="107" rx="14" fill="white"/>
</g>
<path d="M36.7598 21.8711V31.1816H35.2422V27.2852H33.4238V26.0547H35.2422V21.8711H36.7598ZM26.4375 24.4551V23.2383H29.3086V21.8574H30.8125V23.2383H33.6836V24.4551H26.4375ZM27.1348 27.3262C27.1279 25.9316 28.3516 24.9609 30.0605 24.9609C31.7559 24.9609 32.9932 25.9316 33 27.3262C32.9932 28.707 31.7559 29.6641 30.0605 29.6641C28.3516 29.6641 27.1279 28.707 27.1348 27.3262ZM28.584 27.3262C28.584 28.0576 29.1924 28.4951 30.0605 28.4883C30.9219 28.4951 31.5371 28.0576 31.5371 27.3262C31.5371 26.5947 30.9219 26.1367 30.0605 26.1367C29.1855 26.1367 28.584 26.5947 28.584 27.3262ZM28.6113 33.9707V30.375H30.1562V32.7402H37.0332V33.9707H28.6113ZM45.4414 22.8145V23.9766H38.5371V22.8145H41.2988V21.7207H42.8164V22.8145H45.4414ZM39.1797 26.5059C39.1729 25.2275 40.3486 24.4004 42.0371 24.4004C43.7529 24.4004 44.9287 25.2275 44.9355 26.5059C44.9287 27.7705 43.7529 28.5908 42.0371 28.5977C40.3486 28.5908 39.1729 27.7705 39.1797 26.5059ZM40.6016 26.5059C40.5947 27.1348 41.1895 27.5176 42.0371 27.5176C42.8916 27.5176 43.4932 27.1348 43.5 26.5059C43.4932 25.877 42.8916 25.501 42.0371 25.5078C41.1895 25.501 40.5947 25.877 40.6016 26.5059ZM40.7109 30.3066V29.1992H48.8594V32.125H42.2422V32.9727H49.1875V34.1074H40.7246V31.0859H47.3418V30.3066H40.7109ZM45.5098 27.7637V26.5879H47.3418V25.5488H45.5234V24.373H47.3418V21.8574H48.8594V28.6797H47.3418V27.7637H45.5098ZM65.1973 27.6133V28.8438H53.9316V27.6133H65.1973ZM54.4785 25.8633C56.7686 25.6377 58.2588 24.7217 58.4912 23.6895H54.957V22.4453H64.1855V23.6895H60.6172C60.8428 24.708 62.3193 25.6377 64.6641 25.8633L64.1309 27.0664C61.8818 26.834 60.2207 25.9385 59.5508 24.6875C58.8809 25.9385 57.2402 26.834 54.998 27.0664L54.4785 25.8633ZM55.2441 31.9336C55.2441 30.498 56.8643 29.6641 59.5508 29.6641C62.2168 29.6641 63.8232 30.498 63.8301 31.9336C63.8232 33.3896 62.2168 34.2031 59.5508 34.2031C56.8643 34.2031 55.2441 33.3896 55.2441 31.9336ZM56.7891 31.9336C56.7822 32.6514 57.7529 33.0068 59.5508 33.0137C61.3213 33.0068 62.2988 32.6514 62.3125 31.9336C62.2988 31.2158 61.3213 30.8535 59.5508 30.8535C57.7529 30.8535 56.7822 31.2158 56.7891 31.9336ZM70.5977 24.8242C70.5908 27.1211 71.6914 29.377 73.6602 30.2383L72.7441 31.4551C71.3496 30.7715 70.3652 29.459 69.8389 27.8389C69.2988 29.5479 68.2871 30.9697 66.8652 31.6875L65.9082 30.457C67.9248 29.5137 69.0459 27.1348 69.0527 24.8242V22.8555H70.5977V24.8242ZM72.293 27.0801V25.8496H74.8906V21.8574H76.3945V34.2305H74.8906V27.0801H72.293ZM91.7617 21.8574V28.2285H90.2441V21.8574H91.7617ZM81.6582 26.7109C82.1025 26.7109 82.5742 26.7041 83.0664 26.6973V23.8262H81.9863V22.6504H88.6992V23.8262H87.5918V26.5127C88.1523 26.4717 88.6992 26.417 89.2188 26.3555L89.2871 27.4492C86.8262 27.8389 83.9824 27.9141 81.8223 27.9141L81.6582 26.7109ZM83.4766 29.9375V28.748H91.7617V31.9336H85.0078V32.9043H92.1582V34.1074H83.5039V30.8262H90.2578V29.9375H83.4766ZM84.5293 26.6631C85.0625 26.6494 85.6025 26.6289 86.1426 26.6016V23.8262H84.5293V26.6631ZM104.846 31.4688V32.7129H93.5527V31.4688H96.1641V28.3447C95.1797 27.7773 94.585 26.8887 94.5918 25.7949C94.585 23.8262 96.5127 22.5273 99.1719 22.5273C101.845 22.5273 103.786 23.8262 103.779 25.7949C103.786 26.875 103.205 27.7432 102.248 28.3105V31.4688H104.846ZM96.082 25.7949C96.0752 27.0596 97.3262 27.8662 99.1719 27.8594C101.011 27.8662 102.289 27.0596 102.289 25.7949C102.289 24.5098 101.011 23.7236 99.1719 23.7305C97.3262 23.7236 96.0752 24.5098 96.082 25.7949ZM97.668 31.4688H100.703V28.8916C100.231 28.9941 99.7188 29.0488 99.1719 29.0488C98.6387 29.0488 98.1328 28.9941 97.668 28.8984V31.4688ZM115.332 21.8574V26.7793H117.232V28.0371H115.332V34.2168H113.828V21.8574H115.332ZM105.584 24.9746V23.7578H108.51V22.0352H110.027V23.7578H112.871V24.9746H105.584ZM106.158 28.6934C106.145 26.9844 107.471 25.7744 109.275 25.7812C111.053 25.7744 112.372 26.9844 112.379 28.6934C112.372 30.3955 111.053 31.5918 109.275 31.5918C107.471 31.5918 106.145 30.3955 106.158 28.6934ZM107.607 28.6934C107.601 29.6982 108.305 30.3408 109.275 30.334C110.226 30.3408 110.916 29.6982 110.93 28.6934C110.916 27.6885 110.226 27.0254 109.275 27.0254C108.305 27.0254 107.601 27.6885 107.607 28.6934ZM128.047 21.8711V30.8945H126.516V21.8711H128.047ZM117.766 27.9824C119.769 27.2783 120.794 25.5352 120.787 23.7578V22.5547H122.359V23.7578C122.353 25.4805 123.364 27.1074 125.326 27.7637L124.547 28.9668C123.139 28.4746 122.134 27.4902 121.587 26.2256C121.04 27.5791 120.015 28.6592 118.559 29.1855L117.766 27.9824ZM119.871 33.9707V30.0332H121.402V32.7402H128.389V33.9707H119.871ZM144.453 28.2559V29.4727H139.682V31.6055H138.178V29.4727H133.16V28.2559H144.453ZM134.527 33.9707V30.5664H136.031V32.7402H143.209V33.9707H134.527ZM134.637 27.2852V22.2539H136.141V23.6484H141.473V22.2539H142.977V27.2852H134.637ZM136.141 26.082H141.473V24.7832H136.141V26.082ZM159.26 21.8574V34.2168H157.811V21.8574H159.26ZM148.473 30.5254C151.029 29.0146 152.205 27.0801 152.438 24.5918H149.129V23.3613H153.941C153.941 23.9834 153.9 24.5918 153.812 25.1797H155.254V22.1582H156.703V33.6289H155.254V29.5H153.326V28.2559H155.254V26.4238H153.552C152.964 28.4746 151.679 30.2383 149.361 31.6055L148.473 30.5254ZM170.99 21.8711V30.8945H169.459V21.8711H170.99ZM160.709 27.9824C162.712 27.2783 163.737 25.5352 163.73 23.7578V22.5547H165.303V23.7578C165.296 25.4805 166.308 27.1074 168.27 27.7637L167.49 28.9668C166.082 28.4746 165.077 27.4902 164.53 26.2256C163.983 27.5791 162.958 28.6592 161.502 29.1855L160.709 27.9824ZM162.814 33.9707V30.0332H164.346V32.7402H171.332V33.9707H162.814ZM182.475 21.8574V26.6836H184.307V27.9551H182.475V34.1895H180.957V21.8574H182.475ZM172.727 30.8125C175.734 29.3086 177.361 27.2168 177.662 24.4004H173.396V23.1426H179.207C179.2 26.7725 177.696 29.9648 173.588 31.9883L172.727 30.8125ZM196.188 31.4688V32.7129H184.895V31.4688H187.506V28.3447C186.521 27.7773 185.927 26.8887 185.934 25.7949C185.927 23.8262 187.854 22.5273 190.514 22.5273C193.187 22.5273 195.128 23.8262 195.121 25.7949C195.128 26.875 194.547 27.7432 193.59 28.3105V31.4688H196.188ZM187.424 25.7949C187.417 27.0596 188.668 27.8662 190.514 27.8594C192.353 27.8662 193.631 27.0596 193.631 25.7949C193.631 24.5098 192.353 23.7236 190.514 23.7305C188.668 23.7236 187.417 24.5098 187.424 25.7949ZM189.01 31.4688H192.045V28.8916C191.573 28.9941 191.061 29.0488 190.514 29.0488C189.98 29.0488 189.475 28.9941 189.01 28.8984V31.4688ZM199.086 29.9648C199.1 28.2217 199.592 27.6885 200.453 27.1621C201.034 26.7861 201.485 26.3281 201.479 25.6445C201.485 24.8789 200.884 24.3867 200.139 24.3867C199.462 24.3867 198.806 24.8242 198.758 25.7402H197.049C197.097 23.9014 198.464 22.9648 200.152 22.9648C201.998 22.9648 203.263 23.9902 203.27 25.6172C203.263 26.7314 202.709 27.4561 201.82 27.9824C201.027 28.4678 200.699 28.9395 200.686 29.9648V30.0879H199.086V29.9648ZM198.867 32.043C198.86 31.4688 199.346 30.9971 199.934 30.9902C200.501 30.9971 200.986 31.4688 200.986 32.043C200.986 32.6309 200.501 33.1094 199.934 33.1094C199.346 33.1094 198.86 32.6309 198.867 32.043Z" fill="black"/>
<path d="M34.5664 46.5195V49.2148H36.1367V49.9883H34.5664V52.4961H33.6523V46.5195H34.5664ZM26.4453 51.7344C29.041 51.0605 30.5586 49.6895 30.7285 47.9609H26.9023V47.1992H31.7305C31.7246 49.8359 29.8965 51.6758 26.7969 52.4844L26.4453 51.7344ZM27.4883 56.1992C29.2285 55.9297 30.7812 54.9336 30.8398 53.75H27.8867V53.0117H34.7539V53.75H31.8008C31.8535 54.9102 33.4238 55.9297 35.1523 56.2109L34.8008 56.9258C33.2773 56.668 31.9062 55.8887 31.3203 54.8223C30.7402 55.8945 29.3633 56.6621 27.8516 56.9258L27.4883 56.1992ZM44.8484 47.5859V48.6289C44.8367 49.9062 44.8367 51.3359 44.4617 53.4336L43.5242 53.3281C43.9168 51.3359 43.9168 49.877 43.9227 48.6289V48.3477H37.5008V47.5859H44.8484ZM36.493 55.4727V54.7109H40.2195V50.9844H41.1219V54.7109H45.9852V55.4727H36.493ZM52.8031 53.5273C52.7973 54.4473 53.2953 55.4258 54.2855 55.9883C55.2816 55.373 55.809 54.3301 55.8031 53.5273V52.9531H56.7055V53.5273C56.6996 54.5996 57.4906 55.666 58.8266 56.1289L58.3695 56.8086C57.3266 56.4395 56.6 55.7129 56.2367 54.8398C55.9145 55.6836 55.2758 56.4863 54.3148 56.8906C53.3012 56.5039 52.6566 55.7422 52.3461 54.8691C51.9711 55.707 51.2563 56.4336 50.2602 56.8086L49.7914 56.1289C51.1098 55.6367 51.9008 54.5234 51.9125 53.5273V52.9531H52.8031V53.5273ZM49.5219 49.5898C49.516 48.1367 50.6703 47.1465 52.2523 47.1523C53.8344 47.1465 54.977 48.1367 54.9828 49.5898C54.977 51.0195 53.8344 52.0039 52.2523 52.0039C50.6703 52.0039 49.516 51.0195 49.5219 49.5898ZM50.4242 49.5898C50.4125 50.5566 51.1801 51.2363 52.2523 51.2422C53.3129 51.2363 54.0805 50.5566 54.0805 49.5898C54.0805 48.6172 53.3129 47.9258 52.2523 47.9375C51.1801 47.9258 50.4125 48.6172 50.4242 49.5898ZM56.9633 52.4961V46.543H57.8773V52.4961H56.9633ZM67.7727 49.6953V50.4336H60.6359V46.918H61.55V49.6953H67.7727ZM59.3352 52.6016V51.8516H68.8742V52.6016H59.3352ZM60.5773 56.6914V53.668H61.4914V55.9297H67.8312V56.6914H60.5773ZM80.7664 46.543V54.418H79.8406V50.9023H78.0242V50.1289H79.8406V46.543H80.7664ZM72.1414 48.5703V47.8203H74.7313V46.5312H75.6336V47.8203H78.2234V48.5703H72.1414ZM72.7625 51.0898C72.7625 49.9355 73.7645 49.1445 75.1766 49.1445C76.5828 49.1445 77.5906 49.9355 77.6023 51.0898C77.5906 52.2383 76.5828 53.0176 75.1766 53.0117C73.7645 53.0176 72.7625 52.2383 72.7625 51.0898ZM73.6414 51.0898C73.6414 51.8047 74.2742 52.2969 75.1766 52.2852C76.073 52.2969 76.7117 51.8047 76.7117 51.0898C76.7117 50.375 76.073 49.8652 75.1766 49.8711C74.2742 49.8652 73.6414 50.375 73.6414 51.0898ZM74.0281 56.7266V53.7148H74.9539V55.9531H81.0008V56.7266H74.0281ZM88.107 47.457V48.1836H82.2125V47.457H84.7438V46.4023H85.6578V47.457H88.107ZM82.8336 50.4688C82.8219 49.3789 83.7828 48.6934 85.1891 48.6875C86.6012 48.6934 87.5621 49.3789 87.568 50.4688C87.5621 51.541 86.6012 52.2266 85.1891 52.2266C83.7828 52.2266 82.8219 51.541 82.8336 50.4688ZM83.6891 50.4688C83.6832 51.1191 84.2984 51.5586 85.1891 51.5586C86.0797 51.5586 86.6949 51.1191 86.7008 50.4688C86.6949 49.8066 86.0797 49.3789 85.1891 49.3906C84.2984 49.3789 83.6832 49.8066 83.6891 50.4688ZM84.0758 53.5625V52.8711H90.8258V55.1211H85.0133V56.1289H91.1305V56.832H84.0992V54.4531H89.9117V53.5625H84.0758ZM88.0953 51.4297V50.6914H89.9117V49.5781H88.107V48.8516H89.9117V46.5312H90.8258V52.3555H89.9117V51.4297H88.0953ZM104.476 51.4883V52.25H94.9836V51.4883H104.476ZM95.5227 50.1289C97.3391 49.918 99.091 49.0215 99.132 47.832H95.8508V47.0703H103.632V47.832H100.327C100.368 49.0098 102.103 49.918 103.948 50.1289L103.609 50.8672C101.904 50.6504 100.304 49.8828 99.7297 48.7285C99.1555 49.8828 97.5676 50.6504 95.8508 50.8672L95.5227 50.1289ZM96.132 55.0508C96.1262 53.8555 97.4797 53.1641 99.7297 53.1641C101.962 53.1641 103.304 53.8555 103.316 55.0508C103.304 56.2578 101.962 56.9258 99.7297 56.9258C97.4797 56.9258 96.1262 56.2578 96.132 55.0508ZM97.0695 55.0508C97.0578 55.7773 98.0598 56.1934 99.7297 56.1875C101.382 56.1934 102.384 55.7773 102.39 55.0508C102.384 54.3184 101.382 53.9023 99.7297 53.8906C98.0598 53.9023 97.0578 54.3184 97.0695 55.0508ZM108.723 49.332C108.717 51.2188 109.93 53.1172 111.441 53.8086L110.891 54.5586C109.707 53.9492 108.729 52.707 108.266 51.2246C107.803 52.7832 106.824 54.1191 105.641 54.7461L105.043 54.0078C106.572 53.2578 107.779 51.2539 107.785 49.332V47.4336H108.723V49.332ZM110.305 50.8438V50.0938H112.777V46.5312H113.691V56.9727H112.777V50.8438H110.305ZM123.188 46.5312V50.7734H124.876V51.5469H123.188V56.9492H122.274V46.5312H123.188ZM115.196 54.2422C117.886 52.9062 119.35 50.8965 119.561 48.4297H115.677V47.6562H120.493C120.487 50.6035 119.104 53.293 115.712 54.9688L115.196 54.2422ZM136.053 46.5312V48.8867H137.623V49.6602H136.053V51.875H135.139V46.5312H136.053ZM128.354 51.4648V47.2227H133.17V51.4648H128.354ZM129.022 56.668V52.8125H129.912V55.9121C130.516 55.8887 131.319 55.8008 132.057 55.5547L132.198 56.293C131.184 56.627 130.194 56.6738 129.514 56.668H129.022ZM129.256 50.7266H132.28V47.9727H129.256V50.7266ZM131.834 53.6211V52.918H134.026V51.9922H134.928V52.918H137.096V53.6211H131.834ZM132.526 55.4609C132.52 54.5586 133.311 54.002 134.459 53.9961C135.602 54.002 136.405 54.5586 136.416 55.4609C136.405 56.3633 135.602 56.9258 134.459 56.9258C133.311 56.9258 132.52 56.3633 132.526 55.4609ZM133.346 55.4609C133.346 55.959 133.809 56.2812 134.459 56.2695C135.11 56.2812 135.573 55.959 135.573 55.4609C135.573 54.9746 135.11 54.6582 134.459 54.6523C133.809 54.6582 133.346 54.9746 133.346 55.4609ZM140.101 52.7891V54.0078H145.304V52.7891H146.23V56.8086H139.187V52.7891H140.101ZM137.98 52.0508V51.2891H147.472V52.0508H137.98ZM138.519 49.8125C140.376 49.5605 142.257 48.4648 142.257 47.1406V46.6484H143.206V47.1406C143.2 48.4238 145.099 49.5781 146.933 49.8125L146.593 50.5508C144.982 50.3105 143.394 49.4902 142.732 48.3242C142.07 49.4961 140.476 50.3105 138.87 50.5508L138.519 49.8125ZM140.101 56.0703H145.304V54.7344H140.101V56.0703ZM156.641 46.5312V56.9492H155.727V46.5312H156.641ZM148.73 54.2656V47.5625H149.633V53.4688C151.227 53.457 152.867 53.334 154.613 52.9648L154.742 53.75C152.891 54.1367 151.244 54.2656 149.574 54.2656H148.73ZM166.184 46.5312V50.6562H167.93V51.4297H166.184V56.9727H165.27V46.5312H166.184ZM158.579 54.3594V47.5508H163.442V48.3125H159.493V53.5859C161.38 53.5801 162.71 53.498 164.262 53.2109L164.38 54.0078C162.745 54.3008 161.38 54.3594 159.399 54.3594H158.579ZM169.295 56.0703C168.884 56.0645 168.533 55.7246 168.545 55.3086C168.533 54.8984 168.884 54.5586 169.295 54.5586C169.711 54.5586 170.05 54.8984 170.045 55.3086C170.05 55.7246 169.711 56.0645 169.295 56.0703ZM182.241 46.5312V51.9453H181.316V46.5312H182.241ZM173.804 50.8086C174.22 50.8086 174.671 50.8027 175.14 50.7969V47.9844H174.097V47.2461H179.734V47.9844H178.679V50.6562C179.218 50.6152 179.745 50.5625 180.249 50.5039L180.296 51.1836C178.21 51.4941 175.761 51.5762 173.921 51.5703L173.804 50.8086ZM175.421 53.1875V52.4492H182.241V54.9336H176.359V56.082H182.64V56.832H175.456V54.2422H181.327V53.1875H175.421ZM176.03 50.7793C176.605 50.7617 177.196 50.7441 177.788 50.709V47.9844H176.03V50.7793ZM193.238 54.8398V55.6133H183.699V54.8398H186.066V52.0332C185.176 51.5703 184.637 50.8203 184.637 49.8711C184.637 48.2598 186.219 47.1992 188.445 47.1875C190.672 47.1992 192.254 48.2598 192.254 49.8711C192.254 50.8027 191.732 51.541 190.871 52.0039V54.8398H193.238ZM185.527 49.8711C185.521 51.0371 186.734 51.8164 188.445 51.8164C190.139 51.8164 191.363 51.0371 191.363 49.8711C191.363 48.7051 190.139 47.9375 188.445 47.9492C186.734 47.9375 185.521 48.7051 185.527 49.8711ZM186.969 54.8398H189.945V52.3613C189.494 52.4785 188.99 52.543 188.445 52.543C187.912 52.543 187.414 52.4844 186.969 52.3672V54.8398ZM201.915 46.543V49.9766H203.485V50.75H201.915V54.3477H201.001V46.543H201.915ZM193.794 48.5703V47.8203H196.442V46.543H197.356V47.8203H200.005V48.5703H193.794ZM194.391 51.0898C194.386 49.9062 195.393 49.1445 196.899 49.1445C198.387 49.1445 199.395 49.9062 199.407 51.0898C199.395 52.2617 198.387 53.0176 196.899 53.0117C195.393 53.0176 194.386 52.2617 194.391 51.0898ZM195.27 51.0898C195.264 51.8223 195.915 52.2969 196.899 52.2852C197.872 52.2969 198.528 51.8223 198.54 51.0898C198.528 50.3457 197.872 49.8652 196.899 49.8711C195.915 49.8652 195.264 50.3457 195.27 51.0898ZM195.399 56.7266V53.7266H196.302V55.9531H202.395V56.7266H195.399ZM216.08 52.0508V52.8008H211.838V54.8398H210.924V52.8008H206.541V52.0508H216.08ZM207.76 56.7266V53.8789H208.674V55.9531H215.014V56.7266H207.76ZM207.819 51.0312V46.8711H208.733V48.207H213.889V46.8711H214.803V51.0312H207.819ZM208.733 50.2812H213.889V48.9102H208.733V50.2812ZM219.214 47.7969C219.202 49.9824 218.898 52.4434 217.374 54.4648L216.648 54.043C217.948 52.4141 218.335 50.4746 218.411 48.5586H216.859V47.7969H219.214ZM218.991 54.7227C220.427 52.8828 220.679 50.5039 220.72 48.5586H219.542V47.7969H221.523C221.523 48.6465 221.499 49.625 221.37 50.6328H222.753V46.8125H223.632V56.4219H222.753V51.3945H221.247C221.007 52.6953 220.556 54.0137 219.706 55.1562L218.991 54.7227ZM224.698 56.9492V46.5312H225.589V56.9492H224.698ZM237.821 51.418V52.168H234.598V54.8633H238.946V55.6367H229.407V54.8633H233.696V52.168H230.626V47.3867H237.716V48.1367H231.552V51.418H237.821ZM244.224 46.7305C246.492 46.7363 247.898 47.457 247.904 48.6992C247.898 49.918 246.492 50.6387 244.224 50.6328C241.957 50.6387 240.533 49.918 240.533 48.6992C240.533 47.457 241.957 46.7363 244.224 46.7305ZM239.478 52.1914V51.4297H248.97V52.1914H244.67V53.3867H247.81V56.8086H240.638V53.3867H243.767V52.1914H239.478ZM241.482 48.6992C241.476 49.4609 242.537 49.9062 244.224 49.9062C245.894 49.9062 246.961 49.4609 246.966 48.6992C246.961 47.9199 245.894 47.457 244.224 47.457C242.537 47.457 241.476 47.9199 241.482 48.6992ZM241.552 56.0586H246.908V54.125H241.552V56.0586ZM260.675 51.5469V52.3086H253.48V47.5039H260.57V48.2656H254.394V51.5469H260.675ZM252.261 55.5312V54.7578H261.8V55.5312H252.261ZM270.934 46.5312V56.9727H270.02V46.5312H270.934ZM262.918 48.2656V47.5039H267.77V51.207H263.879V53.668C265.607 53.6738 267.148 53.5918 269.012 53.293L269.105 54.0664C267.189 54.3652 265.607 54.4414 263.809 54.4414H262.941V50.457H266.844V48.2656H262.918ZM280.759 47.5859V48.6289C280.747 49.9062 280.747 51.3359 280.372 53.4336L279.434 53.3281C279.827 51.3359 279.827 49.877 279.833 48.6289V48.3477H273.411V47.5859H280.759ZM272.403 55.4727V54.7109H276.13V50.9844H277.032V54.7109H281.895V55.4727H272.403ZM293.788 46.543V52.332H292.873V46.543H293.788ZM285.256 51.3828C286.827 50.8379 287.94 49.4609 287.94 47.9492V46.9297H288.877V47.9492C288.866 49.3965 289.991 50.6855 291.538 51.1953L291.092 51.9219C289.868 51.5059 288.889 50.6328 288.42 49.5137C287.952 50.7148 286.967 51.6641 285.725 52.1094L285.256 51.3828ZM286.756 56.8086V56.0586H288.315V53.7031H286.85V52.9531H293.858V53.7031H292.416V56.0586H293.963V56.8086H286.756ZM289.217 56.0586H291.502V53.7031H289.217V56.0586ZM298.058 47.3398C299.476 47.3457 300.501 48.5645 300.642 50.5156H302.98V46.5312H303.894V56.9727H302.98V51.2773H300.654C300.554 53.3223 299.511 54.5996 298.058 54.5938C296.517 54.5996 295.439 53.1934 295.445 50.9727C295.439 48.7578 296.517 47.3457 298.058 47.3398ZM296.323 50.9727C296.329 52.666 297.032 53.7793 298.058 53.7734C299.077 53.7793 299.792 52.666 299.792 50.9727C299.792 49.2793 299.077 48.166 298.058 48.1602C297.032 48.166 296.329 49.2793 296.323 50.9727ZM314.867 54.8398V55.6133H305.328V54.8398H307.695V52.0332C306.805 51.5703 306.266 50.8203 306.266 49.8711C306.266 48.2598 307.848 47.1992 310.074 47.1875C312.301 47.1992 313.883 48.2598 313.883 49.8711C313.883 50.8027 313.361 51.541 312.5 52.0039V54.8398H314.867ZM307.156 49.8711C307.15 51.0371 308.363 51.8164 310.074 51.8164C311.768 51.8164 312.992 51.0371 312.992 49.8711C312.992 48.7051 311.768 47.9375 310.074 47.9492C308.363 47.9375 307.15 48.7051 307.156 49.8711ZM308.598 54.8398H311.574V52.3613C311.123 52.4785 310.619 52.543 310.074 52.543C309.541 52.543 309.043 52.4844 308.598 52.3672V54.8398ZM316.501 56.0703C316.091 56.0645 315.739 55.7246 315.751 55.3086C315.739 54.8984 316.091 54.5586 316.501 54.5586C316.917 54.5586 317.257 54.8984 317.251 55.3086C317.257 55.7246 316.917 56.0645 316.501 56.0703Z" fill="#4B4B4B"/>
<path d="M45.7266 92.1172C44.0391 92.1172 42.8262 91.2148 42.7734 89.8672H43.8398C43.8984 90.6758 44.7012 91.1797 45.7148 91.1797C46.834 91.1797 47.6426 90.5762 47.6484 89.6914C47.6426 88.7656 46.9043 88.1152 45.5859 88.1094H44.8945V87.1836H45.5859C46.6172 87.1836 47.3379 86.6035 47.332 85.7305C47.3379 84.8809 46.7168 84.3184 45.75 84.3125C44.8418 84.3184 44.0156 84.8164 43.9688 85.6484H42.9492C43.002 84.3008 44.2559 83.3984 45.7617 83.3984C47.3789 83.3984 48.3633 84.459 48.3516 85.6719C48.3633 86.6387 47.8008 87.3418 46.9102 87.5938V87.6523C48.0176 87.8223 48.6855 88.6133 48.6797 89.6914C48.6855 91.0859 47.4199 92.1172 45.7266 92.1172Z" fill="#4B4B4B"/>
<path d="M33.4189 91.1657C36.8063 91.1284 38.5 89.9527 38.5 87.0833C38.5 84.1667 36.75 83 33.25 83C29.75 83 28 84.1667 28 87.0833C28 88.8783 28.6628 90.0105 29.9884 90.6158L29.1667 92.9167L33.4189 91.1657Z" stroke="#FF0A00" stroke-linecap="round" stroke-linejoin="round"/>
<path d="M69.0664 92L72.957 84.5117V84.4531H68.4688V83.5156H74.0469V84.5L70.168 92H69.0664Z" fill="#4B4B4B"/>
<path d="M63.1864 84.8755C64.2712 85.9616 64.2712 87.7225 63.1864 88.8086L59.7075 92.2916C59.3169 92.6827 58.6831 92.6827 58.2925 92.2916L54.8136 88.8086C53.7288 87.7225 53.7288 85.9616 54.8136 84.8755C55.676 84.012 56.717 83.7477 57.7674 84.2608C58.1843 84.4645 58.7309 84.8755 59 85.4124C59.2691 84.8755 59.8157 84.4645 60.2326 84.2608C61.283 83.7477 62.324 84.012 63.1864 84.8755Z" stroke="#FF0A00" stroke-linecap="round" stroke-linejoin="round"/>
<path d="M84.0664 92L87.957 84.5117V84.4531H83.4688V83.5156H89.0469V84.5L85.168 92H84.0664ZM99.2703 88.0508V88.8008H95.0281V90.8398H94.1141V88.8008H89.7312V88.0508H99.2703ZM90.95 92.7266V89.8789H91.8641V91.9531H98.2039V92.7266H90.95ZM91.0086 87.0312V82.8711H91.9227V84.207H97.0789V82.8711H97.993V87.0312H91.0086ZM91.9227 86.2812H97.0789V84.9102H91.9227V86.2812ZM111.163 82.543V90.1836H110.237V86.1875H108.092V85.4258H110.237V82.543H111.163ZM102.573 88.0977C104.108 87.5586 105.221 86.1816 105.221 84.6875V84.1484H102.866V83.3867H108.479V84.1484H106.147V84.6875C106.147 86.0352 107.19 87.3418 108.713 87.8633L108.233 88.6016C107.061 88.1738 106.153 87.3008 105.702 86.2227C105.25 87.4297 104.289 88.3848 103.053 88.8477L102.573 88.0977ZM104.471 92.7266V89.4922H105.397V91.9531H111.455V92.7266H104.471ZM117.16 82.3203V93.1953H116.293V82.3203H117.16ZM125.009 84.4531C125.009 85.8066 126.052 87.1016 127.576 87.6289L127.095 88.3555C125.923 87.9336 125.015 87.0605 124.57 85.9883C124.119 87.1836 123.152 88.1445 121.916 88.6016L121.435 87.875C122.97 87.3242 124.084 85.9355 124.084 84.4648V84.0078H121.728V83.2578H127.341V84.0078H125.009V84.4531ZM123.017 90.0898V89.3281H130.025V92.9492H129.099V90.0898H123.017ZM127.013 86.0352V85.2617H129.099V82.5312H130.025V88.7773H129.099V86.0352H127.013ZM135.151 83.8672C135.139 85.3027 136.264 86.6035 137.811 87.1133L137.366 87.8281C136.141 87.4062 135.168 86.5391 134.694 85.4258C134.225 86.627 133.241 87.582 131.998 88.0273L131.53 87.2891C133.1 86.7441 134.213 85.373 134.213 83.8672V82.8828H135.151V83.8672ZM133.311 92.8086V88.6484H134.225V89.9141H139.147V88.6484H140.061V92.8086H133.311ZM134.225 92.0586H139.147V90.6523H134.225V92.0586ZM139.147 88.1211V82.5312H140.061V88.1211H139.147ZM145.058 85.7305C145.046 87.4004 146.253 89.2402 147.765 89.9609L147.237 90.6875C146.066 90.1133 145.075 88.8828 144.607 87.4707C144.126 89 143.083 90.3477 141.917 90.9453L141.355 90.2188C142.855 89.4863 144.144 87.5059 144.155 85.7305V84.3711H141.73V83.6094H147.402V84.3711H145.058V85.7305ZM148.679 92.9492V82.5312H149.593V86.75H151.339V87.5352H149.593V92.9492H148.679ZM160.508 82.5312V92.9492H159.629V87.4883H158.094V92.4102H157.25V82.7656H158.094V86.7266H159.629V82.5312H160.508ZM151.988 90.3711V83.8086H155.891V84.5703H152.902V89.5859C154.338 89.5801 155.328 89.5273 156.488 89.293L156.57 90.0664C155.316 90.3242 154.256 90.3652 152.656 90.3711H151.988ZM167.907 83.6562V84.4062H161.696V83.6562H164.345V82.4844H165.259V83.6562H167.907ZM162.294 86.832C162.288 85.6836 163.296 84.957 164.802 84.9453C166.296 84.957 167.298 85.6836 167.309 86.832C167.298 87.9629 166.296 88.7012 164.802 88.707C163.296 88.7012 162.288 87.9629 162.294 86.832ZM162.997 90.3711V89.6211H169.817V92.9492H168.903V90.3711H162.997ZM163.173 86.832C163.167 87.5234 163.817 87.9746 164.802 87.9688C165.774 87.9746 166.43 87.5234 166.442 86.832C166.43 86.123 165.774 85.666 164.802 85.6602C163.817 85.666 163.167 86.123 163.173 86.832ZM168.903 89.0469V82.5312H169.817V85.4258H171.387V86.1992H169.817V89.0469H168.903ZM180.111 83.5859V84.7461C180.105 86.082 180.105 87.4238 179.736 89.3633L178.834 89.2578C179.203 87.418 179.203 86.0469 179.209 84.7461V84.3477H172.74V83.5859H180.111ZM171.744 91.4727V90.7109H174.099V87.2773H175.013V90.7109H176.701V87.2773H177.603V90.7109H181.236V91.4727H171.744ZM189.273 89.75C191.558 89.7441 192.847 90.3008 192.859 91.3555C192.847 92.3867 191.558 92.9258 189.273 92.9258C186.964 92.9258 185.669 92.3867 185.675 91.3555C185.669 90.3008 186.964 89.7441 189.273 89.75ZM184.527 89.0938V88.3555H188.816V87.541C186.941 87.4707 185.886 86.9668 185.886 86.0703C185.886 85.0801 187.111 84.5762 189.273 84.5703C191.429 84.5762 192.648 85.0801 192.648 86.0703C192.648 86.9668 191.599 87.4707 189.73 87.541V88.3555H194.019V89.0938H184.527ZM185.019 84.1484V83.4102H188.816V82.3906H189.73V83.4102H193.468V84.1484H185.019ZM186.613 91.3555C186.618 91.9238 187.579 92.2402 189.273 92.2344C190.96 92.2402 191.921 91.9238 191.921 91.3555C191.921 90.7637 190.96 90.4414 189.273 90.4414C187.579 90.4414 186.618 90.7637 186.613 91.3555ZM186.87 86.0703C186.864 86.5859 187.743 86.8848 189.273 86.8906C190.802 86.8848 191.669 86.5859 191.675 86.0703C191.669 85.5195 190.802 85.2207 189.273 85.2266C187.743 85.2207 186.864 85.5195 186.87 86.0703ZM199.402 92.3867C196.854 92.3809 194.785 90.3066 194.785 87.7578C194.785 85.209 196.854 83.1348 199.402 83.1289C201.957 83.1348 204.031 85.209 204.031 87.7578C204.031 90.3066 201.957 92.3809 199.402 92.3867ZM195.676 87.7578C195.676 89.8145 197.357 91.4844 199.402 91.4844C201.459 91.4844 203.135 89.8145 203.141 87.7578C203.135 85.7012 201.459 84.0254 199.402 84.0312C197.357 84.0254 195.676 85.7012 195.676 87.7578ZM214.255 87.6875V88.4258H204.751V87.6875H209.052V86.4688H205.958V83.0234H213.071V83.7617H206.86V85.7188H213.141V86.4688H209.942V87.6875H214.255ZM205.899 91.0625C205.893 89.873 207.247 89.1934 209.497 89.1875C211.729 89.1934 213.071 89.873 213.083 91.0625C213.071 92.2637 211.729 92.9375 209.497 92.9492C207.247 92.9375 205.893 92.2637 205.899 91.0625ZM206.837 91.0625C206.825 91.7949 207.827 92.2168 209.497 92.2109C211.149 92.2168 212.151 91.7949 212.157 91.0625C212.151 90.3418 211.149 89.9141 209.497 89.9141C207.827 89.9141 206.825 90.3418 206.837 91.0625Z" fill="#939393"/>
<defs>
<filter id="filter0_d_102_4813" x="0" y="0" width="347" height="119" filterUnits="userSpaceOnUse" color-interpolation-filters="sRGB">
<feFlood flood-opacity="0" result="BackgroundImageFix"/>
<feColorMatrix in="SourceAlpha" type="matrix" values="0 0 0 0 0 0 0 0 0 0 0 0 0 0 0 0 0 0 127 0" result="hardAlpha"/>
<feOffset dy="2"/>
<feGaussianBlur stdDeviation="3"/>
<feComposite in2="hardAlpha" operator="out"/>
<feColorMatrix type="matrix" values="0 0 0 0 0 0 0 0 0 0 0 0 0 0 0 0 0 0 0.1 0"/>
<feBlend mode="normal" in2="BackgroundImageFix" result="effect1_dropShadow_102_4813"/>
<feBlend mode="normal" in="SourceGraphic" in2="effect1_dropShadow_102_4813" result="shape"/>
</filter>
</defs>
</svg>
