<svg width="347" height="119" viewBox="0 0 347 119" fill="none" xmlns="http://www.w3.org/2000/svg">
<g filter="url(#filter0_d_102_4915)">
<rect x="6" y="4" width="335" height="107" rx="14" fill="white"/>
</g>
<path d="M26.916 33V23.1016H30.6348C32.9043 23.1016 34.1143 24.373 34.1211 26.2598C34.1143 27.6064 33.499 28.6045 32.3369 29.0762L34.4766 33H32.4941L30.5527 29.377H28.6934V33H26.916ZM28.6934 27.8867H30.3613C31.7012 27.8936 32.3027 27.3193 32.3027 26.2598C32.3027 25.207 31.7012 24.5918 30.3613 24.5918H28.6934V27.8867ZM35.6523 33V23.1016H37.4297V27.2988H42.0371V23.1016H43.8281V33H42.0371V28.7891H37.4297V33H35.6523ZM50.0762 27.3398V28.7754H45.6191V27.3398H50.0762ZM56.4473 33H54.5469L58.0332 23.1016H60.2207L63.7207 33H61.8203L60.9932 30.5527H57.2676L56.4473 33ZM57.7461 29.1172H60.5146L59.168 25.125H59.0859L57.7461 29.1172ZM64.8965 33V23.1016H68.6836C70.8301 23.1016 71.8896 24.1953 71.8965 25.6719C71.8896 26.875 71.1309 27.5449 70.1602 27.7773V27.873C71.2129 27.9277 72.2793 28.8027 72.2793 30.3066C72.2793 31.8447 71.165 33 68.9023 33H64.8965ZM66.6738 31.5098H68.6289C69.9277 31.5098 70.4678 30.9561 70.4746 30.1699C70.4678 29.2812 69.7773 28.6045 68.6699 28.5977H66.6738V31.5098ZM66.6738 27.3125H68.4648C69.4014 27.3125 70.1123 26.7725 70.1191 25.8906C70.1123 25.1318 69.5654 24.5781 68.5059 24.5781H66.6738V27.3125ZM80.1543 23.0879V24.291H73.25V23.0879H76.0117V21.748H77.5293V23.0879H80.1543ZM73.8926 27.0938C73.8857 25.7129 75.0615 24.7832 76.75 24.7832C78.4316 24.7832 79.6416 25.7129 79.6484 27.0938C79.6416 28.4678 78.4316 29.377 76.75 29.377C75.0615 29.377 73.8857 28.4678 73.8926 27.0938ZM75.1914 32.0566C75.1914 30.6963 76.7979 29.9033 79.416 29.9102C82.0273 29.9033 83.6338 30.6963 83.6406 32.0566C83.6338 33.3965 82.0273 34.2031 79.416 34.2031C76.7979 34.2031 75.1914 33.3965 75.1914 32.0566ZM75.3145 27.0938C75.3076 27.8184 75.875 28.2422 76.75 28.2422C77.625 28.2422 78.2266 27.8184 78.2266 27.0938C78.2266 26.3555 77.625 25.918 76.75 25.918C75.875 25.918 75.3076 26.3555 75.3145 27.0938ZM76.791 32.0566C76.7842 32.6992 77.748 33.0479 79.416 33.041C81.0703 33.0479 82.0137 32.6992 82.0137 32.0566C82.0137 31.4004 81.0703 31.0723 79.416 31.0723C77.748 31.0723 76.7842 31.4004 76.791 32.0566ZM80.2227 28.3242V27.1074H82.0547V25.8906H80.2363V24.6602H82.0547V21.8574H83.5723V29.7734H82.0547V28.3242H80.2227ZM93.3066 25.3711C93.3066 27.3945 94.4961 29.5273 96.4922 30.3613L95.6582 31.5645C94.1953 30.9287 93.1289 29.6367 92.5615 28.0645C91.9941 29.7598 90.9072 31.1816 89.4648 31.8652L88.5898 30.6758C90.5381 29.7734 91.7549 27.4697 91.7617 25.3711V24.332H89.041V23.0742H96.0137V24.332H93.3066V25.3711ZM97.3945 34.2168V21.8574H98.9258V34.2168H97.3945ZM111.094 21.8574V29.1992H109.576V26.1777H107.471V24.9336H109.576V21.8574H111.094ZM100.703 27.9688C102.692 27.2852 103.738 25.624 103.738 23.9902V23.8945H101.168V22.6641H107.84V23.8945H105.283V23.9766C105.283 25.4805 106.281 26.998 108.195 27.6406L107.43 28.8438C106.056 28.3789 105.085 27.4355 104.538 26.2734C103.998 27.5859 102.966 28.6523 101.496 29.1719L100.703 27.9688ZM102.713 31.8652C102.699 30.3818 104.306 29.5137 106.91 29.5137C109.528 29.5137 111.128 30.3818 111.135 31.8652C111.128 33.3486 109.528 34.21 106.91 34.2168C104.306 34.21 102.699 33.3486 102.713 31.8652ZM104.217 31.8652C104.21 32.6309 105.194 33.0479 106.91 33.041C108.64 33.0479 109.617 32.6309 109.617 31.8652C109.617 31.0928 108.64 30.6758 106.91 30.6758C105.194 30.6758 104.21 31.0928 104.217 31.8652ZM126.516 21.8711V31.1816H124.998V27.2852H123.18V26.0547H124.998V21.8711H126.516ZM116.193 24.4551V23.2383H119.064V21.8574H120.568V23.2383H123.439V24.4551H116.193ZM116.891 27.3262C116.884 25.9316 118.107 24.9609 119.816 24.9609C121.512 24.9609 122.749 25.9316 122.756 27.3262C122.749 28.707 121.512 29.6641 119.816 29.6641C118.107 29.6641 116.884 28.707 116.891 27.3262ZM118.34 27.3262C118.34 28.0576 118.948 28.4951 119.816 28.4883C120.678 28.4951 121.293 28.0576 121.293 27.3262C121.293 26.5947 120.678 26.1367 119.816 26.1367C118.941 26.1367 118.34 26.5947 118.34 27.3262ZM118.367 33.9707V30.375H119.912V32.7402H126.789V33.9707H118.367ZM135.197 22.8145V23.9766H128.293V22.8145H131.055V21.7207H132.572V22.8145H135.197ZM128.936 26.5059C128.929 25.2275 130.104 24.4004 131.793 24.4004C133.509 24.4004 134.685 25.2275 134.691 26.5059C134.685 27.7705 133.509 28.5908 131.793 28.5977C130.104 28.5908 128.929 27.7705 128.936 26.5059ZM130.357 26.5059C130.351 27.1348 130.945 27.5176 131.793 27.5176C132.647 27.5176 133.249 27.1348 133.256 26.5059C133.249 25.877 132.647 25.501 131.793 25.5078C130.945 25.501 130.351 25.877 130.357 26.5059ZM130.467 30.3066V29.1992H138.615V32.125H131.998V32.9727H138.943V34.1074H130.48V31.0859H137.098V30.3066H130.467ZM135.266 27.7637V26.5879H137.098V25.5488H135.279V24.373H137.098V21.8574H138.615V28.6797H137.098V27.7637H135.266ZM149.717 23.8262V25.043H143.66V23.8262H145.957V22.2129H147.461V23.8262H149.717ZM144.016 28.5703C144.002 26.8887 145.144 25.6924 146.709 25.6992C148.281 25.6924 149.402 26.8887 149.402 28.5703C149.402 30.2861 148.281 31.4824 146.709 31.4824C145.144 31.4824 144.002 30.2861 144.016 28.5703ZM145.355 28.5703C145.349 29.5684 145.909 30.1904 146.709 30.1836C147.502 30.1904 148.062 29.5684 148.062 28.5703C148.062 27.5996 147.502 26.957 146.709 26.957C145.909 26.957 145.349 27.5996 145.355 28.5703ZM150.236 33.6562V22.1172H151.658V26.9434H152.861V21.8574H154.311V34.2168H152.861V28.1738H151.658V33.6562H150.236ZM167.053 28.748V29.9785H162.145V34.2031H160.641V29.9785H155.787V28.748H167.053ZM156.375 26.7246C158.802 26.417 160.429 25.1113 160.538 23.7578H156.826V22.5547H166.014V23.7578H162.302C162.404 25.1113 164.018 26.417 166.465 26.7246L165.918 27.9141C163.812 27.6133 162.172 26.6494 161.42 25.3164C160.661 26.6494 159.034 27.6133 156.949 27.9141L156.375 26.7246ZM178.154 21.8574V28.1602H176.65V21.8574H178.154ZM167.873 26.957C169.876 26.3213 170.929 24.7354 170.922 23.1152V22.1582H172.494V23.1152C172.487 24.6875 173.533 26.1572 175.488 26.752L174.75 27.9277C173.314 27.4834 172.289 26.5674 171.729 25.3916C171.168 26.6699 170.115 27.6748 168.639 28.1465L167.873 26.957ZM169.979 29.9102V28.7344H178.182V31.9473H171.496V32.9043H178.551V34.1074H170.006V30.8125H176.664V29.9102H169.979ZM194.588 28.2559V29.4727H189.816V31.6055H188.312V29.4727H183.295V28.2559H194.588ZM184.662 33.9707V30.5664H186.166V32.7402H193.344V33.9707H184.662ZM184.771 27.2852V22.2539H186.275V23.6484H191.607V22.2539H193.111V27.2852H184.771ZM186.275 26.082H191.607V24.7832H186.275V26.082ZM209.395 21.8574V34.2168H207.945V21.8574H209.395ZM198.607 30.5254C201.164 29.0146 202.34 27.0801 202.572 24.5918H199.264V23.3613H204.076C204.076 23.9834 204.035 24.5918 203.946 25.1797H205.389V22.1582H206.838V33.6289H205.389V29.5H203.461V28.2559H205.389V26.4238H203.687C203.099 28.4746 201.813 30.2383 199.496 31.6055L198.607 30.5254ZM221.125 21.8711V30.8945H219.594V21.8711H221.125ZM210.844 27.9824C212.847 27.2783 213.872 25.5352 213.865 23.7578V22.5547H215.438V23.7578C215.431 25.4805 216.442 27.1074 218.404 27.7637L217.625 28.9668C216.217 28.4746 215.212 27.4902 214.665 26.2256C214.118 27.5791 213.093 28.6592 211.637 29.1855L210.844 27.9824ZM212.949 33.9707V30.0332H214.48V32.7402H221.467V33.9707H212.949ZM232.609 21.8574V26.6836H234.441V27.9551H232.609V34.1895H231.092V21.8574H232.609ZM222.861 30.8125C225.869 29.3086 227.496 27.2168 227.797 24.4004H223.531V23.1426H229.342C229.335 26.7725 227.831 29.9648 223.723 31.9883L222.861 30.8125ZM246.322 31.4688V32.7129H235.029V31.4688H237.641V28.3447C236.656 27.7773 236.062 26.8887 236.068 25.7949C236.062 23.8262 237.989 22.5273 240.648 22.5273C243.321 22.5273 245.263 23.8262 245.256 25.7949C245.263 26.875 244.682 27.7432 243.725 28.3105V31.4688H246.322ZM237.559 25.7949C237.552 27.0596 238.803 27.8662 240.648 27.8594C242.487 27.8662 243.766 27.0596 243.766 25.7949C243.766 24.5098 242.487 23.7236 240.648 23.7305C238.803 23.7236 237.552 24.5098 237.559 25.7949ZM239.145 31.4688H242.18V28.8916C241.708 28.9941 241.195 29.0488 240.648 29.0488C240.115 29.0488 239.609 28.9941 239.145 28.8984V31.4688ZM249.221 29.9648C249.234 28.2217 249.727 27.6885 250.588 27.1621C251.169 26.7861 251.62 26.3281 251.613 25.6445C251.62 24.8789 251.019 24.3867 250.273 24.3867C249.597 24.3867 248.94 24.8242 248.893 25.7402H247.184C247.231 23.9014 248.599 22.9648 250.287 22.9648C252.133 22.9648 253.397 23.9902 253.404 25.6172C253.397 26.7314 252.844 27.4561 251.955 27.9824C251.162 28.4678 250.834 28.9395 250.82 29.9648V30.0879H249.221V29.9648ZM249.002 32.043C248.995 31.4688 249.48 30.9971 250.068 30.9902C250.636 30.9971 251.121 31.4688 251.121 32.043C251.121 32.6309 250.636 33.1094 250.068 33.1094C249.48 33.1094 248.995 32.6309 249.002 32.043Z" fill="black"/>
<path d="M34.9648 46.5312V56.9492H34.0508V46.5312H34.9648ZM26.4805 54.1016C28.4785 54.1016 31.0859 54.0957 33.3594 53.8086L33.4297 54.4883C31.0801 54.875 28.5605 54.8984 26.6211 54.8867L26.4805 54.1016ZM26.7031 48.6992V47.9492H29.4336V46.6484H30.3711V47.9492H33.0898V48.6992H26.7031ZM27.418 51.2422C27.4062 50.041 28.4258 49.2793 29.9023 49.2734C31.3848 49.2793 32.3984 50.041 32.4102 51.2422C32.3984 52.4141 31.3848 53.1992 29.9023 53.1875C28.4258 53.1992 27.4062 52.4141 27.418 51.2422ZM28.2734 51.2422C28.2734 51.9746 28.9414 52.4668 29.9023 52.4727C30.8633 52.4668 31.5254 51.9746 31.5312 51.2422C31.5254 50.5039 30.8633 50 29.9023 50C28.9414 50 28.2734 50.5039 28.2734 51.2422ZM45.1648 46.5312V56.9492H44.2508V46.5312H45.1648ZM36.4227 51.5117C37.823 51.5059 39.4344 51.4883 41.034 51.4121C41.3094 49.918 41.3504 48.8164 41.3621 48.1016H37.3484V47.3398H42.282V47.7617C42.2703 48.4297 42.2703 49.6426 41.9832 51.3594C42.493 51.3242 42.9969 51.2832 43.4891 51.2305L43.5594 51.9219C42.493 52.0566 41.3855 52.1445 40.3016 52.2031V56.3281H39.3758V52.2383C38.3855 52.2734 37.4246 52.2852 36.5516 52.2852L36.4227 51.5117ZM55.182 47.457V48.1836H49.2875V47.457H51.8188V46.4023H52.7328V47.457H55.182ZM49.9086 50.4688C49.8969 49.3789 50.8578 48.6934 52.2641 48.6875C53.6762 48.6934 54.6371 49.3789 54.643 50.4688C54.6371 51.541 53.6762 52.2266 52.2641 52.2266C50.8578 52.2266 49.8969 51.541 49.9086 50.4688ZM50.7641 50.4688C50.7582 51.1191 51.3734 51.5586 52.2641 51.5586C53.1547 51.5586 53.7699 51.1191 53.7758 50.4688C53.7699 49.8066 53.1547 49.3789 52.2641 49.3906C51.3734 49.3789 50.7582 49.8066 50.7641 50.4688ZM51.1508 53.5625V52.8711H57.9008V55.1211H52.0883V56.1289H58.2055V56.832H51.1742V54.4531H56.9867V53.5625H51.1508ZM55.1703 51.4297V50.6914H56.9867V49.5781H55.182V48.8516H56.9867V46.5312H57.9008V52.3555H56.9867V51.4297H55.1703ZM61.843 47.1875C63.2199 47.1934 64.2277 48.2012 64.2336 49.6484C64.2277 51.1016 63.2199 52.0859 61.843 52.0859C60.4484 52.0859 59.4582 51.1016 59.4641 49.6484C59.4582 48.2012 60.4484 47.1934 61.843 47.1875ZM60.2961 49.6484C60.2844 50.6152 60.9465 51.3184 61.843 51.3125C62.7277 51.3184 63.384 50.6152 63.3898 49.6484C63.384 48.6816 62.7277 47.9844 61.843 47.9844C60.9465 47.9844 60.2844 48.6816 60.2961 49.6484ZM61.175 54.0664V53.3281H68.1945V56.9492H67.2922V54.0664H61.175ZM65.0656 52.6719V46.7422H65.9328V49.2266H67.3156V46.543H68.1945V52.7422H67.3156V49.9883H65.9328V52.6719H65.0656ZM75.3242 47.7031V48.4531H69.4297V47.7031H71.9609V46.4492H72.875V47.7031H75.3242ZM70.0508 50.9141C70.0391 49.7539 71 48.9863 72.4062 48.9922C73.8008 48.9863 74.7793 49.7539 74.7852 50.9141C74.7793 52.0801 73.8008 52.8418 72.4062 52.8477C71 52.8418 70.0391 52.0801 70.0508 50.9141ZM70.9062 50.9141C70.9004 51.6465 71.498 52.1387 72.4062 52.1328C73.3027 52.1387 73.918 51.6465 73.9297 50.9141C73.918 50.1816 73.3027 49.6953 72.4062 49.6836C71.498 49.6953 70.9004 50.1816 70.9062 50.9141ZM71.1172 55.1562C71.1172 54.0195 72.4355 53.375 74.6211 53.375C76.7949 53.375 78.1133 54.0195 78.1133 55.1562C78.1133 56.2754 76.7949 56.9258 74.6211 56.9258C72.4355 56.9258 71.1172 56.2754 71.1172 55.1562ZM72.0664 55.1562C72.0723 55.8184 73.0391 56.2168 74.6211 56.2109C76.1797 56.2168 77.1406 55.8184 77.1406 55.1562C77.1406 54.4766 76.1797 54.0957 74.6211 54.0898C73.0391 54.0957 72.0723 54.4766 72.0664 55.1562ZM75.3125 51.8281V51.0664H77.1289V49.8008H75.3242V49.0391H77.1289V46.5312H78.0547V53.2695H77.1289V51.8281H75.3125ZM88.0789 46.5312V56.9727H87.1531V46.5312H88.0789ZM79.8758 50.9727C79.8816 48.7578 80.9832 47.3457 82.5359 47.3398C84.0828 47.3457 85.202 48.7578 85.1961 50.9727C85.202 53.1934 84.0828 54.5996 82.5359 54.5938C80.9832 54.5996 79.8816 53.1934 79.8758 50.9727ZM80.7664 50.9727C80.7664 52.666 81.493 53.7793 82.5359 53.7734C83.5848 53.7793 84.3055 52.666 84.3055 50.9727C84.3055 49.2793 83.5848 48.166 82.5359 48.1602C81.493 48.166 80.7664 49.2793 80.7664 50.9727ZM97.6227 46.5312V50.6797H99.3688V51.4531H97.6227V56.9727H96.7086V46.5312H97.6227ZM89.9703 48.2656V47.5039H94.7047V51.2305H90.9078V53.668C92.8414 53.6738 94.1949 53.5977 95.7711 53.3047L95.8648 54.0664C94.2242 54.3652 92.8355 54.4414 90.8258 54.4531H89.9938V50.4688H93.7906V48.2656H89.9703ZM110.956 46.5312V56.9492H110.03V46.5312H110.956ZM102.331 53.5859C102.782 53.5859 103.269 53.5801 103.773 53.5742V48.4297H102.601V47.668H108.554V48.4297H107.37V53.4395C107.956 53.3984 108.536 53.3457 109.093 53.2812L109.152 53.9727C106.878 54.3242 104.364 54.3594 102.437 54.3711L102.331 53.5859ZM104.675 53.5566C105.261 53.5449 105.864 53.5215 106.468 53.4922V48.4297H104.675V53.5566ZM121.941 51.3711V52.0977H112.402V51.3711H121.941ZM113.551 53.6211V52.9297H120.746V55.1445H114.488V56.1406H121.086V56.8086H113.562V54.5117H119.832V53.6211H113.551ZM113.609 47.5156V46.8477H120.711V49.0039H114.559V49.918H120.898V50.5859H113.645V48.3711H119.785V47.5156H113.609ZM133.435 47.2109V48.125C133.435 49.1094 133.435 50.1934 133.136 51.6875H134.689V52.4492H130.388V56.9727H129.463V52.4492H125.197V51.6875H132.205C132.521 50.1875 132.521 49.0977 132.521 48.125V47.9727H126.392V47.2109H133.435ZM143.33 46.5312V50.832H145.077V51.5938H143.33V56.9492H142.416V46.5312H143.33ZM135.209 48.9688V48.207H137.893V46.6602H138.807V48.207H141.409V48.9688H135.209ZM135.807 52.2266C135.801 50.8203 136.879 49.8359 138.362 49.8359C139.832 49.8359 140.905 50.8203 140.916 52.2266C140.905 53.6387 139.832 54.6172 138.362 54.6172C136.879 54.6172 135.801 53.6387 135.807 52.2266ZM136.686 52.2266C136.68 53.1758 137.389 53.8438 138.362 53.832C139.323 53.8438 140.026 53.1758 140.037 52.2266C140.026 51.2832 139.323 50.6035 138.362 50.6094C137.389 50.6035 136.68 51.2832 136.686 52.2266ZM153.952 46.5312V56.9492H153.027V46.5312H153.952ZM145.468 54.2422C148.286 52.9062 149.728 50.9082 149.933 48.418H145.948V47.668H150.87C150.859 50.6621 149.464 53.3164 145.972 54.9922L145.468 54.2422ZM160.923 47.3398C162.341 47.3457 163.366 48.5645 163.507 50.5156H165.845V46.5312H166.759V56.9727H165.845V51.2773H163.518C163.419 53.3223 162.376 54.5996 160.923 54.5938C159.382 54.5996 158.304 53.1934 158.309 50.9727C158.304 48.7578 159.382 47.3457 160.923 47.3398ZM159.188 50.9727C159.194 52.666 159.897 53.7793 160.923 53.7734C161.942 53.7793 162.657 52.666 162.657 50.9727C162.657 49.2793 161.942 48.166 160.923 48.1602C159.897 48.166 159.194 49.2793 159.188 50.9727ZM176.83 46.543V52.3672H175.904V50.668H173.83V49.918H175.904V48.6523H173.83V47.8906H175.904V46.543H176.83ZM168.615 47.7734V47.0117H173.138V49.8242H169.552V51.2773C171.486 51.2656 172.5 51.248 173.759 51.0312L173.841 51.793C172.517 52.0156 171.457 52.0391 169.377 52.0508H168.638V49.1094H172.224V47.7734H168.615ZM170.033 56.8086V52.7891H170.959V54.0078H175.916V52.7891H176.83V56.8086H170.033ZM170.959 56.0586H175.916V54.7461H170.959V56.0586ZM180.385 52.7891V54.0078H185.588V52.7891H186.514V56.8086H179.471V52.7891H180.385ZM178.264 52.0508V51.2891H187.756V52.0508H178.264ZM178.803 49.8125C180.661 49.5605 182.541 48.4648 182.541 47.1406V46.6484H183.491V47.1406C183.485 48.4238 185.383 49.5781 187.217 49.8125L186.877 50.5508C185.266 50.3105 183.678 49.4902 183.016 48.3242C182.354 49.4961 180.76 50.3105 179.155 50.5508L178.803 49.8125ZM180.385 56.0703H185.588V54.7344H180.385V56.0703ZM196.925 46.5312V56.9492H196.011V46.5312H196.925ZM189.015 54.2656V47.5625H189.917V53.4688C191.511 53.457 193.152 53.334 194.898 52.9648L195.027 53.75C193.175 54.1367 191.529 54.2656 189.859 54.2656H189.015ZM206.469 46.5312V50.6562H208.215V51.4297H206.469V56.9727H205.555V46.5312H206.469ZM198.863 54.3594V47.5508H203.727V48.3125H199.777V53.5859C201.664 53.5801 202.994 53.498 204.547 53.2109L204.664 54.0078C203.029 54.3008 201.664 54.3594 199.684 54.3594H198.863ZM209.579 56.0703C209.169 56.0645 208.817 55.7246 208.829 55.3086C208.817 54.8984 209.169 54.5586 209.579 54.5586C209.995 54.5586 210.335 54.8984 210.329 55.3086C210.335 55.7246 209.995 56.0645 209.579 56.0703ZM217.522 48.1484C217.516 49.3848 218.571 50.5859 220.077 51.0664L219.62 51.793C218.436 51.4062 217.516 50.5977 217.065 49.584C216.602 50.7031 215.635 51.6172 214.416 52.0391L213.959 51.3125C215.477 50.7852 216.596 49.4844 216.596 48.1367V47.8438H214.241V47.082H219.854V47.8438H217.522V48.1484ZM215.788 53.1875V52.4375H222.538V54.9336H216.725V56.0938H222.936V56.832H215.811V54.2305H221.623V53.1875H215.788ZM219.526 49.625V48.8633H221.623V46.5312H222.538V51.9219H221.623V49.625H219.526ZM232.573 46.5312V51.9336H231.671V46.5312H232.573ZM224.054 51.1016C225.624 50.5566 226.738 49.1621 226.738 47.6328V46.8359H227.675V47.6328C227.663 49.1035 228.788 50.4043 230.335 50.9141L229.878 51.6289C228.654 51.2129 227.687 50.3398 227.218 49.2148C226.749 50.4277 225.771 51.3828 224.534 51.8281L224.054 51.1016ZM225.812 53.1992V52.4609H232.585V54.957H226.738V56.082H232.96V56.832H225.835V54.2422H231.671V53.1992H225.812ZM242.117 46.5312V50.832H243.863V51.5938H242.117V56.9492H241.203V46.5312H242.117ZM233.996 48.9688V48.207H236.68V46.6602H237.594V48.207H240.195V48.9688H233.996ZM234.594 52.2266C234.588 50.8203 235.666 49.8359 237.148 49.8359C238.619 49.8359 239.691 50.8203 239.703 52.2266C239.691 53.6387 238.619 54.6172 237.148 54.6172C235.666 54.6172 234.588 53.6387 234.594 52.2266ZM235.473 52.2266C235.467 53.1758 236.176 53.8438 237.148 53.832C238.109 53.8438 238.812 53.1758 238.824 52.2266C238.812 51.2832 238.109 50.6035 237.148 50.6094C236.176 50.6035 235.467 51.2832 235.473 52.2266ZM253.044 46.5312V56.9492H252.165V46.5312H253.044ZM244.137 54.0312C246.399 52.6895 247.536 50.8086 247.712 48.6289H244.583V47.8672H248.626C248.626 48.8926 248.462 49.8828 248.104 50.8086H249.973V46.8125H250.852V56.4219H249.973V51.5586H247.764C247.137 52.7715 246.13 53.8438 244.677 54.6992L244.137 54.0312ZM265.522 46.5312V51.9453H264.596V46.5312H265.522ZM257.084 50.8086C257.5 50.8086 257.952 50.8027 258.42 50.7969V47.9844H257.377V47.2461H263.014V47.9844H261.959V50.6562C262.498 50.6152 263.026 50.5625 263.53 50.5039L263.577 51.1836C261.491 51.4941 259.041 51.5762 257.202 51.5703L257.084 50.8086ZM258.702 53.1875V52.4492H265.522V54.9336H259.639V56.082H265.92V56.832H258.737V54.2422H264.608V53.1875H258.702ZM259.311 50.7793C259.885 50.7617 260.477 50.7441 261.069 50.709V47.9844H259.311V50.7793ZM276.519 54.8398V55.6133H266.98V54.8398H269.347V52.0332C268.456 51.5703 267.917 50.8203 267.917 49.8711C267.917 48.2598 269.499 47.1992 271.726 47.1875C273.952 47.1992 275.534 48.2598 275.534 49.8711C275.534 50.8027 275.013 51.541 274.152 52.0039V54.8398H276.519ZM268.808 49.8711C268.802 51.0371 270.015 51.8164 271.726 51.8164C273.419 51.8164 274.644 51.0371 274.644 49.8711C274.644 48.7051 273.419 47.9375 271.726 47.9492C270.015 47.9375 268.802 48.7051 268.808 49.8711ZM270.249 54.8398H273.226V52.3613C272.775 52.4785 272.271 52.543 271.726 52.543C271.193 52.543 270.695 52.4844 270.249 52.3672V54.8398ZM282.254 48.3359V49.0859H277.027V48.3359H279.195V46.8477H280.109V48.3359H282.254ZM277.402 52.1562C277.402 50.7734 278.346 49.7949 279.641 49.7891C280.953 49.7949 281.891 50.7734 281.902 52.1562C281.891 53.5566 280.953 54.541 279.641 54.5469C278.346 54.541 277.402 53.5566 277.402 52.1562ZM278.223 52.1562C278.223 53.082 278.814 53.7441 279.641 53.7383C280.473 53.7441 281.082 53.082 281.082 52.1562C281.082 51.2422 280.473 50.5742 279.641 50.5625C278.814 50.5742 278.223 51.2422 278.223 52.1562ZM282.793 56.4336V46.7891H283.66V50.9258H285.043V46.5312H285.922V56.9492H285.043V51.6875H283.66V56.4336H282.793ZM296.661 54.8398V55.6133H287.122V54.8398H289.489V52.0332C288.598 51.5703 288.059 50.8203 288.059 49.8711C288.059 48.2598 289.641 47.1992 291.868 47.1875C294.095 47.1992 295.677 48.2598 295.677 49.8711C295.677 50.8027 295.155 51.541 294.294 52.0039V54.8398H296.661ZM288.95 49.8711C288.944 51.0371 290.157 51.8164 291.868 51.8164C293.561 51.8164 294.786 51.0371 294.786 49.8711C294.786 48.7051 293.561 47.9375 291.868 47.9492C290.157 47.9375 288.944 48.7051 288.95 49.8711ZM290.391 54.8398H293.368V52.3613C292.917 52.4785 292.413 52.543 291.868 52.543C291.335 52.543 290.837 52.4844 290.391 52.3672V54.8398ZM298.295 56.0703C297.884 56.0645 297.533 55.7246 297.545 55.3086C297.533 54.8984 297.884 54.5586 298.295 54.5586C298.711 54.5586 299.05 54.8984 299.045 55.3086C299.05 55.7246 298.711 56.0645 298.295 56.0703ZM311.042 51.418V52.168H307.82V54.8633H312.167V55.6367H302.628V54.8633H306.917V52.168H303.847V47.3867H310.937V48.1367H304.773V51.418H311.042ZM31.168 60.7305C33.4355 60.7363 34.8418 61.457 34.8477 62.6992C34.8418 63.918 33.4355 64.6387 31.168 64.6328C28.9004 64.6387 27.4766 63.918 27.4766 62.6992C27.4766 61.457 28.9004 60.7363 31.168 60.7305ZM26.4219 66.1914V65.4297H35.9141V66.1914H31.6133V67.3867H34.7539V70.8086H27.582V67.3867H30.7109V66.1914H26.4219ZM28.4258 62.6992C28.4199 63.4609 29.4805 63.9062 31.168 63.9062C32.8379 63.9062 33.9043 63.4609 33.9102 62.6992C33.9043 61.9199 32.8379 61.457 31.168 61.457C29.4805 61.457 28.4199 61.9199 28.4258 62.6992ZM28.4961 70.0586H33.8516V68.125H28.4961V70.0586ZM44.4664 62.0078C44.4605 63.4023 46.318 64.5859 48.1344 64.8555L47.7945 65.582C46.1715 65.3066 44.5836 64.4395 43.9508 63.1855C43.318 64.4395 41.7301 65.3066 40.1305 65.582L39.7672 64.8555C41.5777 64.5859 43.4293 63.4023 43.4352 62.0078V61.9375H40.0953V61.1875H47.7945V61.9375H44.4664V62.0078ZM39.2047 67.2344V66.4727H48.6969V67.2344H44.3844V70.9492H43.482V67.2344H39.2047ZM57.8656 60.5312V65.9336H56.9633V60.5312H57.8656ZM49.3461 65.1016C50.9164 64.5566 52.0297 63.1621 52.0297 61.6328V60.8359H52.9672V61.6328C52.9555 63.1035 54.0805 64.4043 55.6273 64.9141L55.1703 65.6289C53.9457 65.2129 52.9789 64.3398 52.5102 63.2148C52.0414 64.4277 51.0629 65.3828 49.8266 65.8281L49.3461 65.1016ZM51.1039 67.1992V66.4609H57.8773V68.957H52.0297V70.082H58.2523V70.832H51.1273V68.2422H56.9633V67.1992H51.1039ZM67.2852 61.5039C67.291 62.9746 69.2012 64.2402 71.082 64.5039L70.707 65.2539C69.0898 64.9844 67.4844 64.0879 66.8164 62.8105C66.1484 64.0996 64.5488 64.9844 62.9258 65.2539L62.5508 64.5039C64.4316 64.2402 66.3359 62.998 66.3359 61.5039V60.9062H67.2852V61.5039ZM62.0586 67.1758V66.4023H71.5508V67.1758H67.2383V70.9492H66.3359V67.1758H62.0586ZM78.3688 67.5273C78.3629 68.4473 78.8609 69.4258 79.8512 69.9883C80.8473 69.373 81.3746 68.3301 81.3688 67.5273V66.9531H82.2711V67.5273C82.2652 68.5996 83.0563 69.666 84.3922 70.1289L83.9352 70.8086C82.8922 70.4395 82.1656 69.7129 81.8023 68.8398C81.4801 69.6836 80.8414 70.4863 79.8805 70.8906C78.8668 70.5039 78.2223 69.7422 77.9117 68.8691C77.5367 69.707 76.8219 70.4336 75.8258 70.8086L75.357 70.1289C76.6754 69.6367 77.4664 68.5234 77.4781 67.5273V66.9531H78.3688V67.5273ZM75.0875 63.5898C75.0816 62.1367 76.2359 61.1465 77.818 61.1523C79.4 61.1465 80.5426 62.1367 80.5484 63.5898C80.5426 65.0195 79.4 66.0039 77.818 66.0039C76.2359 66.0039 75.0816 65.0195 75.0875 63.5898ZM75.9898 63.5898C75.9781 64.5566 76.7457 65.2363 77.818 65.2422C78.8785 65.2363 79.6461 64.5566 79.6461 63.5898C79.6461 62.6172 78.8785 61.9258 77.818 61.9375C76.7457 61.9258 75.9781 62.6172 75.9898 63.5898ZM82.5289 66.4961V60.543H83.443V66.4961H82.5289ZM93.3383 63.6953V64.4336H86.2016V60.918H87.1156V63.6953H93.3383ZM84.9008 66.6016V65.8516H94.4398V66.6016H84.9008ZM86.143 70.6914V67.668H87.057V69.9297H93.3969V70.6914H86.143ZM107.223 66.0508V66.8008H102.98V68.8398H102.066V66.8008H97.6836V66.0508H107.223ZM98.9023 70.7266V67.8789H99.8164V69.9531H106.156V70.7266H98.9023ZM98.9609 65.0312V60.8711H99.875V62.207H105.031V60.8711H105.945V65.0312H98.9609ZM99.875 64.2812H105.031V62.9102H99.875V64.2812ZM119.396 60.5312V70.9492H118.517V60.5312H119.396ZM110.466 68.0312C112.734 66.6895 113.871 64.8086 114.052 62.6289H110.935V61.8672H114.966C114.966 62.4004 114.92 62.9277 114.826 63.4375H116.408V60.8125H117.287V70.4219H116.408V66.8125H114.474V66.0508H116.408V64.1992H114.644C114.14 65.9629 112.998 67.5215 111.029 68.6992L110.466 68.0312ZM124.252 63.332C124.246 65.2363 125.541 67.1465 127.077 67.8438L126.514 68.5703C125.325 67.9961 124.299 66.7598 123.801 65.2773C123.321 66.8477 122.295 68.166 121.077 68.7812L120.491 68.0078C122.043 67.2988 123.327 65.3066 123.338 63.332V61.4336H124.252V63.332ZM128.213 70.9727V60.5312H129.139V70.9727H128.213ZM135.894 61.4453V62.3711H138.331V60.543H139.257V68.1484H138.331V65.3711H135.894V66.3086H131.113V61.4453H135.894ZM132.027 65.5703H134.991V62.207H132.027V65.5703ZM132.519 70.7266V67.4688H133.445V69.9531H139.491V70.7266H132.519ZM135.894 64.6094H138.331V63.1445H135.894V64.6094ZM146.192 61.3398C147.727 61.3457 148.817 62.7578 148.829 64.9727C148.817 67.1934 147.727 68.5996 146.192 68.5938C144.645 68.5996 143.561 67.1934 143.567 64.9727C143.561 62.7578 144.645 61.3457 146.192 61.3398ZM144.434 64.9727C144.44 66.666 145.161 67.7793 146.192 67.7734C147.235 67.7793 147.938 66.666 147.938 64.9727C147.938 63.2793 147.235 62.166 146.192 62.1602C145.161 62.166 144.44 63.2793 144.434 64.9727ZM150.552 70.9492V60.5312H151.466V64.6914H153.212V65.4883H151.466V70.9492H150.552ZM157.728 61.668V65.3125H154.716V67.6797C155.918 67.6738 157.048 67.627 158.396 67.3984L158.478 68.1484C156.996 68.4062 155.818 68.4531 154.505 68.4531H153.826V64.5508H156.838V62.4414H153.802V61.668H157.728ZM159.123 70.4102V60.7656H159.966V64.6562H161.502V60.5312H162.38V70.9492H161.502V65.418H159.966V70.4102H159.123ZM171.003 61.2109C173.218 61.2227 174.812 62.3008 174.812 63.9414C174.812 65.4941 173.429 66.5195 171.448 66.6543V68.8398H175.796V69.6133H166.257V68.8398H170.546V66.6543C168.577 66.5137 167.195 65.4883 167.195 63.9414C167.195 62.3008 168.794 61.2227 171.003 61.2109ZM168.085 63.9414C168.079 65.1426 169.316 65.9219 171.003 65.9336C172.691 65.9219 173.921 65.1426 173.921 63.9414C173.921 62.7637 172.691 61.9668 171.003 61.9727C169.316 61.9668 168.079 62.7637 168.085 63.9414ZM184.918 61.0703V61.8203H183.312V64.2227H184.883V64.9609H177.254V64.2227H178.824V61.8203H177.219V61.0703H184.918ZM176.328 66.8594V66.0977H185.82V66.8594H176.328ZM177.559 70.7266V67.8086H178.484V69.9531H184.766V70.7266H177.559ZM179.738 64.2227H182.398V61.8203H179.738V64.2227ZM189.446 63.7305C189.452 65.3945 190.302 67.1055 191.731 67.8672L191.192 68.5586C190.155 67.9902 189.405 66.918 189.024 65.6641C188.655 67 187.905 68.1602 186.868 68.7695L186.317 68.0898C187.723 67.2637 188.573 65.4531 188.579 63.7305V63.25H186.563V62.4883H188.579V60.918H189.458V62.4883H191.45V63.25H189.446V63.7305ZM192.165 70.4219V60.7539H193.044V64.75H194.462V60.5312H195.352V70.9492H194.462V65.5352H193.044V70.4219H192.165ZM202.072 61.3047V62.0547H198.005V63.3672H201.779V64.1172H198.005V65.4883C200.22 65.4941 201.462 65.4531 202.927 65.207L203.021 65.957C201.504 66.2031 200.226 66.2559 197.923 66.25H197.08V61.3047H202.072ZM198.087 69.0273C198.087 67.8379 199.406 67.1406 201.615 67.1523C203.783 67.1406 205.125 67.8379 205.119 69.0273C205.125 70.2402 203.783 70.9258 201.615 70.9258C199.406 70.9258 198.087 70.2402 198.087 69.0273ZM199.002 69.0273C199.002 69.7656 199.974 70.1992 201.615 70.1992C203.209 70.1992 204.211 69.7656 204.216 69.0273C204.211 68.3184 203.209 67.8789 201.615 67.8789C199.974 67.8789 199.002 68.3184 199.002 69.0273ZM204.158 67V60.543H205.072V67H204.158ZM217.855 60.543V66.9531H216.941V60.543H217.855ZM209.78 61.9727V61.1992H214.538V64.0586H210.695V65.5352C212.558 65.5352 213.946 65.4824 215.64 65.207L215.745 65.9688C213.993 66.2559 212.57 66.3027 210.648 66.3086H209.804V63.332H213.624V61.9727H209.78ZM210.882 69.0508C210.876 67.8555 212.206 67.1641 214.398 67.1641C216.589 67.1641 217.925 67.8555 217.925 69.0508C217.925 70.2402 216.589 70.9258 214.398 70.9258C212.206 70.9258 210.876 70.2402 210.882 69.0508ZM211.784 69.0508C211.79 69.7656 212.775 70.1934 214.398 70.1875C216.015 70.1934 217.005 69.7656 216.999 69.0508C217.005 68.3359 216.015 67.9023 214.398 67.9023C212.775 67.9023 211.79 68.3359 211.784 69.0508ZM227.633 61.5977V62.8867C227.639 64.4219 227.639 65.8398 227.199 67.9492L226.273 67.8672C226.508 66.8652 226.619 65.998 226.678 65.1895L220.32 65.5352L220.191 64.7734L226.719 64.5039C226.736 63.9531 226.742 63.4199 226.742 62.8867V62.3711H220.473V61.5977H227.633ZM219.324 69.4844V68.7109H228.816V69.4844H219.324ZM238.934 68.8867V69.6602H229.395V68.8867H233.684V66.918H230.591V63.707H236.825V62.0664H230.567V61.3047H237.727V64.457H231.505V66.1562H237.973V66.918H234.587V68.8867H238.934ZM250.815 60.543V68.2422H249.889V65.4297H247.194C246.713 66.0449 245.94 66.4141 245.049 66.4141C243.491 66.4141 242.336 65.3359 242.342 63.8125C242.336 62.2832 243.491 61.2051 245.049 61.1992C245.934 61.2051 246.696 61.5684 247.182 62.1719H249.889V60.543H250.815ZM243.221 63.8125C243.221 64.8555 243.983 65.5996 245.049 65.5938C246.075 65.5996 246.854 64.8555 246.854 63.8125C246.854 62.7754 246.075 62.0254 245.049 62.0195C243.983 62.0254 243.221 62.7754 243.221 63.8125ZM244.123 70.7266V67.4336H245.049V69.9531H251.108V70.7266H244.123ZM247.598 62.9336C247.692 63.2031 247.745 63.4961 247.745 63.8125C247.745 64.1172 247.692 64.4043 247.604 64.668H249.889V62.9336H247.598ZM257.417 61.1641V64.0352H253.62V65.5469C255.472 65.541 256.814 65.4766 258.437 65.207L258.53 65.9688C256.861 66.2441 255.466 66.3145 253.527 66.3086H252.718V63.3086H256.515V61.9141H252.695V61.1641H257.417ZM253.573 68.1719V67.4219H260.394V70.9492H259.48V68.1719H253.573ZM259.48 66.8711V60.543H260.394V63.2148H261.976V63.9883H260.394V66.8711H259.48ZM267.582 62.0078C267.576 63.4023 269.434 64.5859 271.25 64.8555L270.91 65.582C269.287 65.3066 267.699 64.4395 267.066 63.1855C266.434 64.4395 264.846 65.3066 263.246 65.582L262.883 64.8555C264.693 64.5859 266.545 63.4023 266.551 62.0078V61.9375H263.211V61.1875H270.91V61.9375H267.582V62.0078ZM262.32 67.2344V66.4727H271.812V67.2344H267.5V70.9492H266.598V67.2344H262.32ZM276.095 63.332C276.089 65.2363 277.384 67.1465 278.919 67.8438L278.356 68.5703C277.167 67.9961 276.141 66.7598 275.643 65.2773C275.163 66.8477 274.137 68.166 272.919 68.7812L272.333 68.0078C273.886 67.2988 275.169 65.3066 275.18 63.332V61.4336H276.095V63.332ZM280.055 70.9727V60.5312H280.981V70.9727H280.055ZM287.736 61.4453V62.3711H290.173V60.543H291.099V68.1484H290.173V65.3711H287.736V66.3086H282.955V61.4453H287.736ZM283.869 65.5703H286.834V62.207H283.869V65.5703ZM284.361 70.7266V67.4688H285.287V69.9531H291.334V70.7266H284.361ZM287.736 64.6094H290.173V63.1445H287.736V64.6094ZM303.39 60.5312V63.0859H304.96V63.8477H303.39V66.4492H302.476V60.5312H303.39ZM295.234 65.8164C297.794 65.125 299.359 63.7363 299.552 61.9727H295.702V61.2109H300.542C300.53 63.8359 298.696 65.7168 295.609 66.5547L295.234 65.8164ZM296.792 70.8086V66.9297H303.39V70.8086H296.792ZM297.706 70.0586H302.476V67.6914H297.706V70.0586ZM306.418 70.0703C306.008 70.0645 305.656 69.7246 305.668 69.3086C305.656 68.8984 306.008 68.5586 306.418 68.5586C306.834 68.5586 307.174 68.8984 307.168 69.3086C307.174 69.7246 306.834 70.0645 306.418 70.0703ZM309.165 70.0703C308.755 70.0645 308.403 69.7246 308.415 69.3086C308.403 68.8984 308.755 68.5586 309.165 68.5586C309.581 68.5586 309.921 68.8984 309.915 69.3086C309.921 69.7246 309.581 70.0645 309.165 70.0703ZM311.912 70.0703C311.502 70.0645 311.15 69.7246 311.162 69.3086C311.15 68.8984 311.502 68.5586 311.912 68.5586C312.328 68.5586 312.668 68.8984 312.662 69.3086C312.668 69.7246 312.328 70.0645 311.912 70.0703Z" fill="#4B4B4B"/>
<path d="M29.7266 92.1172C28.0391 92.1172 26.8262 91.2148 26.7734 89.8672H27.8398C27.8984 90.6758 28.7012 91.1797 29.7148 91.1797C30.834 91.1797 31.6426 90.5762 31.6484 89.6914C31.6426 88.7656 30.9043 88.1152 29.5859 88.1094H28.8945V87.1836H29.5859C30.6172 87.1836 31.3379 86.6035 31.332 85.7305C31.3379 84.8809 30.7168 84.3184 29.75 84.3125C28.8418 84.3184 28.0156 84.8164 27.9688 85.6484H26.9492C27.002 84.3008 28.2559 83.3984 29.7617 83.3984C31.3789 83.3984 32.3633 84.459 32.3516 85.6719C32.3633 86.6387 31.8008 87.3418 30.9102 87.5938V87.6523C32.0176 87.8223 32.6855 88.6133 32.6797 89.6914C32.6855 91.0859 31.4199 92.1172 29.7266 92.1172ZM43.0555 88.0508V88.8008H38.8133V90.8398H37.8992V88.8008H33.5164V88.0508H43.0555ZM34.7352 92.7266V89.8789H35.6492V91.9531H41.9891V92.7266H34.7352ZM34.7937 87.0312V82.8711H35.7078V84.207H40.8641V82.8711H41.7781V87.0312H34.7937ZM35.7078 86.2812H40.8641V84.9102H35.7078V86.2812ZM54.9477 82.543V90.1836H54.0219V86.1875H51.8773V85.4258H54.0219V82.543H54.9477ZM46.3578 88.0977C47.893 87.5586 49.0063 86.1816 49.0063 84.6875V84.1484H46.6508V83.3867H52.2641V84.1484H49.932V84.6875C49.932 86.0352 50.975 87.3418 52.4984 87.8633L52.018 88.6016C50.8461 88.1738 49.9379 87.3008 49.4867 86.2227C49.0355 87.4297 48.0746 88.3848 46.8383 88.8477L46.3578 88.0977ZM48.2563 92.7266V89.4922H49.182V91.9531H55.2406V92.7266H48.2563ZM60.9453 82.3203V93.1953H60.0781V82.3203H60.9453ZM68.7945 84.4531C68.7945 85.8066 69.8375 87.1016 71.3609 87.6289L70.8805 88.3555C69.7086 87.9336 68.8004 87.0605 68.3551 85.9883C67.9039 87.1836 66.9371 88.1445 65.7008 88.6016L65.2203 87.875C66.7555 87.3242 67.8688 85.9355 67.8688 84.4648V84.0078H65.5133V83.2578H71.1266V84.0078H68.7945V84.4531ZM66.8023 90.0898V89.3281H73.8102V92.9492H72.8844V90.0898H66.8023ZM70.7984 86.0352V85.2617H72.8844V82.5312H73.8102V88.7773H72.8844V86.0352H70.7984ZM78.9359 83.8672C78.9242 85.3027 80.0492 86.6035 81.5961 87.1133L81.1508 87.8281C79.9262 87.4062 78.9535 86.5391 78.4789 85.4258C78.0102 86.627 77.0258 87.582 75.7836 88.0273L75.3148 87.2891C76.8852 86.7441 77.9984 85.373 77.9984 83.8672V82.8828H78.9359V83.8672ZM77.0961 92.8086V88.6484H78.0102V89.9141H82.932V88.6484H83.8461V92.8086H77.0961ZM78.0102 92.0586H82.932V90.6523H78.0102V92.0586ZM82.932 88.1211V82.5312H83.8461V88.1211H82.932ZM88.843 85.7305C88.8312 87.4004 90.0383 89.2402 91.55 89.9609L91.0227 90.6875C89.8508 90.1133 88.8605 88.8828 88.3918 87.4707C87.9113 89 86.8684 90.3477 85.7023 90.9453L85.1398 90.2188C86.6398 89.4863 87.9289 87.5059 87.9406 85.7305V84.3711H85.5148V83.6094H91.1867V84.3711H88.843V85.7305ZM92.4641 92.9492V82.5312H93.3781V86.75H95.1242V87.5352H93.3781V92.9492H92.4641ZM104.293 82.5312V92.9492H103.414V87.4883H101.879V92.4102H101.035V82.7656H101.879V86.7266H103.414V82.5312H104.293ZM95.7734 90.3711V83.8086H99.6758V84.5703H96.6875V89.5859C98.123 89.5801 99.1133 89.5273 100.273 89.293L100.355 90.0664C99.1016 90.3242 98.041 90.3652 96.4414 90.3711H95.7734ZM111.692 83.6562V84.4062H105.481V83.6562H108.13V82.4844H109.044V83.6562H111.692ZM106.079 86.832C106.073 85.6836 107.081 84.957 108.587 84.9453C110.081 84.957 111.083 85.6836 111.095 86.832C111.083 87.9629 110.081 88.7012 108.587 88.707C107.081 88.7012 106.073 87.9629 106.079 86.832ZM106.782 90.3711V89.6211H113.602V92.9492H112.688V90.3711H106.782ZM106.958 86.832C106.952 87.5234 107.602 87.9746 108.587 87.9688C109.559 87.9746 110.216 87.5234 110.227 86.832C110.216 86.123 109.559 85.666 108.587 85.6602C107.602 85.666 106.952 86.123 106.958 86.832ZM112.688 89.0469V82.5312H113.602V85.4258H115.173V86.1992H113.602V89.0469H112.688ZM123.896 83.5859V84.7461C123.89 86.082 123.89 87.4238 123.521 89.3633L122.619 89.2578C122.988 87.418 122.988 86.0469 122.994 84.7461V84.3477H116.525V83.5859H123.896ZM115.529 91.4727V90.7109H117.884V87.2773H118.798V90.7109H120.486V87.2773H121.388V90.7109H125.021V91.4727H115.529ZM133.058 89.75C135.343 89.7441 136.632 90.3008 136.644 91.3555C136.632 92.3867 135.343 92.9258 133.058 92.9258C130.749 92.9258 129.454 92.3867 129.46 91.3555C129.454 90.3008 130.749 89.7441 133.058 89.75ZM128.312 89.0938V88.3555H132.601V87.541C130.726 87.4707 129.671 86.9668 129.671 86.0703C129.671 85.0801 130.896 84.5762 133.058 84.5703C135.214 84.5762 136.433 85.0801 136.433 86.0703C136.433 86.9668 135.384 87.4707 133.515 87.541V88.3555H137.804V89.0938H128.312ZM128.804 84.1484V83.4102H132.601V82.3906H133.515V83.4102H137.253V84.1484H128.804ZM130.398 91.3555C130.404 91.9238 131.364 92.2402 133.058 92.2344C134.745 92.2402 135.706 91.9238 135.706 91.3555C135.706 90.7637 134.745 90.4414 133.058 90.4414C131.364 90.4414 130.404 90.7637 130.398 91.3555ZM130.655 86.0703C130.65 86.5859 131.529 86.8848 133.058 86.8906C134.587 86.8848 135.454 86.5859 135.46 86.0703C135.454 85.5195 134.587 85.2207 133.058 85.2266C131.529 85.2207 130.65 85.5195 130.655 86.0703ZM143.188 92.3867C140.639 92.3809 138.57 90.3066 138.57 87.7578C138.57 85.209 140.639 83.1348 143.188 83.1289C145.742 83.1348 147.816 85.209 147.816 87.7578C147.816 90.3066 145.742 92.3809 143.188 92.3867ZM139.461 87.7578C139.461 89.8145 141.143 91.4844 143.188 91.4844C145.244 91.4844 146.92 89.8145 146.926 87.7578C146.92 85.7012 145.244 84.0254 143.188 84.0312C141.143 84.0254 139.461 85.7012 139.461 87.7578ZM158.04 87.6875V88.4258H148.536V87.6875H152.837V86.4688H149.743V83.0234H156.856V83.7617H150.645V85.7188H156.927V86.4688H153.727V87.6875H158.04ZM149.684 91.0625C149.679 89.873 151.032 89.1934 153.282 89.1875C155.514 89.1934 156.856 89.873 156.868 91.0625C156.856 92.2637 155.514 92.9375 153.282 92.9492C151.032 92.9375 149.679 92.2637 149.684 91.0625ZM150.622 91.0625C150.61 91.7949 151.612 92.2168 153.282 92.2109C154.934 92.2168 155.936 91.7949 155.942 91.0625C155.936 90.3418 154.934 89.9141 153.282 89.9141C151.612 89.9141 150.61 90.3418 150.622 91.0625Z" fill="#939393"/>
<defs>
<filter id="filter0_d_102_4915" x="0" y="0" width="347" height="119" filterUnits="userSpaceOnUse" color-interpolation-filters="sRGB">
<feFlood flood-opacity="0" result="BackgroundImageFix"/>
<feColorMatrix in="SourceAlpha" type="matrix" values="0 0 0 0 0 0 0 0 0 0 0 0 0 0 0 0 0 0 127 0" result="hardAlpha"/>
<feOffset dy="2"/>
<feGaussianBlur stdDeviation="3"/>
<feComposite in2="hardAlpha" operator="out"/>
<feColorMatrix type="matrix" values="0 0 0 0 0 0 0 0 0 0 0 0 0 0 0 0 0 0 0.1 0"/>
<feBlend mode="normal" in2="BackgroundImageFix" result="effect1_dropShadow_102_4915"/>
<feBlend mode="normal" in="SourceGraphic" in2="effect1_dropShadow_102_4915" result="shape"/>
</filter>
</defs>
</svg>
