<svg width="347" height="119" viewBox="0 0 347 119" fill="none" xmlns="http://www.w3.org/2000/svg">
<g filter="url(#filter0_d_102_4947)">
<rect x="6" y="4" width="335" height="107" rx="14" fill="white"/>
</g>
<path d="M37.0469 21.8574V34.2168H35.5977V21.8574H37.0469ZM26.1914 30.7031C27.9756 29.6162 28.7617 27.3877 28.7617 25.2344V24.4141H26.6152V23.1836H32.2207V24.4141H30.2246V25.2344C30.2246 27.3193 30.9697 29.4111 32.7402 30.4297L31.8379 31.5508C30.6963 30.874 29.9375 29.6982 29.5068 28.29C29.0693 29.8145 28.2832 31.1133 27.1211 31.8379L26.1914 30.7031ZM31.3184 27.3945V26.1641H33.0957V22.0898H34.5312V33.6152H33.0957V27.3945H31.3184ZM48.3398 22.3633V26.6562H44.8945V27.9551H49.7754V29.1855H38.5098V27.9551H43.3633V26.6562H39.9316V22.3633H48.3398ZM39.7539 31.4277V30.2246H48.3945V34.2168H46.877V31.4277H39.7539ZM41.4082 25.4531H46.8359V23.5527H41.4082V25.4531ZM56.2285 22.0488C59.0449 22.0557 60.6787 22.8008 60.6855 24.168C60.6787 25.5488 59.0449 26.2939 56.2285 26.3008C53.4189 26.2939 51.7715 25.5488 51.7715 24.168C51.7715 22.8008 53.4189 22.0557 56.2285 22.0488ZM50.6094 28.1738V26.957H61.875V28.1738H50.6094ZM51.9355 30.1289V29.0078H60.4668V32.0293H53.4395V32.9453H60.8086V34.1074H51.9492V30.9492H58.9766V30.1289H51.9355ZM53.3711 24.168C53.3643 24.8516 54.3486 25.166 56.2285 25.166C58.1357 25.166 59.1133 24.8516 59.1133 24.168C59.1133 23.5322 58.1357 23.1699 56.2285 23.1699C54.3486 23.1699 53.3643 23.5322 53.3711 24.168ZM76.3262 21.8574V28.4883H74.7949V21.8574H76.3262ZM66.25 25.3027C66.25 23.5869 67.6719 22.3975 69.5859 22.4043C71.4932 22.3975 72.915 23.5869 72.9082 25.3027C72.915 26.9912 71.4932 28.1807 69.5859 28.1738C67.6719 28.1807 66.25 26.9912 66.25 25.3027ZM67.7402 25.3027C67.7334 26.2939 68.5059 26.9229 69.5859 26.9297C70.6455 26.9229 71.418 26.2939 71.418 25.3027C71.418 24.3115 70.6455 23.6689 69.5859 23.6758C68.5059 23.6689 67.7334 24.3115 67.7402 25.3027ZM68.1504 34.0664V29.0625H69.6543V30.334H74.8086V29.0625H76.3262V34.0664H68.1504ZM69.6543 32.8359H74.8086V31.5234H69.6543V32.8359ZM84.0371 22.5957V26.3145H80.1406V27.832C82.1299 27.832 83.2578 27.7773 84.5703 27.5312L84.7207 28.7617C83.2441 29.0146 81.9658 29.0488 79.5391 29.0488H78.6367V25.1797H82.5195V23.7988H78.6094V22.5957H84.0371ZM80.0312 31.2773V30.0605H88.4805V34.2168H86.9629V31.2773H80.0312ZM84.7754 27.4355V26.2188H86.9629V24.8379H84.7754V23.6211H86.9629V21.8711H88.4805V29.4727H86.9629V27.4355H84.7754ZM99.9102 21.8574V26.7793H101.811V28.0371H99.9102V34.2168H98.4062V21.8574H99.9102ZM90.1621 24.9746V23.7578H93.0879V22.0352H94.6055V23.7578H97.4492V24.9746H90.1621ZM90.7363 28.6934C90.7227 26.9844 92.0488 25.7744 93.8535 25.7812C95.6309 25.7744 96.9502 26.9844 96.957 28.6934C96.9502 30.3955 95.6309 31.5918 93.8535 31.5918C92.0488 31.5918 90.7227 30.3955 90.7363 28.6934ZM92.1855 28.6934C92.1787 29.6982 92.8828 30.3408 93.8535 30.334C94.8037 30.3408 95.4941 29.6982 95.5078 28.6934C95.4941 27.6885 94.8037 27.0254 93.8535 27.0254C92.8828 27.0254 92.1787 27.6885 92.1855 28.6934ZM106.186 25.0977C106.192 27.0938 106.876 29.1719 108.551 30.2246L107.717 31.3867C106.603 30.7168 105.878 29.5684 105.468 28.2217C105.023 29.7051 104.23 30.9629 103.068 31.6738L102.125 30.5391C103.923 29.4521 104.716 27.2715 104.723 25.166V22.9512H106.186V25.0977ZM107.225 27.3672V26.1094H108.988V22.0762H110.424V33.6152H108.988V27.3672H107.225ZM111.531 34.2168V21.8574H112.994V34.2168H111.531ZM125.723 31.4688V32.7129H114.43V31.4688H117.041V28.3447C116.057 27.7773 115.462 26.8887 115.469 25.7949C115.462 23.8262 117.39 22.5273 120.049 22.5273C122.722 22.5273 124.663 23.8262 124.656 25.7949C124.663 26.875 124.082 27.7432 123.125 28.3105V31.4688H125.723ZM116.959 25.7949C116.952 27.0596 118.203 27.8662 120.049 27.8594C121.888 27.8662 123.166 27.0596 123.166 25.7949C123.166 24.5098 121.888 23.7236 120.049 23.7305C118.203 23.7236 116.952 24.5098 116.959 25.7949ZM118.545 31.4688H121.58V28.8916C121.108 28.9941 120.596 29.0488 120.049 29.0488C119.516 29.0488 119.01 28.9941 118.545 28.8984V31.4688ZM128.033 33.1094C127.445 33.1094 126.96 32.6309 126.967 32.043C126.96 31.4688 127.445 30.9971 128.033 30.9902C128.601 30.9971 129.086 31.4688 129.086 32.043C129.086 32.6309 128.601 33.1094 128.033 33.1094Z" fill="black"/>
<path d="M35.3164 46.5312V56.9492H34.4141V51.5586H32.9141V56.4102H32.0469V46.7656H32.9141V50.7734H34.4141V46.5312H35.3164ZM26.9492 54.2539V47.8086H27.8633V53.4336C28.8945 53.4277 30.0078 53.3516 31.2734 53.0938L31.3906 53.9141C29.9375 54.1777 28.7422 54.2539 27.5938 54.2539H26.9492ZM45.9852 51.6875V52.4492H36.493V51.6875H38.8484V50.2168C38.0164 49.8945 37.5477 49.3672 37.5477 48.6641C37.5477 47.4395 38.9539 46.7363 41.2391 46.7305C43.5066 46.7363 44.9129 47.4395 44.9187 48.6641C44.9129 49.3613 44.45 49.8887 43.6297 50.2168V51.6875H45.9852ZM37.6414 55.0859C37.6355 53.8965 38.9773 53.2402 41.2391 53.2461C43.4715 53.2402 44.8133 53.8965 44.825 55.0859C44.8133 56.2754 43.4715 56.9258 41.2391 56.9258C38.9773 56.9258 37.6355 56.2754 37.6414 55.0859ZM38.4969 48.6641C38.491 49.4258 39.534 49.8652 41.2391 49.8711C42.9266 49.8652 43.9754 49.4258 43.9812 48.6641C43.9754 47.9141 42.9266 47.457 41.2391 47.457C39.534 47.457 38.491 47.9141 38.4969 48.6641ZM38.5789 55.0859C38.5672 55.7949 39.5691 56.2168 41.2391 56.2109C42.8914 56.2168 43.8934 55.7949 43.8992 55.0859C43.8934 54.377 42.8914 53.9609 41.2391 53.9492C39.5691 53.9609 38.5672 54.377 38.5789 55.0859ZM39.7625 51.6875H42.7156V50.4629C42.2762 50.5449 41.784 50.5859 41.2391 50.5859C40.6941 50.5859 40.202 50.5449 39.7625 50.4688V51.6875ZM51.3102 46.7188C53.6246 46.7188 54.984 47.3574 54.9898 48.5117C54.984 49.6953 53.6246 50.334 51.3102 50.3398C48.984 50.334 47.6187 49.6953 47.6187 48.5117C47.6187 47.3574 48.984 46.7188 51.3102 46.7188ZM46.5641 51.793V51.043H56.0562V51.793H46.5641ZM47.7125 53.3984V52.6953H54.8375V55.0273H48.65V56.1055H55.1539V56.832H47.7359V54.3477H53.9352V53.3984H47.7125ZM48.5797 48.5117C48.568 49.2383 49.5816 49.6367 51.3102 49.6367C53.0387 49.6367 54.0465 49.2383 54.0523 48.5117C54.0465 47.8262 53.0387 47.416 51.3102 47.4102C49.5816 47.416 48.568 47.8262 48.5797 48.5117ZM67.9484 46.5312V52.1211H67.0344V46.5312H67.9484ZM59.593 49.4375C59.5871 48.0137 60.7414 47.0352 62.3234 47.0469C63.9055 47.0352 65.048 48.0137 65.0539 49.4375C65.048 50.8555 63.9055 51.834 62.3234 51.8281C60.7414 51.834 59.5871 50.8555 59.593 49.4375ZM60.4953 49.4375C60.4836 50.3867 61.2512 51.0605 62.3234 51.0664C63.384 51.0605 64.1516 50.3867 64.1516 49.4375C64.1516 48.4824 63.384 47.8145 62.3234 47.8203C61.2512 47.8145 60.4836 48.4824 60.4953 49.4375ZM61.1984 56.8086V52.6484H62.1125V53.9141H67.0344V52.6484H67.9484V56.8086H61.1984ZM62.1125 56.0586H67.0344V54.6523H62.1125V56.0586ZM74.3633 47.1758V50.0938H70.7773V51.7109C72.7344 51.7168 73.748 51.6758 74.9727 51.4531L75.0664 52.2148C73.7715 52.4258 72.7109 52.4609 70.6016 52.4609H69.8633V49.3906H73.4492V47.9141H69.8398V47.1758H74.3633ZM71.0352 54.2539V53.5039H78.0547V56.9727H77.1289V54.2539H71.0352ZM75.0547 51.0078V50.2461H77.1289V48.8398H75.0547V48.0898H77.1289V46.543H78.0547V52.9414H77.1289V51.0078H75.0547ZM87.5516 46.5312V50.832H89.2977V51.5938H87.5516V56.9492H86.6375V46.5312H87.5516ZM79.4305 48.9688V48.207H82.1141V46.6602H83.0281V48.207H85.6297V48.9688H79.4305ZM80.0281 52.2266C80.0223 50.8203 81.1004 49.8359 82.5828 49.8359C84.0535 49.8359 85.1258 50.8203 85.1375 52.2266C85.1258 53.6387 84.0535 54.6172 82.5828 54.6172C81.1004 54.6172 80.0223 53.6387 80.0281 52.2266ZM80.907 52.2266C80.9012 53.1758 81.6102 53.8438 82.5828 53.832C83.5438 53.8438 84.2469 53.1758 84.2586 52.2266C84.2469 51.2832 83.5438 50.6035 82.5828 50.6094C81.6102 50.6035 80.9012 51.2832 80.907 52.2266ZM92.6539 49.4961C92.6539 51.1543 93.4625 52.9414 94.8453 53.7617L94.318 54.4766C93.3102 53.8672 92.5895 52.7539 92.2262 51.4824C91.8453 52.8711 91.0719 54.0664 90.0289 54.6992L89.443 54.0078C90.8844 53.1641 91.7633 51.3184 91.7633 49.5312V47.5156H92.6539V49.4961ZM93.6969 51.0547V50.2695H95.4664V46.7539H96.3336V56.4219H95.4664V51.0547H93.6969ZM97.5992 56.9492V46.5312H98.4898V56.9492H97.5992ZM109.17 54.8398V55.6133H99.6312V54.8398H101.998V52.0332C101.108 51.5703 100.569 50.8203 100.569 49.8711C100.569 48.2598 102.151 47.1992 104.377 47.1875C106.604 47.1992 108.186 48.2598 108.186 49.8711C108.186 50.8027 107.664 51.541 106.803 52.0039V54.8398H109.17ZM101.459 49.8711C101.454 51.0371 102.666 51.8164 104.377 51.8164C106.071 51.8164 107.295 51.0371 107.295 49.8711C107.295 48.7051 106.071 47.9375 104.377 47.9492C102.666 47.9375 101.454 48.7051 101.459 49.8711ZM102.901 54.8398H105.877V52.3613C105.426 52.4785 104.922 52.543 104.377 52.543C103.844 52.543 103.346 52.4844 102.901 52.3672V54.8398ZM110.804 56.0703C110.394 56.0645 110.042 55.7246 110.054 55.3086C110.042 54.8984 110.394 54.5586 110.804 54.5586C111.22 54.5586 111.56 54.8984 111.554 55.3086C111.56 55.7246 111.22 56.0645 110.804 56.0703ZM124.032 46.5312V56.9492H123.13V51.5586H121.63V56.4102H120.762V46.7656H121.63V50.7734H123.13V46.5312H124.032ZM115.665 54.2539V47.8086H116.579V53.4336C117.61 53.4277 118.723 53.3516 119.989 53.0938L120.106 53.9141C118.653 54.1777 117.458 54.2539 116.309 54.2539H115.665ZM134.701 51.6875V52.4492H125.209V51.6875H127.564V50.2168C126.732 49.8945 126.263 49.3672 126.263 48.6641C126.263 47.4395 127.67 46.7363 129.955 46.7305C132.222 46.7363 133.629 47.4395 133.634 48.6641C133.629 49.3613 133.166 49.8887 132.345 50.2168V51.6875H134.701ZM126.357 55.0859C126.351 53.8965 127.693 53.2402 129.955 53.2461C132.187 53.2402 133.529 53.8965 133.541 55.0859C133.529 56.2754 132.187 56.9258 129.955 56.9258C127.693 56.9258 126.351 56.2754 126.357 55.0859ZM127.213 48.6641C127.207 49.4258 128.25 49.8652 129.955 49.8711C131.642 49.8652 132.691 49.4258 132.697 48.6641C132.691 47.9141 131.642 47.457 129.955 47.457C128.25 47.457 127.207 47.9141 127.213 48.6641ZM127.295 55.0859C127.283 55.7949 128.285 56.2168 129.955 56.2109C131.607 56.2168 132.609 55.7949 132.615 55.0859C132.609 54.377 131.607 53.9609 129.955 53.9492C128.285 53.9609 127.283 54.377 127.295 55.0859ZM128.478 51.6875H131.431V50.4629C130.992 50.5449 130.5 50.5859 129.955 50.5859C129.41 50.5859 128.918 50.5449 128.478 50.4688V51.6875ZM140.026 46.7188C142.34 46.7188 143.7 47.3574 143.705 48.5117C143.7 49.6953 142.34 50.334 140.026 50.3398C137.7 50.334 136.334 49.6953 136.334 48.5117C136.334 47.3574 137.7 46.7188 140.026 46.7188ZM135.28 51.793V51.043H144.772V51.793H135.28ZM136.428 53.3984V52.6953H143.553V55.0273H137.366V56.1055H143.87V56.832H136.452V54.3477H142.651V53.3984H136.428ZM137.295 48.5117C137.284 49.2383 138.297 49.6367 140.026 49.6367C141.754 49.6367 142.762 49.2383 142.768 48.5117C142.762 47.8262 141.754 47.416 140.026 47.4102C138.297 47.416 137.284 47.8262 137.295 48.5117ZM156.664 46.5312V52.1211H155.75V46.5312H156.664ZM148.309 49.4375C148.303 48.0137 149.457 47.0352 151.039 47.0469C152.621 47.0352 153.764 48.0137 153.77 49.4375C153.764 50.8555 152.621 51.834 151.039 51.8281C149.457 51.834 148.303 50.8555 148.309 49.4375ZM149.211 49.4375C149.199 50.3867 149.967 51.0605 151.039 51.0664C152.1 51.0605 152.867 50.3867 152.867 49.4375C152.867 48.4824 152.1 47.8145 151.039 47.8203C149.967 47.8145 149.199 48.4824 149.211 49.4375ZM149.914 56.8086V52.6484H150.828V53.9141H155.75V52.6484H156.664V56.8086H149.914ZM150.828 56.0586H155.75V54.6523H150.828V56.0586ZM163.079 47.1758V50.0938H159.493V51.7109C161.45 51.7168 162.464 51.6758 163.688 51.4531L163.782 52.2148C162.487 52.4258 161.427 52.4609 159.317 52.4609H158.579V49.3906H162.165V47.9141H158.555V47.1758H163.079ZM159.751 54.2539V53.5039H166.77V56.9727H165.845V54.2539H159.751ZM163.77 51.0078V50.2461H165.845V48.8398H163.77V48.0898H165.845V46.543H166.77V52.9414H165.845V51.0078H163.77ZM176.267 46.5312V50.832H178.013V51.5938H176.267V56.9492H175.353V46.5312H176.267ZM168.146 48.9688V48.207H170.83V46.6602H171.744V48.207H174.345V48.9688H168.146ZM168.744 52.2266C168.738 50.8203 169.816 49.8359 171.298 49.8359C172.769 49.8359 173.841 50.8203 173.853 52.2266C173.841 53.6387 172.769 54.6172 171.298 54.6172C169.816 54.6172 168.738 53.6387 168.744 52.2266ZM169.623 52.2266C169.617 53.1758 170.326 53.8438 171.298 53.832C172.259 53.8438 172.962 53.1758 172.974 52.2266C172.962 51.2832 172.259 50.6035 171.298 50.6094C170.326 50.6035 169.617 51.2832 169.623 52.2266ZM181.37 49.4961C181.37 51.1543 182.178 52.9414 183.561 53.7617L183.034 54.4766C182.026 53.8672 181.305 52.7539 180.942 51.4824C180.561 52.8711 179.788 54.0664 178.745 54.6992L178.159 54.0078C179.6 53.1641 180.479 51.3184 180.479 49.5312V47.5156H181.37V49.4961ZM182.413 51.0547V50.2695H184.182V46.7539H185.049V56.4219H184.182V51.0547H182.413ZM186.315 56.9492V46.5312H187.205V56.9492H186.315ZM197.886 54.8398V55.6133H188.347V54.8398H190.714V52.0332C189.823 51.5703 189.284 50.8203 189.284 49.8711C189.284 48.2598 190.866 47.1992 193.093 47.1875C195.32 47.1992 196.902 48.2598 196.902 49.8711C196.902 50.8027 196.38 51.541 195.519 52.0039V54.8398H197.886ZM190.175 49.8711C190.169 51.0371 191.382 51.8164 193.093 51.8164C194.786 51.8164 196.011 51.0371 196.011 49.8711C196.011 48.7051 194.786 47.9375 193.093 47.9492C191.382 47.9375 190.169 48.7051 190.175 49.8711ZM191.616 54.8398H194.593V52.3613C194.142 52.4785 193.638 52.543 193.093 52.543C192.56 52.543 192.062 52.4844 191.616 52.3672V54.8398ZM199.52 56.0703C199.109 56.0645 198.758 55.7246 198.77 55.3086C198.758 54.8984 199.109 54.5586 199.52 54.5586C199.936 54.5586 200.275 54.8984 200.27 55.3086C200.275 55.7246 199.936 56.0645 199.52 56.0703Z" fill="#4B4B4B"/>
<path d="M33.6758 83.5156V92H32.668L28.0742 85.3906H27.9922V92H26.9375V83.5156H27.957L32.5508 90.1367H32.6328V83.5156H33.6758ZM44.2625 88.0508V88.8008H40.0203V90.8398H39.1062V88.8008H34.7234V88.0508H44.2625ZM35.9422 92.7266V89.8789H36.8562V91.9531H43.1961V92.7266H35.9422ZM36.0008 87.0312V82.8711H36.9148V84.207H42.0711V82.8711H42.9852V87.0312H36.0008ZM36.9148 86.2812H42.0711V84.9102H36.9148V86.2812ZM56.1547 82.543V90.1836H55.2289V86.1875H53.0844V85.4258H55.2289V82.543H56.1547ZM47.5648 88.0977C49.1 87.5586 50.2133 86.1816 50.2133 84.6875V84.1484H47.8578V83.3867H53.4711V84.1484H51.1391V84.6875C51.1391 86.0352 52.182 87.3418 53.7055 87.8633L53.225 88.6016C52.0531 88.1738 51.1449 87.3008 50.6938 86.2227C50.2426 87.4297 49.2816 88.3848 48.0453 88.8477L47.5648 88.0977ZM49.4633 92.7266V89.4922H50.3891V91.9531H56.4477V92.7266H49.4633ZM62.1523 82.3203V93.1953H61.2852V82.3203H62.1523ZM70.0016 84.4531C70.0016 85.8066 71.0445 87.1016 72.568 87.6289L72.0875 88.3555C70.9156 87.9336 70.0074 87.0605 69.5621 85.9883C69.1109 87.1836 68.1441 88.1445 66.9078 88.6016L66.4273 87.875C67.9625 87.3242 69.0758 85.9355 69.0758 84.4648V84.0078H66.7203V83.2578H72.3336V84.0078H70.0016V84.4531ZM68.0094 90.0898V89.3281H75.0172V92.9492H74.0914V90.0898H68.0094ZM72.0055 86.0352V85.2617H74.0914V82.5312H75.0172V88.7773H74.0914V86.0352H72.0055ZM80.143 83.8672C80.1312 85.3027 81.2562 86.6035 82.8031 87.1133L82.3578 87.8281C81.1332 87.4062 80.1605 86.5391 79.6859 85.4258C79.2172 86.627 78.2328 87.582 76.9906 88.0273L76.5219 87.2891C78.0922 86.7441 79.2055 85.373 79.2055 83.8672V82.8828H80.143V83.8672ZM78.3031 92.8086V88.6484H79.2172V89.9141H84.1391V88.6484H85.0531V92.8086H78.3031ZM79.2172 92.0586H84.1391V90.6523H79.2172V92.0586ZM84.1391 88.1211V82.5312H85.0531V88.1211H84.1391ZM90.05 85.7305C90.0383 87.4004 91.2453 89.2402 92.757 89.9609L92.2297 90.6875C91.0578 90.1133 90.0676 88.8828 89.5988 87.4707C89.1184 89 88.0754 90.3477 86.9094 90.9453L86.3469 90.2188C87.8469 89.4863 89.1359 87.5059 89.1477 85.7305V84.3711H86.7219V83.6094H92.3937V84.3711H90.05V85.7305ZM93.6711 92.9492V82.5312H94.5852V86.75H96.3312V87.5352H94.5852V92.9492H93.6711ZM105.5 82.5312V92.9492H104.621V87.4883H103.086V92.4102H102.242V82.7656H103.086V86.7266H104.621V82.5312H105.5ZM96.9805 90.3711V83.8086H100.883V84.5703H97.8945V89.5859C99.3301 89.5801 100.32 89.5273 101.48 89.293L101.562 90.0664C100.309 90.3242 99.248 90.3652 97.6484 90.3711H96.9805ZM112.899 83.6562V84.4062H106.688V83.6562H109.337V82.4844H110.251V83.6562H112.899ZM107.286 86.832C107.28 85.6836 108.288 84.957 109.794 84.9453C111.288 84.957 112.29 85.6836 112.302 86.832C112.29 87.9629 111.288 88.7012 109.794 88.707C108.288 88.7012 107.28 87.9629 107.286 86.832ZM107.989 90.3711V89.6211H114.809V92.9492H113.895V90.3711H107.989ZM108.165 86.832C108.159 87.5234 108.809 87.9746 109.794 87.9688C110.766 87.9746 111.423 87.5234 111.434 86.832C111.423 86.123 110.766 85.666 109.794 85.6602C108.809 85.666 108.159 86.123 108.165 86.832ZM113.895 89.0469V82.5312H114.809V85.4258H116.38V86.1992H114.809V89.0469H113.895ZM125.103 83.5859V84.7461C125.097 86.082 125.097 87.4238 124.728 89.3633L123.826 89.2578C124.195 87.418 124.195 86.0469 124.201 84.7461V84.3477H117.732V83.5859H125.103ZM116.736 91.4727V90.7109H119.091V87.2773H120.005V90.7109H121.693V87.2773H122.595V90.7109H126.228V91.4727H116.736ZM134.265 89.75C136.55 89.7441 137.839 90.3008 137.851 91.3555C137.839 92.3867 136.55 92.9258 134.265 92.9258C131.956 92.9258 130.661 92.3867 130.667 91.3555C130.661 90.3008 131.956 89.7441 134.265 89.75ZM129.519 89.0938V88.3555H133.808V87.541C131.933 87.4707 130.878 86.9668 130.878 86.0703C130.878 85.0801 132.103 84.5762 134.265 84.5703C136.421 84.5762 137.64 85.0801 137.64 86.0703C137.64 86.9668 136.591 87.4707 134.722 87.541V88.3555H139.011V89.0938H129.519ZM130.011 84.1484V83.4102H133.808V82.3906H134.722V83.4102H138.46V84.1484H130.011ZM131.605 91.3555C131.611 91.9238 132.571 92.2402 134.265 92.2344C135.952 92.2402 136.913 91.9238 136.913 91.3555C136.913 90.7637 135.952 90.4414 134.265 90.4414C132.571 90.4414 131.611 90.7637 131.605 91.3555ZM131.863 86.0703C131.857 86.5859 132.736 86.8848 134.265 86.8906C135.794 86.8848 136.661 86.5859 136.667 86.0703C136.661 85.5195 135.794 85.2207 134.265 85.2266C132.736 85.2207 131.857 85.5195 131.863 86.0703ZM144.395 92.3867C141.846 92.3809 139.777 90.3066 139.777 87.7578C139.777 85.209 141.846 83.1348 144.395 83.1289C146.949 83.1348 149.023 85.209 149.023 87.7578C149.023 90.3066 146.949 92.3809 144.395 92.3867ZM140.668 87.7578C140.668 89.8145 142.35 91.4844 144.395 91.4844C146.451 91.4844 148.127 89.8145 148.133 87.7578C148.127 85.7012 146.451 84.0254 144.395 84.0312C142.35 84.0254 140.668 85.7012 140.668 87.7578ZM159.247 87.6875V88.4258H149.743V87.6875H154.044V86.4688H150.95V83.0234H158.063V83.7617H151.852V85.7188H158.134V86.4688H154.934V87.6875H159.247ZM150.891 91.0625C150.886 89.873 152.239 89.1934 154.489 89.1875C156.721 89.1934 158.063 89.873 158.075 91.0625C158.063 92.2637 156.721 92.9375 154.489 92.9492C152.239 92.9375 150.886 92.2637 150.891 91.0625ZM151.829 91.0625C151.817 91.7949 152.819 92.2168 154.489 92.2109C156.141 92.2168 157.143 91.7949 157.149 91.0625C157.143 90.3418 156.141 89.9141 154.489 89.9141C152.819 89.9141 151.817 90.3418 151.829 91.0625Z" fill="#939393"/>
<defs>
<filter id="filter0_d_102_4947" x="0" y="0" width="347" height="119" filterUnits="userSpaceOnUse" color-interpolation-filters="sRGB">
<feFlood flood-opacity="0" result="BackgroundImageFix"/>
<feColorMatrix in="SourceAlpha" type="matrix" values="0 0 0 0 0 0 0 0 0 0 0 0 0 0 0 0 0 0 127 0" result="hardAlpha"/>
<feOffset dy="2"/>
<feGaussianBlur stdDeviation="3"/>
<feComposite in2="hardAlpha" operator="out"/>
<feColorMatrix type="matrix" values="0 0 0 0 0 0 0 0 0 0 0 0 0 0 0 0 0 0 0.1 0"/>
<feBlend mode="normal" in2="BackgroundImageFix" result="effect1_dropShadow_102_4947"/>
<feBlend mode="normal" in="SourceGraphic" in2="effect1_dropShadow_102_4947" result="shape"/>
</filter>
</defs>
</svg>
