<svg width="347" height="119" viewBox="0 0 347 119" fill="none" xmlns="http://www.w3.org/2000/svg">
<g filter="url(#filter0_d_102_4920)">
<rect x="6" y="4" width="335" height="107" rx="14" fill="white"/>
</g>
<path d="M31.0723 25.3711C31.0723 27.3945 32.2617 29.5273 34.2578 30.3613L33.4238 31.5645C31.9609 30.9287 30.8945 29.6367 30.3271 28.0645C29.7598 29.7598 28.6729 31.1816 27.2305 31.8652L26.3555 30.6758C28.3037 29.7734 29.5205 27.4697 29.5273 25.3711V24.332H26.8066V23.0742H33.7793V24.332H31.0723V25.3711ZM35.1602 34.2168V21.8574H36.6914V34.2168H35.1602ZM48.8594 21.8574V29.1992H47.3418V26.1777H45.2363V24.9336H47.3418V21.8574H48.8594ZM38.4688 27.9688C40.458 27.2852 41.5039 25.624 41.5039 23.9902V23.8945H38.9336V22.6641H45.6055V23.8945H43.0488V23.9766C43.0488 25.4805 44.0469 26.998 45.9609 27.6406L45.1953 28.8438C43.8213 28.3789 42.8506 27.4355 42.3037 26.2734C41.7637 27.5859 40.7314 28.6523 39.2617 29.1719L38.4688 27.9688ZM40.4785 31.8652C40.4648 30.3818 42.0713 29.5137 44.6758 29.5137C47.2939 29.5137 48.8936 30.3818 48.9004 31.8652C48.8936 33.3486 47.2939 34.21 44.6758 34.2168C42.0713 34.21 40.4648 33.3486 40.4785 31.8652ZM41.9824 31.8652C41.9756 32.6309 42.96 33.0479 44.6758 33.041C46.4053 33.0479 47.3828 32.6309 47.3828 31.8652C47.3828 31.0928 46.4053 30.6758 44.6758 30.6758C42.96 30.6758 41.9756 31.0928 41.9824 31.8652ZM64.2812 21.8711V31.1816H62.7637V27.2852H60.9453V26.0547H62.7637V21.8711H64.2812ZM53.959 24.4551V23.2383H56.8301V21.8574H58.334V23.2383H61.2051V24.4551H53.959ZM54.6562 27.3262C54.6494 25.9316 55.873 24.9609 57.582 24.9609C59.2773 24.9609 60.5146 25.9316 60.5215 27.3262C60.5146 28.707 59.2773 29.6641 57.582 29.6641C55.873 29.6641 54.6494 28.707 54.6562 27.3262ZM56.1055 27.3262C56.1055 28.0576 56.7139 28.4951 57.582 28.4883C58.4434 28.4951 59.0586 28.0576 59.0586 27.3262C59.0586 26.5947 58.4434 26.1367 57.582 26.1367C56.707 26.1367 56.1055 26.5947 56.1055 27.3262ZM56.1328 33.9707V30.375H57.6777V32.7402H64.5547V33.9707H56.1328ZM72.9629 22.8145V23.9766H66.0586V22.8145H68.8203V21.7207H70.3379V22.8145H72.9629ZM66.7012 26.5059C66.6943 25.2275 67.8701 24.4004 69.5586 24.4004C71.2744 24.4004 72.4502 25.2275 72.457 26.5059C72.4502 27.7705 71.2744 28.5908 69.5586 28.5977C67.8701 28.5908 66.6943 27.7705 66.7012 26.5059ZM68.123 26.5059C68.1162 27.1348 68.7109 27.5176 69.5586 27.5176C70.4131 27.5176 71.0146 27.1348 71.0215 26.5059C71.0146 25.877 70.4131 25.501 69.5586 25.5078C68.7109 25.501 68.1162 25.877 68.123 26.5059ZM68.2324 30.3066V29.1992H76.3809V32.125H69.7637V32.9727H76.709V34.1074H68.2461V31.0859H74.8633V30.3066H68.2324ZM73.0312 27.7637V26.5879H74.8633V25.5488H73.0449V24.373H74.8633V21.8574H76.3809V28.6797H74.8633V27.7637H73.0312ZM87.4824 23.8262V25.043H81.4258V23.8262H83.7227V22.2129H85.2266V23.8262H87.4824ZM81.7812 28.5703C81.7676 26.8887 82.9092 25.6924 84.4746 25.6992C86.0469 25.6924 87.168 26.8887 87.168 28.5703C87.168 30.2861 86.0469 31.4824 84.4746 31.4824C82.9092 31.4824 81.7676 30.2861 81.7812 28.5703ZM83.1211 28.5703C83.1143 29.5684 83.6748 30.1904 84.4746 30.1836C85.2676 30.1904 85.8281 29.5684 85.8281 28.5703C85.8281 27.5996 85.2676 26.957 84.4746 26.957C83.6748 26.957 83.1143 27.5996 83.1211 28.5703ZM88.002 33.6562V22.1172H89.4238V26.9434H90.627V21.8574H92.0762V34.2168H90.627V28.1738H89.4238V33.6562H88.002ZM103.588 27.6543V28.8711H94.9199V22.9375H103.492V24.168H96.4238V27.6543H103.588ZM93.5527 32.6445V31.3867H104.846V32.6445H93.5527ZM115.947 21.8711V28.7207H114.416V21.8711H115.947ZM106.281 23.6621V22.4316H111.982V26H107.799V27.2441C109.911 27.2305 111.422 27.1895 113.186 26.8887L113.377 28.1191C111.429 28.4404 109.754 28.4883 107.361 28.4883H106.309V24.8379H110.479V23.6621H106.281ZM107.758 34.0664V29.2676H109.275V30.4707H114.43V29.2676H115.947V34.0664H107.758ZM109.275 32.8359H114.43V31.6465H109.275V32.8359ZM128.061 21.8574V34.2168H126.557V21.8574H128.061ZM118.463 31.1133V23.0605H119.967V29.8145C121.696 29.7871 123.542 29.6367 125.449 29.2539L125.641 30.5254C123.467 30.9766 121.45 31.1201 119.529 31.1133H118.463ZM139.531 21.8574V26.5469H141.432V27.791H139.531V34.2305H138.014V21.8574H139.531ZM130.357 31.209V23.0332H136.141V24.2637H131.875V29.9375C133.796 29.9307 135.32 29.835 137.016 29.541L137.193 30.8262C135.272 31.1543 133.611 31.209 131.383 31.209H130.357ZM143.455 33.1094C142.867 33.1094 142.382 32.6309 142.389 32.043C142.382 31.4688 142.867 30.9971 143.455 30.9902C144.022 30.9971 144.508 31.4688 144.508 32.043C144.508 32.6309 144.022 33.1094 143.455 33.1094Z" fill="black"/>
<path d="M35.0586 46.543V54.418H34.1328V50.9023H32.3164V50.1289H34.1328V46.543H35.0586ZM26.4336 48.5703V47.8203H29.0234V46.5312H29.9258V47.8203H32.5156V48.5703H26.4336ZM27.0547 51.0898C27.0547 49.9355 28.0566 49.1445 29.4688 49.1445C30.875 49.1445 31.8828 49.9355 31.8945 51.0898C31.8828 52.2383 30.875 53.0176 29.4688 53.0117C28.0566 53.0176 27.0547 52.2383 27.0547 51.0898ZM27.9336 51.0898C27.9336 51.8047 28.5664 52.2969 29.4688 52.2852C30.3652 52.2969 31.0039 51.8047 31.0039 51.0898C31.0039 50.375 30.3652 49.8652 29.4688 49.8711C28.5664 49.8652 27.9336 50.375 27.9336 51.0898ZM28.3203 56.7266V53.7148H29.2461V55.9531H35.293V56.7266H28.3203ZM42.3992 47.457V48.1836H36.5047V47.457H39.0359V46.4023H39.95V47.457H42.3992ZM37.1258 50.4688C37.1141 49.3789 38.075 48.6934 39.4812 48.6875C40.8934 48.6934 41.8543 49.3789 41.8602 50.4688C41.8543 51.541 40.8934 52.2266 39.4812 52.2266C38.075 52.2266 37.1141 51.541 37.1258 50.4688ZM37.9812 50.4688C37.9754 51.1191 38.5906 51.5586 39.4812 51.5586C40.3719 51.5586 40.9871 51.1191 40.993 50.4688C40.9871 49.8066 40.3719 49.3789 39.4812 49.3906C38.5906 49.3789 37.9754 49.8066 37.9812 50.4688ZM38.368 53.5625V52.8711H45.118V55.1211H39.3055V56.1289H45.4227V56.832H38.3914V54.4531H44.2039V53.5625H38.368ZM42.3875 51.4297V50.6914H44.2039V49.5781H42.3992V48.8516H44.2039V46.5312H45.118V52.3555H44.2039V51.4297H42.3875ZM51.3102 46.7188C53.6246 46.7188 54.984 47.3574 54.9898 48.5117C54.984 49.6953 53.6246 50.334 51.3102 50.3398C48.984 50.334 47.6187 49.6953 47.6187 48.5117C47.6187 47.3574 48.984 46.7188 51.3102 46.7188ZM46.5641 51.793V51.043H56.0562V51.793H46.5641ZM47.7125 53.3984V52.6953H54.8375V55.0273H48.65V56.1055H55.1539V56.832H47.7359V54.3477H53.9352V53.3984H47.7125ZM48.5797 48.5117C48.568 49.2383 49.5816 49.6367 51.3102 49.6367C53.0387 49.6367 54.0465 49.2383 54.0523 48.5117C54.0465 47.8262 53.0387 47.416 51.3102 47.4102C49.5816 47.416 48.568 47.8262 48.5797 48.5117ZM68.8391 51.5938V52.3672H64.5383V56.9609H63.6242V52.3672H59.3469V51.5938H62.0832C62.5109 49.9941 62.5871 48.7871 62.6105 48.0195H60.1086V47.2695H63.507V47.5859C63.507 48.2422 63.507 49.6133 63.0266 51.5938H66.4484C66.8117 49.9766 66.8527 48.793 66.8586 48.0195H64.2805V47.2695H67.7727V47.7266C67.7668 48.4473 67.7668 49.7363 67.3801 51.5938H68.8391ZM74.7617 47.832C74.7559 49.1152 76.502 50.1582 78.3477 50.4102L77.9844 51.1367C76.3027 50.8906 74.7266 50.0527 74.1641 48.834C73.5957 50.0527 72.0312 50.8906 70.3438 51.1367L70.0039 50.4102C71.8379 50.1582 73.5723 49.1152 73.5664 47.832V47.8086H70.2852V47.0586H78.0664V47.8086H74.7617V47.832ZM69.4062 52.6602V51.8984H78.9453V52.6602H74.7031V54.793H73.7891V52.6602H69.4062ZM70.625 56.7266V53.75H71.5508V55.9531H77.8789V56.7266H70.625ZM88.0789 46.5312V56.9492H87.1531V46.5312H88.0789ZM79.7234 48.9805V48.2305H82.407V46.6367H83.3328V48.2305H86.0281V48.9805H79.7234ZM80.3094 52.2266C80.3035 50.8203 81.3875 49.8359 82.8992 49.8359C84.3934 49.8359 85.4832 50.8203 85.4773 52.2266C85.4832 53.6387 84.3934 54.6172 82.8992 54.6172C81.3875 54.6172 80.3035 53.6387 80.3094 52.2266ZM81.1766 52.2266C81.1824 53.1758 81.9031 53.8438 82.8992 53.832C83.8836 53.8438 84.6043 53.1758 84.5984 52.2266C84.6043 51.2832 83.8836 50.6035 82.8992 50.6094C81.9031 50.6035 81.1824 51.2832 81.1766 52.2266ZM97.475 48.3359V49.0859H92.2484V48.3359H94.4164V46.8477H95.3305V48.3359H97.475ZM92.6234 52.1562C92.6234 50.7734 93.5668 49.7949 94.8617 49.7891C96.1742 49.7949 97.1117 50.7734 97.1234 52.1562C97.1117 53.5566 96.1742 54.541 94.8617 54.5469C93.5668 54.541 92.6234 53.5566 92.6234 52.1562ZM93.4437 52.1562C93.4437 53.082 94.0355 53.7441 94.8617 53.7383C95.6937 53.7441 96.3031 53.082 96.3031 52.1562C96.3031 51.2422 95.6937 50.5742 94.8617 50.5625C94.0355 50.5742 93.4437 51.2422 93.4437 52.1562ZM98.0141 56.4336V46.7891H98.8812V50.9258H100.264V46.5312H101.143V56.9492H100.264V51.6875H98.8812V56.4336H98.0141ZM110.476 46.543V49.3672H112.034V50.1289H110.476V52.8945H109.55V46.543H110.476ZM102.331 51.6875C103.146 51.6875 104.095 51.6816 105.085 51.6523V50.6914C103.784 50.5625 102.935 49.8301 102.941 48.8047C102.935 47.6562 103.978 46.8945 105.519 46.8945C107.048 46.8945 108.103 47.6562 108.109 48.8047C108.103 49.8125 107.271 50.5391 106.011 50.6855V51.6172C106.984 51.5703 107.974 51.4883 108.882 51.3477L108.952 52.0156C106.743 52.4023 104.259 52.4375 102.448 52.4375L102.331 51.6875ZM102.706 56.1289C104.042 55.6953 104.816 54.6641 104.827 53.6211V53.3516H105.706V53.6211C105.706 54.4941 106.204 55.4727 107.195 56.0234C108.179 55.4609 108.695 54.4883 108.695 53.6211V53.3516H109.585V53.6211C109.579 54.6758 110.364 55.7012 111.706 56.1289L111.249 56.832C110.224 56.4746 109.503 55.7773 109.14 54.9395C108.818 55.7773 108.179 56.5332 107.195 56.9141C106.204 56.5332 105.577 55.7832 105.261 54.9453C104.886 55.7773 104.171 56.4746 103.175 56.832L102.706 56.1289ZM103.808 48.8047C103.796 49.5254 104.488 50.0234 105.519 50.0234C106.538 50.0234 107.236 49.5254 107.241 48.8047C107.236 48.0664 106.538 47.5859 105.519 47.5859C104.488 47.5859 103.796 48.0664 103.808 48.8047ZM116 53.5156C115.994 54.4531 116.492 55.4316 117.482 56.0059C118.484 55.3789 118.994 54.3184 119 53.5156V52.8828H119.902V53.5156C119.896 54.5938 120.676 55.6777 122.035 56.1289L121.555 56.8203C120.518 56.4395 119.791 55.7129 119.439 54.834C119.111 55.6836 118.473 56.4922 117.5 56.9023C116.504 56.5156 115.859 55.748 115.543 54.8691C115.168 55.707 114.453 56.4395 113.457 56.8203L113 56.1289C114.318 55.6543 115.109 54.5234 115.121 53.5156V52.8828H116V53.5156ZM112.59 49.5664C112.59 48.1367 113.727 47.123 115.285 47.1289C116.656 47.123 117.729 47.9492 117.934 49.1562H120.125V46.5312H121.051V52.4844H120.125V49.918H117.939C117.764 51.1602 116.68 52.0039 115.285 52.0039C113.727 52.0039 112.59 51.002 112.59 49.5664ZM113.48 49.5664C113.469 50.5332 114.236 51.2363 115.285 51.2422C116.311 51.2363 117.078 50.5332 117.078 49.5664C117.078 48.5996 116.311 47.9023 115.285 47.9141C114.236 47.9023 113.469 48.5996 113.48 49.5664ZM130.911 49.6953V50.4336H123.774V46.918H124.688V49.6953H130.911ZM122.473 52.6016V51.8516H132.012V52.6016H122.473ZM123.716 56.6914V53.668H124.63V55.9297H130.97V56.6914H123.716ZM141.474 46.5312V56.9492H140.584V46.5312H141.474ZM132.966 54.4414V47.8203H136.892V48.582H133.857V53.668C135.363 53.6562 136.312 53.6035 137.431 53.3516L137.525 54.1367C136.318 54.3828 135.298 54.4355 133.623 54.4414H132.966ZM136.189 51.2891V50.5156H138.463V46.7891H139.341V56.4102H138.463V51.2891H136.189ZM144.338 55.2148L143.424 58.4023H142.557L143.202 55.2148H144.338ZM156.746 46.5312V56.9727H155.82V51.0898H153.535V50.3281H155.82V46.5312H156.746ZM148.016 54.1719C149.527 53.4395 150.787 51.4766 150.793 49.625V48.3711H148.414V47.6094H154.109V48.3711H151.719V49.625C151.725 51.3594 152.967 53.2461 154.484 53.9375L153.934 54.6758C152.744 54.0898 151.742 52.8301 151.268 51.377C150.799 52.9238 149.768 54.2656 148.578 54.8867L148.016 54.1719ZM166.817 46.543V54.2539H165.891V50.2461H163.43V52.4727H158.708V47.2344H159.622V49.0859H162.528V47.2344H163.43V49.4727H165.891V46.543H166.817ZM159.622 51.7109H162.528V49.8125H159.622V51.7109ZM160.079 56.7266V53.4922H161.005V55.9531H167.052V56.7266H160.079ZM177.181 46.5312V56.9492H176.291V46.5312H177.181ZM168.38 51.0312C168.386 48.8164 169.265 47.416 170.619 47.4102C171.884 47.416 172.74 48.6348 172.857 50.5977H174.205V46.7539H175.084V56.4219H174.205V51.3594H172.863C172.775 53.3867 171.902 54.6582 170.619 54.6523C169.265 54.6582 168.386 53.2461 168.38 51.0312ZM169.248 51.0312C169.236 52.7188 169.775 53.7852 170.619 53.7734C171.468 53.7852 172.007 52.7188 172.002 51.0312C172.007 49.3379 171.468 48.2773 170.619 48.2773C169.775 48.2773 169.236 49.3379 169.248 51.0312ZM184.761 49.7305C184.767 51.5 186.05 53.2988 187.585 53.9609L187.07 54.6875C185.851 54.1367 184.802 52.9355 184.316 51.4941C183.829 53.0234 182.775 54.3477 181.585 54.9453L181.034 54.2188C182.529 53.5039 183.829 51.5352 183.835 49.7305V48.3711H181.374V47.6094H187.245V48.3711H184.761V49.7305ZM188.698 56.9492V46.5312H189.624V56.9492H188.698ZM199.742 46.5312V52.7422H198.816V50.0117H196.719V49.25H198.816V46.5312H199.742ZM191.152 51.9102C192.699 51.3535 193.801 49.9414 193.801 48.4531V48.0664H191.445V47.293H197.059V48.0664H194.727V48.4414C194.727 49.8008 195.77 51.0957 197.293 51.6172L196.812 52.3555C195.646 51.9336 194.738 51.0547 194.287 49.9824C193.842 51.2012 192.875 52.1738 191.633 52.6484L191.152 51.9102ZM192.793 55.0039C192.787 53.7793 194.117 53.0645 196.285 53.0703C198.447 53.0645 199.777 53.7793 199.777 55.0039C199.777 56.2344 198.447 56.9375 196.285 56.9492C194.117 56.9375 192.787 56.2344 192.793 55.0039ZM193.707 55.0039C193.701 55.7598 194.686 56.2168 196.285 56.2109C197.879 56.2168 198.863 55.7598 198.863 55.0039C198.863 54.2422 197.879 53.7852 196.285 53.7852C194.686 53.7852 193.701 54.2422 193.707 55.0039ZM212.525 46.543V54.418H211.599V50.9023H209.783V50.1289H211.599V46.543H212.525ZM203.9 48.5703V47.8203H206.49V46.5312H207.392V47.8203H209.982V48.5703H203.9ZM204.521 51.0898C204.521 49.9355 205.523 49.1445 206.935 49.1445C208.341 49.1445 209.349 49.9355 209.361 51.0898C209.349 52.2383 208.341 53.0176 206.935 53.0117C205.523 53.0176 204.521 52.2383 204.521 51.0898ZM205.4 51.0898C205.4 51.8047 206.033 52.2969 206.935 52.2852C207.832 52.2969 208.47 51.8047 208.47 51.0898C208.47 50.375 207.832 49.8652 206.935 49.8711C206.033 49.8652 205.4 50.375 205.4 51.0898ZM205.787 56.7266V53.7148H206.712V55.9531H212.759V56.7266H205.787ZM219.866 47.457V48.1836H213.971V47.457H216.502V46.4023H217.416V47.457H219.866ZM214.592 50.4688C214.58 49.3789 215.541 48.6934 216.948 48.6875C218.36 48.6934 219.321 49.3789 219.327 50.4688C219.321 51.541 218.36 52.2266 216.948 52.2266C215.541 52.2266 214.58 51.541 214.592 50.4688ZM215.448 50.4688C215.442 51.1191 216.057 51.5586 216.948 51.5586C217.838 51.5586 218.454 51.1191 218.459 50.4688C218.454 49.8066 217.838 49.3789 216.948 49.3906C216.057 49.3789 215.442 49.8066 215.448 50.4688ZM215.834 53.5625V52.8711H222.584V55.1211H216.772V56.1289H222.889V56.832H215.858V54.4531H221.67V53.5625H215.834ZM219.854 51.4297V50.6914H221.67V49.5781H219.866V48.8516H221.67V46.5312H222.584V52.3555H221.67V51.4297H219.854ZM235.156 51.418V52.168H231.934V54.8633H236.281V55.6367H226.742V54.8633H231.031V52.168H227.961V47.3867H235.051V48.1367H228.887V51.418H235.156ZM241.559 46.7305C243.827 46.7363 245.233 47.457 245.239 48.6992C245.233 49.918 243.827 50.6387 241.559 50.6328C239.292 50.6387 237.868 49.918 237.868 48.6992C237.868 47.457 239.292 46.7363 241.559 46.7305ZM236.813 52.1914V51.4297H246.305V52.1914H242.005V53.3867H245.145V56.8086H237.973V53.3867H241.102V52.1914H236.813ZM238.817 48.6992C238.811 49.4609 239.872 49.9062 241.559 49.9062C243.229 49.9062 244.296 49.4609 244.302 48.6992C244.296 47.9199 243.229 47.457 241.559 47.457C239.872 47.457 238.811 47.9199 238.817 48.6992ZM238.887 56.0586H244.243V54.125H238.887V56.0586ZM258.01 51.5469V52.3086H250.815V47.5039H257.905V48.2656H251.729V51.5469H258.01ZM249.596 55.5312V54.7578H259.135V55.5312H249.596ZM268.269 46.5312V56.9727H267.355V46.5312H268.269ZM260.253 48.2656V47.5039H265.105V51.207H261.214V53.668C262.943 53.6738 264.484 53.5918 266.347 53.293L266.441 54.0664C264.525 54.3652 262.943 54.4414 261.144 54.4414H260.277V50.457H264.179V48.2656H260.253ZM278.094 47.5859V48.6289C278.082 49.9062 278.082 51.3359 277.707 53.4336L276.77 53.3281C277.162 51.3359 277.162 49.877 277.168 48.6289V48.3477H270.746V47.5859H278.094ZM269.738 55.4727V54.7109H273.465V50.9844H274.367V54.7109H279.23V55.4727H269.738ZM284.244 46.9883V48.4297H285.943V46.9883H286.845V51.4883H283.353V46.9883H284.244ZM282.509 53.4453V52.6719H292.048V53.4453H287.701V56.9492H286.798V53.4453H282.509ZM284.244 50.7383H285.943V49.1797H284.244V50.7383ZM287.689 51.4883V46.9883H288.591V48.4297H290.291V46.9883H291.193V51.4883H287.689ZM288.591 50.7383H290.291V49.1797H288.591V50.7383ZM302.096 51.5703V52.332H292.592V51.5703H302.096ZM293.342 56.1758C295.229 55.8945 296.875 54.8633 296.881 53.4688V53.1289H297.819V53.4688C297.813 54.8633 299.465 55.8945 301.358 56.1758L301.006 56.8906C299.424 56.627 297.971 55.8887 297.35 54.752C296.723 55.8887 295.276 56.627 293.694 56.8906L293.342 56.1758ZM293.799 50.4922V46.918H300.913V47.6797H294.713V49.7422H301.018V50.4922H293.799ZM310.808 46.5312V49.3086H312.378V50.0938H310.808V52.8125H309.894V46.5312H310.808ZM302.687 48.4062V47.6445H305.335V46.4492H306.249V47.6445H308.898V48.4062H302.687ZM303.284 50.7734C303.279 49.6602 304.28 48.9219 305.792 48.9219C307.286 48.9219 308.288 49.6602 308.3 50.7734C308.288 51.9043 307.286 52.6367 305.792 52.6367C304.28 52.6367 303.279 51.9043 303.284 50.7734ZM304.163 50.7734C304.157 51.4824 304.808 51.9219 305.792 51.9336C306.765 51.9219 307.421 51.4824 307.433 50.7734C307.421 50.0938 306.765 49.6367 305.792 49.6367C304.808 49.6367 304.157 50.0938 304.163 50.7734ZM304.234 56.8086V53.4102H310.808V56.8086H304.234ZM305.136 56.0586H309.894V54.1484H305.136V56.0586ZM31.168 60.7188C33.4824 60.7188 34.8418 61.3574 34.8477 62.5117C34.8418 63.6953 33.4824 64.334 31.168 64.3398C28.8418 64.334 27.4766 63.6953 27.4766 62.5117C27.4766 61.3574 28.8418 60.7188 31.168 60.7188ZM26.4219 65.793V65.043H35.9141V65.793H26.4219ZM27.5703 67.3984V66.6953H34.6953V69.0273H28.5078V70.1055H35.0117V70.832H27.5938V68.3477H33.793V67.3984H27.5703ZM28.4375 62.5117C28.4258 63.2383 29.4395 63.6367 31.168 63.6367C32.8965 63.6367 33.9043 63.2383 33.9102 62.5117C33.9043 61.8262 32.8965 61.416 31.168 61.4102C29.4395 61.416 28.4258 61.8262 28.4375 62.5117ZM47.6422 65.2539V66.0156H40.3766V61.4453H41.3023V65.2539H47.6422ZM39.2047 69.5078V68.7344H48.7437V69.5078H39.2047ZM52.3461 61.2461C52.352 63.2969 51.6781 64.7441 49.932 65.9688L49.3227 65.3711C50.6703 64.4746 51.3266 63.4844 51.473 61.9961H49.5922V61.2461H52.3461ZM49.7914 70.1406C51.1156 69.666 51.9184 68.5352 51.9242 67.5391V66.8711H52.8148V67.5391C52.809 68.4707 53.2953 69.4551 54.2855 70.0293C55.2875 69.4023 55.7973 68.3301 55.8031 67.5391V66.8711H56.6938V67.5391C56.6938 68.6172 57.473 69.7012 58.8148 70.1406L58.3461 70.832C57.309 70.4629 56.5883 69.7246 56.2309 68.8457C55.9086 69.6953 55.2758 70.5156 54.3031 70.9258C53.2953 70.5332 52.6566 69.7656 52.3461 68.8809C51.9711 69.7246 51.2563 70.457 50.2719 70.832L49.7914 70.1406ZM52.2875 65.875C53.6527 64.8145 54.227 63.584 54.3383 61.9961H52.7445V61.2461H55.2289C55.2289 61.6035 55.2113 61.9551 55.1703 62.2891H56.9633V60.543H57.8773V66.5312H56.9633V65.2773H54.9242V64.5273H56.9633V63.0391H55.0473C54.766 64.3281 54.1332 65.4414 52.9438 66.4141L52.2875 65.875ZM61.468 66.7891V68.0078H66.6711V66.7891H67.5969V70.8086H60.5539V66.7891H61.468ZM59.3469 66.0508V65.2891H68.8391V66.0508H59.3469ZM59.8859 63.8125C61.7434 63.5605 63.6242 62.4648 63.6242 61.1406V60.6484H64.5734V61.1406C64.5676 62.4238 66.466 63.5781 68.3 63.8125L67.9602 64.5508C66.3488 64.3105 64.7609 63.4902 64.0988 62.3242C63.4367 63.4961 61.843 64.3105 60.2375 64.5508L59.8859 63.8125ZM61.468 70.0703H66.6711V68.7344H61.468V70.0703ZM78.0078 60.5312V70.9492H77.0938V60.5312H78.0078ZM70.0977 68.2656V61.5625H71V67.4688C72.5938 67.457 74.2344 67.334 75.9805 66.9648L76.1094 67.75C74.2578 68.1367 72.6113 68.2656 70.9414 68.2656H70.0977ZM87.5516 60.5312V64.6562H89.2977V65.4297H87.5516V70.9727H86.6375V60.5312H87.5516ZM79.9461 68.3594V61.5508H84.8094V62.3125H80.8602V67.5859C82.7469 67.5801 84.077 67.498 85.6297 67.2109L85.7469 68.0078C84.1121 68.3008 82.7469 68.3594 80.7664 68.3594H79.9461ZM90.6617 70.0703C90.2516 70.0645 89.9 69.7246 89.9117 69.3086C89.9 68.8984 90.2516 68.5586 90.6617 68.5586C91.0777 68.5586 91.4176 68.8984 91.4117 69.3086C91.4176 69.7246 91.0777 70.0645 90.6617 70.0703ZM97.7961 61.3398C99.2141 61.3457 100.239 62.5645 100.38 64.5156H102.718V60.5312H103.632V70.9727H102.718V65.2773H100.392C100.292 67.3223 99.2492 68.5996 97.7961 68.5938C96.2551 68.5996 95.177 67.1934 95.1828 64.9727C95.177 62.7578 96.2551 61.3457 97.7961 61.3398ZM96.0617 64.9727C96.0676 66.666 96.7707 67.7793 97.7961 67.7734C98.8156 67.7793 99.5305 66.666 99.5305 64.9727C99.5305 63.2793 98.8156 62.166 97.7961 62.1602C96.7707 62.166 96.0676 63.2793 96.0617 64.9727ZM113.855 60.5312V70.9492H112.93V65.0664H111.195V64.293H112.93V60.5312H113.855ZM104.984 68.1367C106.268 67.1816 106.619 65.1777 106.625 63.7188V62.3125H105.324V61.5508H108.324V62.3125H107.504V63.7188C107.498 64.8438 107.674 66.5371 108.529 67.6738C109.361 66.5664 109.543 64.8965 109.555 63.7188V62.3125H108.734V61.5508H111.652V62.3125H110.434V63.7188C110.439 65.2422 110.785 67.1992 112.074 68.1367L111.477 68.793C110.709 68.2129 110.246 67.2344 109.994 66.168C109.76 67.2578 109.326 68.2832 108.535 68.8984C107.727 68.2715 107.287 67.2227 107.053 66.1328C106.801 67.2109 106.35 68.2012 105.582 68.793L104.984 68.1367ZM123.376 61.2109V62.125C123.376 63.1094 123.376 64.1934 123.077 65.6875H124.63V66.4492H120.329V70.9727H119.403V66.4492H115.137V65.6875H122.145C122.462 64.1875 122.462 63.0977 122.462 62.125V61.9727H116.333V61.2109H123.376ZM136.557 60.5312V70.9727H135.631V65.0898H133.346V64.3281H135.631V60.5312H136.557ZM127.827 68.1719C129.338 67.4395 130.598 65.4766 130.604 63.625V62.3711H128.225V61.6094H133.92V62.3711H131.53V63.625C131.536 65.3594 132.778 67.2461 134.295 67.9375L133.745 68.6758C132.555 68.0898 131.553 66.8301 131.079 65.377C130.61 66.9238 129.579 68.2656 128.389 68.8867L127.827 68.1719ZM146.78 60.5312V70.9492H145.855V65.0664H144.12V64.293H145.855V60.5312H146.78ZM137.909 68.1367C139.193 67.1816 139.544 65.1777 139.55 63.7188V62.3125H138.249V61.5508H141.249V62.3125H140.429V63.7188C140.423 64.8438 140.599 66.5371 141.454 67.6738C142.286 66.5664 142.468 64.8965 142.48 63.7188V62.3125H141.659V61.5508H144.577V62.3125H143.359V63.7188C143.364 65.2422 143.71 67.1992 144.999 68.1367L144.402 68.793C143.634 68.2129 143.171 67.2344 142.919 66.168C142.685 67.2578 142.251 68.2832 141.46 68.8984C140.652 68.2715 140.212 67.2227 139.978 66.1328C139.726 67.2109 139.275 68.2012 138.507 68.793L137.909 68.1367ZM156.301 61.2109V62.125C156.301 63.1094 156.301 64.1934 156.002 65.6875H157.555V66.4492H153.254V70.9727H152.328V66.4492H148.062V65.6875H155.07C155.387 64.1875 155.387 63.0977 155.387 62.125V61.9727H149.258V61.2109H156.301ZM170.537 61.8906V62.6406H168.99V63.8125H170.537V64.5508H168.99V65.9805H168.076V60.5312H168.99V61.8906H170.537ZM160.787 65.125C162.363 64.5859 163.429 63.2852 163.435 61.7266V60.8945H164.337V61.7266C164.337 63.127 165.404 64.3457 166.927 64.832L166.435 65.5469C165.269 65.1426 164.361 64.3398 163.91 63.291C163.464 64.498 162.504 65.4121 161.255 65.8633L160.787 65.125ZM162.345 67.1875V66.4492H168.99V68.9336H163.271V70.082H169.377V70.832H162.369V68.2305H168.076V67.1875H162.345ZM180.666 63.2266V64.0117H178.979V66.2734H180.666V67.0469H178.979V70.9727H178.065V60.5312H178.979V63.2266H180.666ZM171.327 62.2656V61.5039H176.061V65.2305H172.264V67.668C174.198 67.6738 175.551 67.5977 177.127 67.3047L177.221 68.0664C175.58 68.3652 174.192 68.4414 172.182 68.4531H171.35V64.4688H175.147V62.2656H171.327ZM190.679 61.8906V62.6406H189.132V63.8125H190.679V64.5508H189.132V65.9805H188.218V60.5312H189.132V61.8906H190.679ZM180.929 65.125C182.505 64.5859 183.571 63.2852 183.577 61.7266V60.8945H184.48V61.7266C184.48 63.127 185.546 64.3457 187.07 64.832L186.577 65.5469C185.411 65.1426 184.503 64.3398 184.052 63.291C183.607 64.498 182.646 65.4121 181.398 65.8633L180.929 65.125ZM182.488 67.1875V66.4492H189.132V68.9336H183.413V70.082H189.519V70.832H182.511V68.2305H188.218V67.1875H182.488ZM199.121 60.5312V64.6797H200.867V65.4531H199.121V70.9727H198.207V60.5312H199.121ZM191.469 62.2656V61.5039H196.203V65.2305H192.406V67.668C194.34 67.6738 195.693 67.5977 197.27 67.3047L197.363 68.0664C195.723 68.3652 194.334 68.4414 192.324 68.4531H191.492V64.4688H195.289V62.2656H191.469ZM202.231 70.0703C201.821 70.0645 201.47 69.7246 201.481 69.3086C201.47 68.8984 201.821 68.5586 202.231 68.5586C202.647 68.5586 202.987 68.8984 202.981 69.3086C202.987 69.7246 202.647 70.0645 202.231 70.0703Z" fill="#4B4B4B"/>
<path d="M45.7266 92.1172C44.0391 92.1172 42.8262 91.2148 42.7734 89.8672H43.8398C43.8984 90.6758 44.7012 91.1797 45.7148 91.1797C46.834 91.1797 47.6426 90.5762 47.6484 89.6914C47.6426 88.7656 46.9043 88.1152 45.5859 88.1094H44.8945V87.1836H45.5859C46.6172 87.1836 47.3379 86.6035 47.332 85.7305C47.3379 84.8809 46.7168 84.3184 45.75 84.3125C44.8418 84.3184 44.0156 84.8164 43.9688 85.6484H42.9492C43.002 84.3008 44.2559 83.3984 45.7617 83.3984C47.3789 83.3984 48.3633 84.459 48.3516 85.6719C48.3633 86.6387 47.8008 87.3418 46.9102 87.5938V87.6523C48.0176 87.8223 48.6855 88.6133 48.6797 89.6914C48.6855 91.0859 47.4199 92.1172 45.7266 92.1172Z" fill="#4B4B4B"/>
<path d="M33.4189 91.1657C36.8063 91.1284 38.5 89.9527 38.5 87.0833C38.5 84.1667 36.75 83 33.25 83C29.75 83 28 84.1667 28 87.0833C28 88.8783 28.6628 90.0105 29.9884 90.6158L29.1667 92.9167L33.4189 91.1657Z" stroke="#FF0A00" stroke-linecap="round" stroke-linejoin="round"/>
<path d="M69.0664 92L72.957 84.5117V84.4531H68.4688V83.5156H74.0469V84.5L70.168 92H69.0664Z" fill="#4B4B4B"/>
<path d="M63.1864 84.8755C64.2712 85.9616 64.2712 87.7225 63.1864 88.8086L59.7075 92.2916C59.3169 92.6827 58.6831 92.6827 58.2925 92.2916L54.8136 88.8086C53.7288 87.7225 53.7288 85.9616 54.8136 84.8755C55.676 84.012 56.717 83.7477 57.7674 84.2608C58.1843 84.4645 58.7309 84.8755 59 85.4124C59.2691 84.8755 59.8157 84.4645 60.2326 84.2608C61.283 83.7477 62.324 84.012 63.1864 84.8755Z" stroke="#FF0A00" stroke-linecap="round" stroke-linejoin="round"/>
<path d="M84.0664 92L87.957 84.5117V84.4531H83.4688V83.5156H89.0469V84.5L85.168 92H84.0664ZM99.2703 88.0508V88.8008H95.0281V90.8398H94.1141V88.8008H89.7312V88.0508H99.2703ZM90.95 92.7266V89.8789H91.8641V91.9531H98.2039V92.7266H90.95ZM91.0086 87.0312V82.8711H91.9227V84.207H97.0789V82.8711H97.993V87.0312H91.0086ZM91.9227 86.2812H97.0789V84.9102H91.9227V86.2812ZM111.163 82.543V90.1836H110.237V86.1875H108.092V85.4258H110.237V82.543H111.163ZM102.573 88.0977C104.108 87.5586 105.221 86.1816 105.221 84.6875V84.1484H102.866V83.3867H108.479V84.1484H106.147V84.6875C106.147 86.0352 107.19 87.3418 108.713 87.8633L108.233 88.6016C107.061 88.1738 106.153 87.3008 105.702 86.2227C105.25 87.4297 104.289 88.3848 103.053 88.8477L102.573 88.0977ZM104.471 92.7266V89.4922H105.397V91.9531H111.455V92.7266H104.471ZM117.16 82.3203V93.1953H116.293V82.3203H117.16ZM125.009 84.4531C125.009 85.8066 126.052 87.1016 127.576 87.6289L127.095 88.3555C125.923 87.9336 125.015 87.0605 124.57 85.9883C124.119 87.1836 123.152 88.1445 121.916 88.6016L121.435 87.875C122.97 87.3242 124.084 85.9355 124.084 84.4648V84.0078H121.728V83.2578H127.341V84.0078H125.009V84.4531ZM123.017 90.0898V89.3281H130.025V92.9492H129.099V90.0898H123.017ZM127.013 86.0352V85.2617H129.099V82.5312H130.025V88.7773H129.099V86.0352H127.013ZM135.151 83.8672C135.139 85.3027 136.264 86.6035 137.811 87.1133L137.366 87.8281C136.141 87.4062 135.168 86.5391 134.694 85.4258C134.225 86.627 133.241 87.582 131.998 88.0273L131.53 87.2891C133.1 86.7441 134.213 85.373 134.213 83.8672V82.8828H135.151V83.8672ZM133.311 92.8086V88.6484H134.225V89.9141H139.147V88.6484H140.061V92.8086H133.311ZM134.225 92.0586H139.147V90.6523H134.225V92.0586ZM139.147 88.1211V82.5312H140.061V88.1211H139.147ZM145.058 85.7305C145.046 87.4004 146.253 89.2402 147.765 89.9609L147.237 90.6875C146.066 90.1133 145.075 88.8828 144.607 87.4707C144.126 89 143.083 90.3477 141.917 90.9453L141.355 90.2188C142.855 89.4863 144.144 87.5059 144.155 85.7305V84.3711H141.73V83.6094H147.402V84.3711H145.058V85.7305ZM148.679 92.9492V82.5312H149.593V86.75H151.339V87.5352H149.593V92.9492H148.679ZM160.508 82.5312V92.9492H159.629V87.4883H158.094V92.4102H157.25V82.7656H158.094V86.7266H159.629V82.5312H160.508ZM151.988 90.3711V83.8086H155.891V84.5703H152.902V89.5859C154.338 89.5801 155.328 89.5273 156.488 89.293L156.57 90.0664C155.316 90.3242 154.256 90.3652 152.656 90.3711H151.988ZM167.907 83.6562V84.4062H161.696V83.6562H164.345V82.4844H165.259V83.6562H167.907ZM162.294 86.832C162.288 85.6836 163.296 84.957 164.802 84.9453C166.296 84.957 167.298 85.6836 167.309 86.832C167.298 87.9629 166.296 88.7012 164.802 88.707C163.296 88.7012 162.288 87.9629 162.294 86.832ZM162.997 90.3711V89.6211H169.817V92.9492H168.903V90.3711H162.997ZM163.173 86.832C163.167 87.5234 163.817 87.9746 164.802 87.9688C165.774 87.9746 166.43 87.5234 166.442 86.832C166.43 86.123 165.774 85.666 164.802 85.6602C163.817 85.666 163.167 86.123 163.173 86.832ZM168.903 89.0469V82.5312H169.817V85.4258H171.387V86.1992H169.817V89.0469H168.903ZM180.111 83.5859V84.7461C180.105 86.082 180.105 87.4238 179.736 89.3633L178.834 89.2578C179.203 87.418 179.203 86.0469 179.209 84.7461V84.3477H172.74V83.5859H180.111ZM171.744 91.4727V90.7109H174.099V87.2773H175.013V90.7109H176.701V87.2773H177.603V90.7109H181.236V91.4727H171.744ZM189.273 89.75C191.558 89.7441 192.847 90.3008 192.859 91.3555C192.847 92.3867 191.558 92.9258 189.273 92.9258C186.964 92.9258 185.669 92.3867 185.675 91.3555C185.669 90.3008 186.964 89.7441 189.273 89.75ZM184.527 89.0938V88.3555H188.816V87.541C186.941 87.4707 185.886 86.9668 185.886 86.0703C185.886 85.0801 187.111 84.5762 189.273 84.5703C191.429 84.5762 192.648 85.0801 192.648 86.0703C192.648 86.9668 191.599 87.4707 189.73 87.541V88.3555H194.019V89.0938H184.527ZM185.019 84.1484V83.4102H188.816V82.3906H189.73V83.4102H193.468V84.1484H185.019ZM186.613 91.3555C186.618 91.9238 187.579 92.2402 189.273 92.2344C190.96 92.2402 191.921 91.9238 191.921 91.3555C191.921 90.7637 190.96 90.4414 189.273 90.4414C187.579 90.4414 186.618 90.7637 186.613 91.3555ZM186.87 86.0703C186.864 86.5859 187.743 86.8848 189.273 86.8906C190.802 86.8848 191.669 86.5859 191.675 86.0703C191.669 85.5195 190.802 85.2207 189.273 85.2266C187.743 85.2207 186.864 85.5195 186.87 86.0703ZM199.402 92.3867C196.854 92.3809 194.785 90.3066 194.785 87.7578C194.785 85.209 196.854 83.1348 199.402 83.1289C201.957 83.1348 204.031 85.209 204.031 87.7578C204.031 90.3066 201.957 92.3809 199.402 92.3867ZM195.676 87.7578C195.676 89.8145 197.357 91.4844 199.402 91.4844C201.459 91.4844 203.135 89.8145 203.141 87.7578C203.135 85.7012 201.459 84.0254 199.402 84.0312C197.357 84.0254 195.676 85.7012 195.676 87.7578ZM214.255 87.6875V88.4258H204.751V87.6875H209.052V86.4688H205.958V83.0234H213.071V83.7617H206.86V85.7188H213.141V86.4688H209.942V87.6875H214.255ZM205.899 91.0625C205.893 89.873 207.247 89.1934 209.497 89.1875C211.729 89.1934 213.071 89.873 213.083 91.0625C213.071 92.2637 211.729 92.9375 209.497 92.9492C207.247 92.9375 205.893 92.2637 205.899 91.0625ZM206.837 91.0625C206.825 91.7949 207.827 92.2168 209.497 92.2109C211.149 92.2168 212.151 91.7949 212.157 91.0625C212.151 90.3418 211.149 89.9141 209.497 89.9141C207.827 89.9141 206.825 90.3418 206.837 91.0625Z" fill="#939393"/>
<defs>
<filter id="filter0_d_102_4920" x="0" y="0" width="347" height="119" filterUnits="userSpaceOnUse" color-interpolation-filters="sRGB">
<feFlood flood-opacity="0" result="BackgroundImageFix"/>
<feColorMatrix in="SourceAlpha" type="matrix" values="0 0 0 0 0 0 0 0 0 0 0 0 0 0 0 0 0 0 127 0" result="hardAlpha"/>
<feOffset dy="2"/>
<feGaussianBlur stdDeviation="3"/>
<feComposite in2="hardAlpha" operator="out"/>
<feColorMatrix type="matrix" values="0 0 0 0 0 0 0 0 0 0 0 0 0 0 0 0 0 0 0.1 0"/>
<feBlend mode="normal" in2="BackgroundImageFix" result="effect1_dropShadow_102_4920"/>
<feBlend mode="normal" in="SourceGraphic" in2="effect1_dropShadow_102_4920" result="shape"/>
</filter>
</defs>
</svg>
