<svg width="347" height="119" viewBox="0 0 347 119" fill="none" xmlns="http://www.w3.org/2000/svg">
<g filter="url(#filter0_d_102_4937)">
<rect x="6" y="4" width="335" height="107" rx="14" fill="white"/>
</g>
<path d="M31.0723 25.3711C31.0723 27.3945 32.2617 29.5273 34.2578 30.3613L33.4238 31.5645C31.9609 30.9287 30.8945 29.6367 30.3271 28.0645C29.7598 29.7598 28.6729 31.1816 27.2305 31.8652L26.3555 30.6758C28.3037 29.7734 29.5205 27.4697 29.5273 25.3711V24.332H26.8066V23.0742H33.7793V24.332H31.0723V25.3711ZM35.1602 34.2168V21.8574H36.6914V34.2168H35.1602ZM48.8594 21.8574V29.1992H47.3418V26.1777H45.2363V24.9336H47.3418V21.8574H48.8594ZM38.4688 27.9688C40.458 27.2852 41.5039 25.624 41.5039 23.9902V23.8945H38.9336V22.6641H45.6055V23.8945H43.0488V23.9766C43.0488 25.4805 44.0469 26.998 45.9609 27.6406L45.1953 28.8438C43.8213 28.3789 42.8506 27.4355 42.3037 26.2734C41.7637 27.5859 40.7314 28.6523 39.2617 29.1719L38.4688 27.9688ZM40.4785 31.8652C40.4648 30.3818 42.0713 29.5137 44.6758 29.5137C47.2939 29.5137 48.8936 30.3818 48.9004 31.8652C48.8936 33.3486 47.2939 34.21 44.6758 34.2168C42.0713 34.21 40.4648 33.3486 40.4785 31.8652ZM41.9824 31.8652C41.9756 32.6309 42.96 33.0479 44.6758 33.041C46.4053 33.0479 47.3828 32.6309 47.3828 31.8652C47.3828 31.0928 46.4053 30.6758 44.6758 30.6758C42.96 30.6758 41.9756 31.0928 41.9824 31.8652ZM64.2812 21.8711V31.1816H62.7637V27.2852H60.9453V26.0547H62.7637V21.8711H64.2812ZM53.959 24.4551V23.2383H56.8301V21.8574H58.334V23.2383H61.2051V24.4551H53.959ZM54.6562 27.3262C54.6494 25.9316 55.873 24.9609 57.582 24.9609C59.2773 24.9609 60.5146 25.9316 60.5215 27.3262C60.5146 28.707 59.2773 29.6641 57.582 29.6641C55.873 29.6641 54.6494 28.707 54.6562 27.3262ZM56.1055 27.3262C56.1055 28.0576 56.7139 28.4951 57.582 28.4883C58.4434 28.4951 59.0586 28.0576 59.0586 27.3262C59.0586 26.5947 58.4434 26.1367 57.582 26.1367C56.707 26.1367 56.1055 26.5947 56.1055 27.3262ZM56.1328 33.9707V30.375H57.6777V32.7402H64.5547V33.9707H56.1328ZM72.9629 22.8145V23.9766H66.0586V22.8145H68.8203V21.7207H70.3379V22.8145H72.9629ZM66.7012 26.5059C66.6943 25.2275 67.8701 24.4004 69.5586 24.4004C71.2744 24.4004 72.4502 25.2275 72.457 26.5059C72.4502 27.7705 71.2744 28.5908 69.5586 28.5977C67.8701 28.5908 66.6943 27.7705 66.7012 26.5059ZM68.123 26.5059C68.1162 27.1348 68.7109 27.5176 69.5586 27.5176C70.4131 27.5176 71.0146 27.1348 71.0215 26.5059C71.0146 25.877 70.4131 25.501 69.5586 25.5078C68.7109 25.501 68.1162 25.877 68.123 26.5059ZM68.2324 30.3066V29.1992H76.3809V32.125H69.7637V32.9727H76.709V34.1074H68.2461V31.0859H74.8633V30.3066H68.2324ZM73.0312 27.7637V26.5879H74.8633V25.5488H73.0449V24.373H74.8633V21.8574H76.3809V28.6797H74.8633V27.7637H73.0312ZM88.7949 21.8574V34.2168H87.332V21.8574H88.7949ZM78.2539 27.2031C78.2539 24.4824 79.3066 22.7939 80.9199 22.8008C82.417 22.7939 83.4355 24.1953 83.6133 26.5059H84.8027V22.0762H86.252V33.6152H84.8027V27.7363H83.627C83.4834 30.1494 82.4512 31.626 80.9199 31.6191C79.3066 31.626 78.2539 29.9307 78.2539 27.2031ZM79.6621 27.2031C79.6553 29.1377 80.1338 30.1768 80.9199 30.1699C81.7402 30.1768 82.2256 29.1377 82.2324 27.2031C82.2256 25.2754 81.7402 24.2295 80.9199 24.2363C80.1338 24.2295 79.6553 25.2754 79.6621 27.2031ZM104.189 21.8574V34.2168H102.74V27.9141H101.346V33.5879H99.9512V22.0898H101.346V26.6973H102.74V21.8574H104.189ZM93.9355 31.332V23.3203H98.5566V24.5508H95.4668V30.0469C96.8066 30.0332 97.9141 29.9648 99.1719 29.7324L99.2812 30.9766C97.7842 31.2773 96.4922 31.3184 94.7695 31.332H93.9355ZM111.682 23.8262V25.043H105.625V23.8262H107.922V22.2129H109.426V23.8262H111.682ZM105.98 28.5703C105.967 26.8887 107.108 25.6924 108.674 25.6992C110.246 25.6924 111.367 26.8887 111.367 28.5703C111.367 30.2861 110.246 31.4824 108.674 31.4824C107.108 31.4824 105.967 30.2861 105.98 28.5703ZM107.32 28.5703C107.313 29.5684 107.874 30.1904 108.674 30.1836C109.467 30.1904 110.027 29.5684 110.027 28.5703C110.027 27.5996 109.467 26.957 108.674 26.957C107.874 26.957 107.313 27.5996 107.32 28.5703ZM112.201 33.6562V22.1172H113.623V26.9434H114.826V21.8574H116.275V34.2168H114.826V28.1738H113.623V33.6562H112.201ZM124.451 22.7598C126.119 22.7598 127.356 24.1543 127.575 26.4102H129.934V21.8574H131.438V34.2305H129.934V27.6406H127.589C127.425 30.0264 126.167 31.4961 124.451 31.4961C122.592 31.4961 121.272 29.8076 121.279 27.1211C121.272 24.4551 122.592 22.7598 124.451 22.7598ZM122.742 27.1211C122.735 29.0215 123.433 30.1221 124.451 30.1289C125.477 30.1221 126.167 29.0215 126.174 27.1211C126.167 25.2344 125.477 24.127 124.451 24.127C123.433 24.127 122.735 25.2344 122.742 27.1211ZM143.838 29.1172V30.2793H134.801V29.1172H138.574V28.0645H140.092V29.1172H143.838ZM133.42 27.627V22.4043H136.619V23.5938H134.91V26.4307C135.498 26.4033 136.093 26.3418 136.756 26.2051L136.865 27.3945C135.785 27.6201 134.958 27.627 133.994 27.627H133.42ZM135.703 32.4531C135.696 31.3457 137.043 30.7168 139.299 30.7168C141.555 30.7168 142.895 31.3457 142.895 32.4531C142.895 33.6016 141.555 34.21 139.299 34.2168C137.043 34.21 135.696 33.6016 135.703 32.4531ZM137.234 27.627V22.4043H140.693V23.5938H138.738V26.4375C139.688 26.417 140.317 26.3555 141.049 26.1914L141.172 27.3945C140.215 27.6064 139.415 27.627 137.877 27.627H137.234ZM137.316 32.4531C137.316 32.9316 138.034 33.1641 139.299 33.1641C140.557 33.1641 141.254 32.9316 141.268 32.4531C141.254 32.002 140.557 31.7764 139.299 31.7695C138.034 31.7764 137.316 32.002 137.316 32.4531ZM140.27 25.4805V24.3184H142.143V21.8574H143.633V28.4473H142.143V25.4805H140.27ZM155.938 21.8574V34.2168H154.488V21.8574H155.938ZM145.178 30.5254C147.734 29.0146 148.91 27.0801 149.143 24.5918H145.807V23.3613H150.646C150.646 24.5576 150.496 25.6787 150.161 26.7246H151.877V22.1582H153.312V33.6289H151.877V27.9414H149.662C148.944 29.3564 147.782 30.5938 146.039 31.6055L145.178 30.5254ZM164.551 24.1543C164.558 25.4873 165.337 26.834 166.957 27.4492L166.15 28.6113C165.05 28.1943 164.284 27.4014 163.84 26.4443C163.389 27.5449 162.582 28.4883 161.406 28.9805L160.586 27.8184C162.288 27.0664 163.081 25.5215 163.088 24.1543V22.623H164.551V24.1543ZM162.855 31.9199C162.849 30.498 164.489 29.6504 167.094 29.6504C169.678 29.6504 171.325 30.498 171.332 31.9199C171.325 33.3486 169.678 34.2031 167.094 34.2031C164.489 34.2031 162.849 33.3486 162.855 31.9199ZM164.373 31.9199C164.366 32.6514 165.378 33.0479 167.094 33.041C168.782 33.0479 169.794 32.6514 169.801 31.9199C169.794 31.1953 168.782 30.7988 167.094 30.7988C165.378 30.7988 164.366 31.1953 164.373 31.9199ZM167.162 29.0625V22.1035H168.584V24.9883H169.814V21.8711H171.264V29.4453H169.814V26.2324H168.584V29.0625H167.162ZM182.543 21.8574V24.8379H184.266V26.1094H182.543V29.0625H181.025V21.8574H182.543ZM172.672 27.832C175.557 27.0869 177.204 25.6104 177.464 23.8125H173.287V22.582H179.098C179.091 25.8223 176.985 28.0576 173.301 28.9941L172.672 27.832ZM174.312 30.7988V29.582H182.543V34.2168H181.025V30.7988H174.312ZM190.924 23.8262V25.043H184.867V23.8262H187.164V22.2129H188.668V23.8262H190.924ZM185.223 28.5703C185.209 26.8887 186.351 25.6924 187.916 25.6992C189.488 25.6924 190.609 26.8887 190.609 28.5703C190.609 30.2861 189.488 31.4824 187.916 31.4824C186.351 31.4824 185.209 30.2861 185.223 28.5703ZM186.562 28.5703C186.556 29.5684 187.116 30.1904 187.916 30.1836C188.709 30.1904 189.27 29.5684 189.27 28.5703C189.27 27.5996 188.709 26.957 187.916 26.957C187.116 26.957 186.556 27.5996 186.562 28.5703ZM191.443 33.6562V22.1172H192.865V26.9434H194.068V21.8574H195.518V34.2168H194.068V28.1738H192.865V33.6562H191.443ZM199.086 29.9648C199.1 28.2217 199.592 27.6885 200.453 27.1621C201.034 26.7861 201.485 26.3281 201.479 25.6445C201.485 24.8789 200.884 24.3867 200.139 24.3867C199.462 24.3867 198.806 24.8242 198.758 25.7402H197.049C197.097 23.9014 198.464 22.9648 200.152 22.9648C201.998 22.9648 203.263 23.9902 203.27 25.6172C203.263 26.7314 202.709 27.4561 201.82 27.9824C201.027 28.4678 200.699 28.9395 200.686 29.9648V30.0879H199.086V29.9648ZM198.867 32.043C198.86 31.4688 199.346 30.9971 199.934 30.9902C200.501 30.9971 200.986 31.4688 200.986 32.043C200.986 32.6309 200.501 33.1094 199.934 33.1094C199.346 33.1094 198.86 32.6309 198.867 32.043Z" fill="black"/>
<path d="M36.1719 50.6914V51.4648H34.4844V56.9492H33.5703V46.5312H34.4844V50.6914H36.1719ZM26.8555 54.3008V47.5625H27.7695V53.5273C29.293 53.5273 30.8457 53.4102 32.5625 53.0469L32.6797 53.832C30.8809 54.1953 29.2637 54.3008 27.6875 54.3008H26.8555ZM44.9187 49.6953V50.4336H37.782V46.918H38.6961V49.6953H44.9187ZM36.4812 52.6016V51.8516H46.0203V52.6016H36.4812ZM37.7234 56.6914V53.668H38.6375V55.9297H44.9773V56.6914H37.7234ZM52.0648 47.3398C53.6 47.3457 54.6898 48.7578 54.7016 50.9727C54.6898 53.1934 53.6 54.5996 52.0648 54.5938C50.518 54.5996 49.434 53.1934 49.4398 50.9727C49.434 48.7578 50.518 47.3457 52.0648 47.3398ZM50.307 50.9727C50.3129 52.666 51.0336 53.7793 52.0648 53.7734C53.1078 53.7793 53.8109 52.666 53.8109 50.9727C53.8109 49.2793 53.1078 48.166 52.0648 48.1602C51.0336 48.166 50.3129 49.2793 50.307 50.9727ZM56.4242 56.9492V46.5312H57.3383V50.6914H59.0844V51.4883H57.3383V56.9492H56.4242ZM63.0969 48.4648C63.1027 49.8652 64.2102 51.1426 65.7687 51.6523L65.3 52.3672C64.0871 51.957 63.1262 51.1016 62.6516 50C62.1945 51.1836 61.2219 52.1211 59.9797 52.5664L59.4992 51.8516C61.0637 51.3008 62.1652 49.9414 62.1711 48.4648V48.0195H59.7336V47.2695H65.4992V48.0195H63.0969V48.4648ZM60.9406 54.1484V53.3867H67.9484V56.9492H67.0344V54.1484H60.9406ZM67.0344 52.8359V46.5312H67.9484V52.8359H67.0344ZM74.9305 47.3398C76.3484 47.3457 77.3738 48.5645 77.5145 50.5156H79.8523V46.5312H80.7664V56.9727H79.8523V51.2773H77.5262C77.4266 53.3223 76.3836 54.5996 74.9305 54.5938C73.3895 54.5996 72.3113 53.1934 72.3172 50.9727C72.3113 48.7578 73.3895 47.3457 74.9305 47.3398ZM73.1961 50.9727C73.202 52.666 73.9051 53.7793 74.9305 53.7734C75.95 53.7793 76.6648 52.666 76.6648 50.9727C76.6648 49.2793 75.95 48.166 74.9305 48.1602C73.9051 48.166 73.202 49.2793 73.1961 50.9727ZM90.8375 46.543V52.3672H89.9117V50.668H87.8375V49.918H89.9117V48.6523H87.8375V47.8906H89.9117V46.543H90.8375ZM82.6227 47.7734V47.0117H87.1461V49.8242H83.5602V51.2773C85.4938 51.2656 86.5074 51.248 87.7672 51.0312L87.8492 51.793C86.525 52.0156 85.4645 52.0391 83.3844 52.0508H82.6461V49.1094H86.232V47.7734H82.6227ZM84.0406 56.8086V52.7891H84.9664V54.0078H89.9234V52.7891H90.8375V56.8086H84.0406ZM84.9664 56.0586H89.9234V54.7461H84.9664V56.0586ZM97.5805 47.5273V48.3008H93.725V53.6094C95.6059 53.6152 96.8422 53.5508 98.2836 53.2695L98.4008 54.0312C96.8656 54.3242 95.5941 54.3945 93.5961 54.3945H92.7992V47.5273H97.5805ZM96.9594 51.0898V50.3281H99.9945V46.5312H100.92V56.9727H99.9945V51.0898H96.9594ZM110.405 46.5312V50.6797H112.152V51.4531H110.405V56.9727H109.491V46.5312H110.405ZM102.753 48.2656V47.5039H107.488V51.2305H103.691V53.668C105.624 53.6738 106.978 53.5977 108.554 53.3047L108.648 54.0664C107.007 54.3652 105.618 54.4414 103.609 54.4531H102.777V50.4688H106.573V48.2656H102.753ZM113.516 56.0703C113.105 56.0645 112.754 55.7246 112.766 55.3086C112.754 54.8984 113.105 54.5586 113.516 54.5586C113.932 54.5586 114.271 54.8984 114.266 55.3086C114.271 55.7246 113.932 56.0645 113.516 56.0703ZM116.262 56.0703C115.852 56.0645 115.501 55.7246 115.512 55.3086C115.501 54.8984 115.852 54.5586 116.262 54.5586C116.679 54.5586 117.018 54.8984 117.012 55.3086C117.018 55.7246 116.679 56.0645 116.262 56.0703ZM128.811 47.6445V48.6875C128.811 50 128.811 51.4824 128.424 53.75L127.487 53.6562C127.909 51.5234 127.909 49.9648 127.909 48.6875V48.4062H121.627V47.6445H128.811ZM120.596 55.4141V54.6523H130.088V55.4141H120.596ZM134.921 47.668V51.3125H131.909V53.6797C133.111 53.6738 134.241 53.627 135.589 53.3984L135.671 54.1484C134.189 54.4062 133.011 54.4531 131.698 54.4531H131.019V50.5508H134.03V48.4414H130.995V47.668H134.921ZM136.316 56.4102V46.7656H137.159V50.6562H138.695V46.5312H139.573V56.9492H138.695V51.418H137.159V56.4102H136.316ZM149.152 51.418V52.168H145.93V54.8633H150.277V55.6367H140.738V54.8633H145.027V52.168H141.957V47.3867H149.047V48.1367H142.883V51.418H149.152ZM162.111 46.5312V56.9727H161.185V46.5312H162.111ZM153.908 50.9727C153.914 48.7578 155.015 47.3457 156.568 47.3398C158.115 47.3457 159.234 48.7578 159.228 50.9727C159.234 53.1934 158.115 54.5996 156.568 54.5938C155.015 54.5996 153.914 53.1934 153.908 50.9727ZM154.798 50.9727C154.798 52.666 155.525 53.7793 156.568 53.7734C157.617 53.7793 158.338 52.666 158.338 50.9727C158.338 49.2793 157.617 48.166 156.568 48.1602C155.525 48.166 154.798 49.2793 154.798 50.9727ZM169.796 49.332C169.796 51.166 171.009 53.0586 172.491 53.7852L171.929 54.5234C170.78 53.9258 169.82 52.6895 169.357 51.2422C168.894 52.7773 167.909 54.0957 166.738 54.7227L166.152 53.9844C167.675 53.2344 168.882 51.2363 168.894 49.332V47.4336H169.796V49.332ZM173.452 56.9492V46.5312H174.366V50.7617H176.113V51.5586H174.366V56.9492H173.452ZM184.965 46.5312V56.9727H184.039V46.5312H184.965ZM176.762 50.9727C176.768 48.7578 177.869 47.3457 179.422 47.3398C180.969 47.3457 182.088 48.7578 182.082 50.9727C182.088 53.1934 180.969 54.5996 179.422 54.5938C177.869 54.5996 176.768 53.1934 176.762 50.9727ZM177.652 50.9727C177.652 52.666 178.379 53.7793 179.422 53.7734C180.471 53.7793 181.191 52.666 181.191 50.9727C181.191 49.2793 180.471 48.166 179.422 48.1602C178.379 48.166 177.652 49.2793 177.652 50.9727ZM194.884 52.168V52.918H187.677V47.4336H194.766V48.207H188.614V49.7539H194.544V50.4922H188.614V52.168H194.884ZM186.446 55.5898V54.8281H195.985V55.5898H186.446ZM207.373 46.5312V48.793H208.944V49.5664H207.373V51.8398H206.459V46.5312H207.373ZM199.428 49.2266C199.422 47.8613 200.571 46.9238 202.135 46.918C203.705 46.9238 204.842 47.8613 204.842 49.2266C204.842 50.5977 203.705 51.541 202.135 51.5469C200.571 51.541 199.422 50.5977 199.428 49.2266ZM200.33 49.2266C200.325 50.1406 201.092 50.7969 202.135 50.7969C203.172 50.7969 203.946 50.1406 203.94 49.2266C203.946 48.3242 203.172 47.6797 202.135 47.6914C201.092 47.6797 200.325 48.3242 200.33 49.2266ZM200.729 53.0703V52.332H207.373V54.875H201.655V56.0703H207.76V56.8086H200.752V54.1719H206.459V53.0703H200.729ZM217.655 47.5859V48.6289C217.644 49.9062 217.644 51.3359 217.269 53.4336L216.331 53.3281C216.724 51.3359 216.724 49.877 216.73 48.6289V48.3477H210.308V47.5859H217.655ZM209.3 55.4727V54.7109H213.027V50.9844H213.929V54.7109H218.792V55.4727H209.3ZM230.977 46.5312V56.9492H230.075V51.5586H228.575V56.4102H227.708V46.7656H228.575V50.7734H230.075V46.5312H230.977ZM222.61 54.2539V47.8086H223.524V53.4336C224.555 53.4277 225.669 53.3516 226.934 53.0938L227.052 53.9141C225.598 54.1777 224.403 54.2539 223.255 54.2539H222.61ZM240.216 46.5312V50.7734H241.904V51.5469H240.216V56.9492H239.302V46.5312H240.216ZM232.224 54.2422C234.914 52.9062 236.379 50.8965 236.589 48.4297H232.705V47.6562H237.521C237.515 50.6035 236.132 53.293 232.74 54.9688L232.224 54.2422ZM254.687 50.6914V51.4648H252.999V56.9492H252.085V46.5312H252.999V50.6914H254.687ZM245.37 54.3008V47.5625H246.284V53.5273C247.808 53.5273 249.361 53.4102 251.077 53.0469L251.195 53.832C249.396 54.1953 247.779 54.3008 246.202 54.3008H245.37ZM263.41 49.0391V49.8008H256.297V46.707H257.199V49.0391H263.41ZM254.996 51.4648V50.7148H264.535V51.4648H260.188V52.5781H263.305V54.957H257.141V56.0938H263.68V56.832H256.215V54.2891H262.402V53.293H256.191V52.5781H259.297V51.4648H254.996ZM273.017 47.5039C273.023 48.9746 274.933 50.2402 276.814 50.5039L276.439 51.2539C274.822 50.9844 273.216 50.0879 272.548 48.8105C271.88 50.0996 270.281 50.9844 268.658 51.2539L268.283 50.5039C270.164 50.2402 272.068 48.998 272.068 47.5039V46.9062H273.017V47.5039ZM267.791 53.1758V52.4023H277.283V53.1758H272.97V56.9492H272.068V53.1758H267.791ZM284.101 53.5273C284.095 54.4473 284.593 55.4258 285.583 55.9883C286.579 55.373 287.107 54.3301 287.101 53.5273V52.9531H288.003V53.5273C287.997 54.5996 288.788 55.666 290.124 56.1289L289.667 56.8086C288.624 56.4395 287.898 55.7129 287.534 54.8398C287.212 55.6836 286.573 56.4863 285.613 56.8906C284.599 56.5039 283.954 55.7422 283.644 54.8691C283.269 55.707 282.554 56.4336 281.558 56.8086L281.089 56.1289C282.407 55.6367 283.198 54.5234 283.21 53.5273V52.9531H284.101V53.5273ZM280.82 49.5898C280.814 48.1367 281.968 47.1465 283.55 47.1523C285.132 47.1465 286.275 48.1367 286.28 49.5898C286.275 51.0195 285.132 52.0039 283.55 52.0039C281.968 52.0039 280.814 51.0195 280.82 49.5898ZM281.722 49.5898C281.71 50.5566 282.478 51.2363 283.55 51.2422C284.611 51.2363 285.378 50.5566 285.378 49.5898C285.378 48.6172 284.611 47.9258 283.55 47.9375C282.478 47.9258 281.71 48.6172 281.722 49.5898ZM288.261 52.4961V46.543H289.175V52.4961H288.261ZM299.07 49.6953V50.4336H291.934V46.918H292.848V49.6953H299.07ZM290.633 52.6016V51.8516H300.172V52.6016H290.633ZM291.875 56.6914V53.668H292.789V55.9297H299.129V56.6914H291.875ZM306.955 48.4648C306.961 49.8535 307.98 51.1191 309.521 51.6523L309.052 52.3672C307.863 51.9453 306.955 51.0957 306.509 50.0176C306.064 51.2012 305.109 52.1211 303.884 52.5664L303.392 51.8516C304.951 51.3008 306.041 49.959 306.052 48.4648V48.0195H303.673V47.2695H309.298V48.0195H306.955V48.4648ZM304.752 54.1133V53.3633H311.572V56.9492H310.658V54.1133H304.752ZM310.658 52.8125V46.5312H311.572V49.2852H313.142V50.0703H311.572V52.8125H310.658ZM35.9141 66.0273V66.7773H26.4219V66.0273H35.9141ZM27.4766 62.9688C27.4766 61.6621 28.9062 60.8945 31.168 60.9062C33.4062 60.8945 34.8418 61.6621 34.8477 62.9688C34.8418 64.2637 33.4062 65.043 31.168 65.043C28.9062 65.043 27.4766 64.2637 27.4766 62.9688ZM27.6523 70.7266V67.6914H28.5781V69.9531H34.8594V70.7266H27.6523ZM28.4258 62.9688C28.4199 63.7949 29.4863 64.293 31.168 64.293C32.8379 64.293 33.9043 63.7949 33.9102 62.9688C33.9043 62.1543 32.8379 61.6445 31.168 61.6445C29.4863 61.6445 28.4199 62.1543 28.4258 62.9688ZM48.732 66.7188V67.4688H44.3844V70.9492H43.482V67.4688H39.193V66.7188H48.732ZM40.4117 65.4531V60.9648H41.3258V62.4062H46.5758V60.9648H47.5016V65.4531H40.4117ZM41.3258 64.7031H46.5758V63.1562H41.3258V64.7031ZM58.8031 66.0508V66.8008H54.5609V68.8398H53.6469V66.8008H49.2641V66.0508H58.8031ZM50.4828 70.7266V67.8789H51.3969V69.9531H57.7367V70.7266H50.4828ZM50.5414 65.0312V60.8711H51.4555V62.207H56.6117V60.8711H57.5258V65.0312H50.5414ZM51.4555 64.2812H56.6117V62.9102H51.4555V64.2812ZM68.8742 66.7188V67.4688H64.5266V70.9492H63.6242V67.4688H59.3352V66.7188H68.8742ZM60.5539 65.4531V60.9648H61.468V62.4062H66.718V60.9648H67.6437V65.4531H60.5539ZM61.468 64.7031H66.718V63.1562H61.468V64.7031ZM78.0547 60.5312V70.9727H77.1406V65.2305H74.9375V64.4688H77.1406V60.5312H78.0547ZM69.8984 68.4531V61.4922H74.7617V62.2539H70.8242V64.4219H74.3047V65.1719H70.8242V67.6914C72.7344 67.6855 73.9648 67.6328 75.3945 67.375L75.5 68.1367C73.9824 68.3828 72.7109 68.4531 70.6953 68.4531H69.8984ZM91.9508 64.6914V65.4648H90.2633V70.9492H89.3492V60.5312H90.2633V64.6914H91.9508ZM82.6344 68.3008V61.5625H83.5484V67.5273C85.0719 67.5273 86.6246 67.4102 88.3414 67.0469L88.4586 67.832C86.6598 68.1953 85.0426 68.3008 83.4664 68.3008H82.6344ZM100.686 64.0469V64.8086H93.5023V61.0703H94.4164V64.0469H100.686ZM92.2719 67.1523V66.3789H101.811V67.1523H97.4516V70.9492H96.5375V67.1523H92.2719ZM110.769 63.6953V64.4336H103.632V60.918H104.546V63.6953H110.769ZM102.331 66.6016V65.8516H111.87V66.6016H102.331ZM103.573 70.6914V67.668H104.488V69.9297H110.827V70.6914H103.573ZM124.618 65.4062V66.168H120.317V67.2812C122.28 67.3691 123.446 68.0078 123.458 69.1094C123.446 70.2754 122.104 70.9258 119.872 70.9258C117.61 70.9258 116.268 70.2754 116.274 69.1094C116.268 68.0078 117.429 67.3691 119.415 67.2812V66.168H115.126V65.4062H124.618ZM115.665 64.0469C117.47 63.8594 119.21 62.9395 119.274 61.7734H115.993V61.0234H123.774V61.7734H120.47C120.534 62.9395 122.257 63.8594 124.091 64.0469L123.751 64.7734C122.046 64.5684 120.446 63.8008 119.872 62.6465C119.298 63.8008 117.71 64.5684 115.993 64.7734L115.665 64.0469ZM117.212 69.1094C117.2 69.8008 118.202 70.2168 119.872 70.2109C121.524 70.2168 122.526 69.8008 122.532 69.1094C122.526 68.4004 121.524 67.9961 119.872 67.9844C118.202 67.9961 117.2 68.4004 117.212 69.1094ZM133.787 60.5312V70.9727H132.861V60.5312H133.787ZM125.584 64.9727C125.589 62.7578 126.691 61.3457 128.244 61.3398C129.791 61.3457 130.91 62.7578 130.904 64.9727C130.91 67.1934 129.791 68.5996 128.244 68.5938C126.691 68.5996 125.589 67.1934 125.584 64.9727ZM126.474 64.9727C126.474 66.666 127.201 67.7793 128.244 67.7734C129.293 67.7793 130.013 66.666 130.013 64.9727C130.013 63.2793 129.293 62.166 128.244 62.1602C127.201 62.166 126.474 63.2793 126.474 64.9727ZM138.057 61.3398C139.592 61.3457 140.682 62.7578 140.694 64.9727C140.682 67.1934 139.592 68.5996 138.057 68.5938C136.51 68.5996 135.426 67.1934 135.432 64.9727C135.426 62.7578 136.51 61.3457 138.057 61.3398ZM136.299 64.9727C136.305 66.666 137.026 67.7793 138.057 67.7734C139.1 67.7793 139.803 66.666 139.803 64.9727C139.803 63.2793 139.1 62.166 138.057 62.1602C137.026 62.166 136.305 63.2793 136.299 64.9727ZM142.416 70.9492V60.5312H143.33V63.1562H145.018V63.9414H143.33V66.2617H145.018V67.0352H143.33V70.9492H142.416ZM146.441 70.0703C146.03 70.0645 145.679 69.7246 145.691 69.3086C145.679 68.8984 146.03 68.5586 146.441 68.5586C146.857 68.5586 147.196 68.8984 147.191 69.3086C147.196 69.7246 146.857 70.0645 146.441 70.0703ZM159.411 60.543V68.418H158.485V64.9023H156.669V64.1289H158.485V60.543H159.411ZM150.786 62.5703V61.8203H153.376V60.5312H154.278V61.8203H156.868V62.5703H150.786ZM151.407 65.0898C151.407 63.9355 152.409 63.1445 153.821 63.1445C155.227 63.1445 156.235 63.9355 156.247 65.0898C156.235 66.2383 155.227 67.0176 153.821 67.0117C152.409 67.0176 151.407 66.2383 151.407 65.0898ZM152.286 65.0898C152.286 65.8047 152.919 66.2969 153.821 66.2852C154.718 66.2969 155.356 65.8047 155.356 65.0898C155.356 64.375 154.718 63.8652 153.821 63.8711C152.919 63.8652 152.286 64.375 152.286 65.0898ZM152.673 70.7266V67.7148H153.598V69.9531H159.645V70.7266H152.673ZM166.752 61.457V62.1836H160.857V61.457H163.388V60.4023H164.302V61.457H166.752ZM161.478 64.4688C161.466 63.3789 162.427 62.6934 163.834 62.6875C165.246 62.6934 166.207 63.3789 166.212 64.4688C166.207 65.541 165.246 66.2266 163.834 66.2266C162.427 66.2266 161.466 65.541 161.478 64.4688ZM162.334 64.4688C162.328 65.1191 162.943 65.5586 163.834 65.5586C164.724 65.5586 165.339 65.1191 165.345 64.4688C165.339 63.8066 164.724 63.3789 163.834 63.3906C162.943 63.3789 162.328 63.8066 162.334 64.4688ZM162.72 67.5625V66.8711H169.47V69.1211H163.658V70.1289H169.775V70.832H162.744V68.4531H168.556V67.5625H162.72ZM166.74 65.4297V64.6914H168.556V63.5781H166.752V62.8516H168.556V60.5312H169.47V66.3555H168.556V65.4297H166.74ZM179.33 65.418V66.168H176.108V68.8633H180.455V69.6367H170.916V68.8633H175.205V66.168H172.135V61.3867H179.225V62.1367H173.061V65.418H179.33ZM192.336 60.5312V70.9727H191.41V65.4883H189.125V64.7266H191.41V60.5312H192.336ZM183.723 68.2188C185.252 67.5039 186.395 65.7227 186.395 63.9297V63.0977H184.004V62.3477H186.395V60.7305H187.309V62.3477H189.664V63.0977H187.297V63.9297C187.297 65.6465 188.475 67.3398 190.016 68.0312L189.488 68.7461C188.299 68.207 187.32 67.0645 186.857 65.6934C186.406 67.1465 185.439 68.3594 184.25 68.9336L183.723 68.2188ZM198.516 60.7656C200.784 60.7656 202.19 61.498 202.196 62.7461C202.19 63.9766 200.784 64.6973 198.516 64.6914C196.249 64.6973 194.825 63.9766 194.825 62.7461C194.825 61.498 196.249 60.7656 198.516 60.7656ZM193.77 66.3555V65.5938H203.262V66.3555H193.77ZM194.93 70.8086V67.3867H202.102V70.8086H194.93ZM195.774 62.7461C195.768 63.502 196.829 63.959 198.516 63.9648C200.186 63.959 201.253 63.502 201.259 62.7461C201.253 61.9668 200.186 61.5039 198.516 61.5039C196.829 61.5039 195.768 61.9668 195.774 62.7461ZM195.845 70.0586H201.2V68.125H195.845V70.0586ZM206.337 61.3516C207.603 61.3574 208.552 62.2188 208.705 63.5195H209.83V60.7422H210.697V68.0312H209.83V64.293H208.699C208.529 65.5527 207.586 66.4023 206.337 66.3906C204.943 66.4023 203.953 65.3652 203.959 63.8828C203.953 62.3828 204.943 61.3574 206.337 61.3516ZM204.791 63.8828C204.779 64.8965 205.441 65.6055 206.337 65.6055C207.222 65.6055 207.884 64.8965 207.896 63.8828C207.884 62.875 207.222 62.1426 206.337 62.1484C205.441 62.1426 204.779 62.875 204.791 63.8828ZM205.857 70.7266V67.3281H206.771V69.9531H213.005V70.7266H205.857ZM211.81 68.3359V60.5312H212.689V68.3359H211.81ZM219.425 61.3398C220.843 61.3457 221.868 62.5645 222.009 64.5156H224.347V60.5312H225.261V70.9727H224.347V65.2773H222.021C221.921 67.3223 220.878 68.5996 219.425 68.5938C217.884 68.5996 216.806 67.1934 216.812 64.9727C216.806 62.7578 217.884 61.3457 219.425 61.3398ZM217.691 64.9727C217.696 66.666 218.4 67.7793 219.425 67.7734C220.445 67.7793 221.159 66.666 221.159 64.9727C221.159 63.2793 220.445 62.166 219.425 62.1602C218.4 62.166 217.696 63.2793 217.691 64.9727ZM235.32 60.5312V70.9727H234.406V66.5312H232.238V65.7578H234.406V63.6836H232.32V62.9102H234.406V60.5312H235.32ZM227.059 62.2422V61.4805H231.641V65.1836H228.008V67.75C229.572 67.75 230.867 67.6914 232.449 67.4453L232.531 68.2188C230.867 68.4766 229.531 68.5352 227.867 68.5352H227.094V64.4336H230.738V62.2422H227.059ZM245.356 60.543V67.1406H244.43V66.4844H242.298V65.8164H244.43V60.543H245.356ZM236.708 64.7148C238.624 64.7031 241.261 64.6855 243.493 64.3633L243.552 65.0312C242.567 65.2012 241.53 65.3008 240.516 65.3594V67.082H239.602V65.4062C238.6 65.4473 237.651 65.4531 236.825 65.4531L236.708 64.7148ZM237.259 70.1289C238.583 69.7188 239.391 68.7051 239.403 67.6914V67.5039H240.27V67.6914C240.27 68.5527 240.786 69.502 241.776 70.0352C242.772 69.4902 243.282 68.5352 243.294 67.6914V67.5039H244.184V67.6914C244.179 68.7344 244.97 69.7246 246.317 70.1289L245.872 70.832C244.823 70.4863 244.091 69.8008 243.727 68.9629C243.405 69.7891 242.766 70.5332 241.782 70.9141C240.792 70.5449 240.153 69.8125 239.837 68.9805C239.468 69.8066 238.729 70.4922 237.716 70.832L237.259 70.1289ZM237.552 62.4297C237.546 61.416 238.559 60.7949 240.13 60.7891C241.682 60.7949 242.702 61.416 242.708 62.4297C242.702 63.4375 241.682 64.0469 240.13 64.0586C238.559 64.0469 237.546 63.4375 237.552 62.4297ZM238.407 62.4297C238.401 63.0156 239.081 63.3848 240.13 63.3906C241.161 63.3848 241.829 63.0156 241.841 62.4297C241.829 61.8438 241.161 61.4629 240.13 61.4688C239.081 61.4629 238.401 61.8438 238.407 62.4297ZM255.263 63.6953V64.4336H248.127V60.918H249.041V63.6953H255.263ZM246.826 66.6016V65.8516H256.365V66.6016H246.826ZM248.068 70.6914V67.668H248.982V69.9297H255.322V70.6914H248.068ZM265.827 60.5312V70.9492H264.936V60.5312H265.827ZM257.319 68.4414V61.8203H261.245V62.582H258.209V67.668C259.715 67.6562 260.664 67.6035 261.784 67.3516L261.877 68.1367C260.67 68.3828 259.651 68.4355 257.975 68.4414H257.319ZM260.541 65.2891V64.5156H262.815V60.7891H263.694V70.4102H262.815V65.2891H260.541ZM278.281 60.5312V70.9727H277.355V60.5312H278.281ZM270.078 64.9727C270.084 62.7578 271.186 61.3457 272.738 61.3398C274.285 61.3457 275.404 62.7578 275.398 64.9727C275.404 67.1934 274.285 68.5996 272.738 68.5938C271.186 68.5996 270.084 67.1934 270.078 64.9727ZM270.969 64.9727C270.969 66.666 271.695 67.7793 272.738 67.7734C273.787 67.7793 274.508 66.666 274.508 64.9727C274.508 63.2793 273.787 62.166 272.738 62.1602C271.695 62.166 270.969 63.2793 270.969 64.9727ZM288.669 60.5312V70.9492H287.79V60.5312H288.669ZM279.634 68.1719C281.087 67.3047 281.936 65.4004 281.93 63.5078V62.5234H279.927V61.7617H284.731V62.5234H282.821V63.5078C282.821 65.3066 283.636 67.1055 285.071 67.9375L284.509 68.6172C283.483 68.002 282.757 66.877 282.393 65.5527C282.018 66.9883 281.262 68.2129 280.22 68.8633L279.634 68.1719ZM283.934 65.043V64.293H285.692V60.7891H286.559V70.4102H285.692V65.043H283.934ZM298.259 63.6953V64.4336H291.123V60.918H292.037V63.6953H298.259ZM289.822 66.6016V65.8516H299.361V66.6016H289.822ZM291.064 70.6914V67.668H291.978V69.9297H298.318V70.6914H291.064ZM305.195 67.0234V68.1602H310.245V67.0234H311.148V70.8086H304.28V67.0234H305.195ZM302.628 65.1016C304.609 65.1016 307.228 65.1016 309.519 64.8086L309.577 65.4648C308.634 65.623 307.661 65.7168 306.706 65.7754V67.3398H305.792V65.8223C304.696 65.8633 303.659 65.8633 302.757 65.8633L302.628 65.1016ZM303.097 63.7305C304.614 63.3789 305.669 62.4355 305.675 61.3164V60.7891H306.612V61.3164C306.612 62.3828 307.679 63.2617 309.179 63.5898L308.78 64.293C307.562 64.0176 306.607 63.3789 306.15 62.5059C305.71 63.4375 304.755 64.1406 303.519 64.457L303.097 63.7305ZM305.195 70.0586H310.245V68.8867H305.195V70.0586ZM310.234 66.5195V60.543H311.148V66.5195H310.234ZM313.789 70.0703C313.379 70.0645 313.027 69.7246 313.039 69.3086C313.027 68.8984 313.379 68.5586 313.789 68.5586C314.205 68.5586 314.545 68.8984 314.539 69.3086C314.545 69.7246 314.205 70.0645 313.789 70.0703ZM316.536 70.0703C316.126 70.0645 315.774 69.7246 315.786 69.3086C315.774 68.8984 316.126 68.5586 316.536 68.5586C316.952 68.5586 317.292 68.8984 317.286 69.3086C317.292 69.7246 316.952 70.0645 316.536 70.0703ZM319.283 70.0703C318.873 70.0645 318.521 69.7246 318.533 69.3086C318.521 68.8984 318.873 68.5586 319.283 68.5586C319.699 68.5586 320.039 68.8984 320.033 69.3086C320.039 69.7246 319.699 70.0645 319.283 70.0703Z" fill="#4B4B4B"/>
<path d="M29.7969 83.5156V92H28.7305V84.6172H28.6836L26.6211 85.9883V84.9219L28.7305 83.5156H29.7969ZM31.7586 92L31.7469 91.2266L34.6414 88.1797C35.6434 87.1133 36.1238 86.5391 36.1297 85.7539C36.1238 84.8809 35.3973 84.3184 34.4422 84.3125C33.4285 84.3184 32.7957 84.957 32.7898 85.9062H31.7937C31.782 84.4062 32.9422 83.3984 34.4773 83.3984C36.0184 83.3984 37.1082 84.4355 37.1141 85.7539C37.1082 86.7031 36.6687 87.4414 35.1687 88.9883L33.2234 90.9922V91.0625H37.2664V92H31.7586ZM47.6539 88.0508V88.8008H43.4117V90.8398H42.4977V88.8008H38.1148V88.0508H47.6539ZM39.3336 92.7266V89.8789H40.2477V91.9531H46.5875V92.7266H39.3336ZM39.3922 87.0312V82.8711H40.3062V84.207H45.4625V82.8711H46.3766V87.0312H39.3922ZM40.3062 86.2812H45.4625V84.9102H40.3062V86.2812ZM59.5461 82.543V90.1836H58.6203V86.1875H56.4758V85.4258H58.6203V82.543H59.5461ZM50.9562 88.0977C52.4914 87.5586 53.6047 86.1816 53.6047 84.6875V84.1484H51.2492V83.3867H56.8625V84.1484H54.5305V84.6875C54.5305 86.0352 55.5734 87.3418 57.0969 87.8633L56.6164 88.6016C55.4445 88.1738 54.5363 87.3008 54.0852 86.2227C53.634 87.4297 52.673 88.3848 51.4367 88.8477L50.9562 88.0977ZM52.8547 92.7266V89.4922H53.7805V91.9531H59.8391V92.7266H52.8547ZM65.5438 82.3203V93.1953H64.6766V82.3203H65.5438ZM73.393 84.4531C73.393 85.8066 74.4359 87.1016 75.9594 87.6289L75.4789 88.3555C74.307 87.9336 73.3988 87.0605 72.9535 85.9883C72.5023 87.1836 71.5355 88.1445 70.2992 88.6016L69.8187 87.875C71.3539 87.3242 72.4672 85.9355 72.4672 84.4648V84.0078H70.1117V83.2578H75.725V84.0078H73.393V84.4531ZM71.4008 90.0898V89.3281H78.4086V92.9492H77.4828V90.0898H71.4008ZM75.3969 86.0352V85.2617H77.4828V82.5312H78.4086V88.7773H77.4828V86.0352H75.3969ZM83.5344 83.8672C83.5227 85.3027 84.6477 86.6035 86.1945 87.1133L85.7492 87.8281C84.5246 87.4062 83.552 86.5391 83.0773 85.4258C82.6086 86.627 81.6242 87.582 80.382 88.0273L79.9133 87.2891C81.4836 86.7441 82.5969 85.373 82.5969 83.8672V82.8828H83.5344V83.8672ZM81.6945 92.8086V88.6484H82.6086V89.9141H87.5305V88.6484H88.4445V92.8086H81.6945ZM82.6086 92.0586H87.5305V90.6523H82.6086V92.0586ZM87.5305 88.1211V82.5312H88.4445V88.1211H87.5305ZM93.4414 85.7305C93.4297 87.4004 94.6367 89.2402 96.1484 89.9609L95.6211 90.6875C94.4492 90.1133 93.459 88.8828 92.9902 87.4707C92.5098 89 91.4668 90.3477 90.3008 90.9453L89.7383 90.2188C91.2383 89.4863 92.5273 87.5059 92.5391 85.7305V84.3711H90.1133V83.6094H95.7852V84.3711H93.4414V85.7305ZM97.0625 92.9492V82.5312H97.9766V86.75H99.7227V87.5352H97.9766V92.9492H97.0625ZM108.891 82.5312V92.9492H108.012V87.4883H106.477V92.4102H105.634V82.7656H106.477V86.7266H108.012V82.5312H108.891ZM100.372 90.3711V83.8086H104.274V84.5703H101.286V89.5859C102.721 89.5801 103.712 89.5273 104.872 89.293L104.954 90.0664C103.7 90.3242 102.639 90.3652 101.04 90.3711H100.372ZM116.291 83.6562V84.4062H110.08V83.6562H112.728V82.4844H113.642V83.6562H116.291ZM110.677 86.832C110.671 85.6836 111.679 84.957 113.185 84.9453C114.679 84.957 115.681 85.6836 115.693 86.832C115.681 87.9629 114.679 88.7012 113.185 88.707C111.679 88.7012 110.671 87.9629 110.677 86.832ZM111.38 90.3711V89.6211H118.201V92.9492H117.287V90.3711H111.38ZM111.556 86.832C111.55 87.5234 112.201 87.9746 113.185 87.9688C114.158 87.9746 114.814 87.5234 114.826 86.832C114.814 86.123 114.158 85.666 113.185 85.6602C112.201 85.666 111.55 86.123 111.556 86.832ZM117.287 89.0469V82.5312H118.201V85.4258H119.771V86.1992H118.201V89.0469H117.287ZM128.495 83.5859V84.7461C128.489 86.082 128.489 87.4238 128.12 89.3633L127.217 89.2578C127.586 87.418 127.586 86.0469 127.592 84.7461V84.3477H121.123V83.5859H128.495ZM120.127 91.4727V90.7109H122.483V87.2773H123.397V90.7109H125.084V87.2773H125.987V90.7109H129.62V91.4727H120.127ZM137.656 89.75C139.941 89.7441 141.23 90.3008 141.242 91.3555C141.23 92.3867 139.941 92.9258 137.656 92.9258C135.348 92.9258 134.053 92.3867 134.059 91.3555C134.053 90.3008 135.348 89.7441 137.656 89.75ZM132.91 89.0938V88.3555H137.199V87.541C135.324 87.4707 134.27 86.9668 134.27 86.0703C134.27 85.0801 135.494 84.5762 137.656 84.5703C139.812 84.5762 141.031 85.0801 141.031 86.0703C141.031 86.9668 139.982 87.4707 138.113 87.541V88.3555H142.402V89.0938H132.91ZM133.402 84.1484V83.4102H137.199V82.3906H138.113V83.4102H141.852V84.1484H133.402ZM134.996 91.3555C135.002 91.9238 135.963 92.2402 137.656 92.2344C139.344 92.2402 140.305 91.9238 140.305 91.3555C140.305 90.7637 139.344 90.4414 137.656 90.4414C135.963 90.4414 135.002 90.7637 134.996 91.3555ZM135.254 86.0703C135.248 86.5859 136.127 86.8848 137.656 86.8906C139.186 86.8848 140.053 86.5859 140.059 86.0703C140.053 85.5195 139.186 85.2207 137.656 85.2266C136.127 85.2207 135.248 85.5195 135.254 86.0703ZM147.786 92.3867C145.237 92.3809 143.169 90.3066 143.169 87.7578C143.169 85.209 145.237 83.1348 147.786 83.1289C150.341 83.1348 152.415 85.209 152.415 87.7578C152.415 90.3066 150.341 92.3809 147.786 92.3867ZM144.059 87.7578C144.059 89.8145 145.741 91.4844 147.786 91.4844C149.843 91.4844 151.518 89.8145 151.524 87.7578C151.518 85.7012 149.843 84.0254 147.786 84.0312C145.741 84.0254 144.059 85.7012 144.059 87.7578ZM162.638 87.6875V88.4258H153.134V87.6875H157.435V86.4688H154.341V83.0234H161.455V83.7617H155.244V85.7188H161.525V86.4688H158.326V87.6875H162.638ZM154.283 91.0625C154.277 89.873 155.63 89.1934 157.88 89.1875C160.113 89.1934 161.455 89.873 161.466 91.0625C161.455 92.2637 160.113 92.9375 157.88 92.9492C155.63 92.9375 154.277 92.2637 154.283 91.0625ZM155.22 91.0625C155.209 91.7949 156.211 92.2168 157.88 92.2109C159.533 92.2168 160.535 91.7949 160.541 91.0625C160.535 90.3418 159.533 89.9141 157.88 89.9141C156.211 89.9141 155.209 90.3418 155.22 91.0625Z" fill="#939393"/>
<defs>
<filter id="filter0_d_102_4937" x="0" y="0" width="347" height="119" filterUnits="userSpaceOnUse" color-interpolation-filters="sRGB">
<feFlood flood-opacity="0" result="BackgroundImageFix"/>
<feColorMatrix in="SourceAlpha" type="matrix" values="0 0 0 0 0 0 0 0 0 0 0 0 0 0 0 0 0 0 127 0" result="hardAlpha"/>
<feOffset dy="2"/>
<feGaussianBlur stdDeviation="3"/>
<feComposite in2="hardAlpha" operator="out"/>
<feColorMatrix type="matrix" values="0 0 0 0 0 0 0 0 0 0 0 0 0 0 0 0 0 0 0.1 0"/>
<feBlend mode="normal" in2="BackgroundImageFix" result="effect1_dropShadow_102_4937"/>
<feBlend mode="normal" in="SourceGraphic" in2="effect1_dropShadow_102_4937" result="shape"/>
</filter>
</defs>
</svg>
