<svg width="48" height="48" viewBox="0 0 48 48" fill="none" xmlns="http://www.w3.org/2000/svg">
<path d="M26.3242 40.1934V42.7227H20.2793V40.1934H26.3242ZM19.3223 39.5977V38.8652H22.8477V38.2695C21.2998 38.2061 20.4307 37.791 20.4355 37.0391C20.4307 36.2236 21.4707 35.8037 23.3066 35.7988C25.1523 35.8037 26.1826 36.2236 26.1777 37.0391C26.1826 37.791 25.3281 38.2061 23.7754 38.2695V38.8652H27.3008V39.5977H19.3223ZM19.7324 35.4863V34.7734H22.8477V33.9629H23.7754V34.7734H26.8516V35.4863H19.7324ZM21.1973 42.0098H25.4258V40.9062H21.1973V42.0098ZM21.4219 37.0391C21.417 37.4346 22.0859 37.6445 23.3066 37.6445C24.5371 37.6445 25.1914 37.4346 25.1914 37.0391C25.1914 36.6387 24.5371 36.4434 23.3066 36.4336C22.0859 36.4434 21.417 36.6387 21.4219 37.0391Z" fill="#FF0A00"/>
<g clip-path="url(#clip0_102_4897)">
<path d="M34 28V16L24 8L14 16V28H20V19H28V28H34Z" stroke="#FF0A00" stroke-width="1.4" stroke-linejoin="round"/>
<path d="M24 28V23" stroke="#FF0A00" stroke-width="1.4" stroke-linecap="round" stroke-linejoin="round"/>
</g>
<defs>
<clipPath id="clip0_102_4897">
<rect width="24" height="24" fill="white" transform="translate(12 6)"/>
</clipPath>
</defs>
</svg>
