<svg width="18" height="18" viewBox="0 0 18 18" fill="none" xmlns="http://www.w3.org/2000/svg">
<path fill-rule="evenodd" clip-rule="evenodd" d="M9 18C13.9706 18 18 13.9706 18 9C18 4.02944 13.9706 0 9 0C4.02944 0 0 4.02944 0 9C0 13.9706 4.02944 18 9 18ZM8.99382 4.5H5.25V13.5H7.25165V11.0186H8.99382C9.76812 11.0186 10.4353 10.89 10.9955 10.6329C11.5556 10.3671 11.9881 9.99 12.2928 9.50143C12.5976 9.01286 12.75 8.43429 12.75 7.76572C12.75 7.08857 12.5976 6.50571 12.2928 6.01714C11.9881 5.52857 11.5556 5.15571 10.9955 4.89857C10.4353 4.63286 9.76812 4.5 8.99382 4.5ZM7.25165 9.32143H8.88262C9.50041 9.32143 9.9617 9.18429 10.2665 8.91C10.5713 8.63571 10.7236 8.25429 10.7236 7.76572C10.7236 7.26857 10.5713 6.88286 10.2665 6.60857C9.9617 6.33429 9.50041 6.19714 8.88262 6.19714H7.25165V9.32143Z" fill="white"/>
</svg>
