<svg width="18" height="18" viewBox="0 0 18 18" fill="none" xmlns="http://www.w3.org/2000/svg">
<path fill-rule="evenodd" clip-rule="evenodd" d="M9 18C13.9706 18 18 13.9706 18 9C18 4.02944 13.9706 0 9 0C4.02944 0 0 4.02944 0 9C0 13.9706 4.02944 18 9 18ZM5 4V13H7.09032V10.4929H8.90968C8.94262 10.4929 8.97537 10.4926 9.00794 10.4922L10.7419 13H13L10.9823 10.1149C10.9882 10.1123 10.9941 10.1097 11 10.1071C11.5849 9.85 12.0366 9.48143 12.3548 9.00143C12.6731 8.51286 12.8323 7.93429 12.8323 7.26571C12.8323 6.58857 12.6731 6.00571 12.3548 5.51714C12.0366 5.02857 11.5849 4.65571 11 4.39857C10.4151 4.13286 9.71828 4 8.90968 4H5ZM7.09032 8.83429H8.79355C9.43871 8.83429 9.92043 8.69714 10.2387 8.42286C10.557 8.14 10.7161 7.75429 10.7161 7.26571C10.7161 6.76857 10.557 6.38286 10.2387 6.10857C9.92043 5.83429 9.43871 5.69714 8.79355 5.69714H7.09032V8.83429Z" fill="white"/>
</svg>
