<svg width="18" height="18" viewBox="0 0 18 18" fill="none" xmlns="http://www.w3.org/2000/svg">
<path fill-rule="evenodd" clip-rule="evenodd" d="M9 18C13.9706 18 18 13.9706 18 9C18 4.02944 13.9706 0 9 0C4.02944 0 0 4.02944 0 9C0 13.9706 4.02944 18 9 18ZM6.70447 13.6961C7.41008 13.8987 8.14777 14 8.91753 14C9.83391 14 10.5899 13.8619 11.1856 13.5856C11.7904 13.3094 12.244 12.9457 12.5464 12.4945C12.8488 12.0433 13 11.546 13 11.0028C13 10.4963 12.8946 10.0773 12.6838 9.74586C12.4822 9.41436 12.2165 9.14733 11.8866 8.94475C11.5567 8.74217 11.1901 8.58103 10.7869 8.46133C10.3929 8.34162 9.99427 8.23573 9.59107 8.14365C9.19702 8.05157 8.83505 7.95948 8.50516 7.8674C8.17526 7.77532 7.90951 7.65562 7.7079 7.50829C7.5063 7.35175 7.4055 7.14917 7.4055 6.90055C7.4055 6.68877 7.46506 6.5046 7.58419 6.34807C7.70332 6.18232 7.90034 6.0488 8.17526 5.94751C8.45017 5.84622 8.80298 5.79558 9.23368 5.79558C9.66438 5.79558 10.1042 5.86004 10.5533 5.98895C11.0023 6.10866 11.4513 6.29742 11.9003 6.55525L12.5876 4.85635C12.1386 4.5709 11.6208 4.35912 11.0344 4.22099C10.4479 4.07366 9.85223 4 9.24742 4C8.34021 4 7.58419 4.13812 6.97938 4.41436C6.38373 4.6814 5.93471 5.04512 5.6323 5.50552C5.33906 5.95672 5.19244 6.45856 5.19244 7.01105C5.19244 7.5267 5.29324 7.95028 5.49485 8.28177C5.70561 8.61326 5.97594 8.88029 6.30584 9.08287C6.63574 9.28545 6.99771 9.4512 7.39175 9.58011C7.79496 9.70902 8.19359 9.81952 8.58763 9.9116C8.99084 9.99448 9.35739 10.0866 9.68729 10.1878C10.0172 10.2799 10.2829 10.4042 10.4845 10.5608C10.6861 10.7081 10.7869 10.9107 10.7869 11.1685C10.7869 11.3711 10.7228 11.5506 10.5945 11.7072C10.4662 11.8637 10.2646 11.988 9.98969 12.0801C9.72394 12.163 9.37113 12.2044 8.93127 12.2044C8.35395 12.2044 7.78121 12.1123 7.21306 11.9282C6.65407 11.7348 6.16839 11.4908 5.75601 11.1961L5 12.8812C5.4307 13.2127 5.99885 13.4843 6.70447 13.6961Z" fill="white"/>
</svg>
