<svg width="36" height="36" viewBox="0 0 36 36" fill="none" xmlns="http://www.w3.org/2000/svg">
<g clip-path="url(#clip0_80_3654)">
<path fill-rule="evenodd" clip-rule="evenodd" d="M27 0H9C4.02944 0 0 4.02944 0 9V27C0 31.9706 4.02944 36 9 36H27C31.9706 36 36 31.9706 36 27V9C36 4.02944 31.9706 0 27 0ZM18.9278 11.7434C17.6118 11.5483 16.2678 11.7731 15.0869 12.3858C13.906 12.9985 12.9484 13.968 12.3503 15.1564C11.7522 16.3447 11.544 17.6914 11.7553 19.0049C11.9667 20.3183 12.5868 21.5317 13.5275 22.4725C14.4683 23.4132 15.6817 24.0333 16.9951 24.2447C18.3086 24.456 19.6553 24.2478 20.8437 23.6497C22.032 23.0516 23.0015 22.094 23.6142 20.9131C24.2269 19.7322 24.4517 18.3882 24.2566 17.0722C24.0575 15.7299 23.432 14.4871 22.4724 13.5276C21.5129 12.568 20.2701 11.9425 18.9278 11.7434ZM14.2809 10.8325C15.7885 10.0502 17.5044 9.76321 19.1845 10.0124C20.8982 10.2665 22.4848 11.0651 23.7099 12.2901C24.9349 13.5152 25.7335 15.1018 25.9877 16.8155C26.2368 18.4956 25.9498 20.2115 25.1676 21.7191C24.3853 23.2267 23.1476 24.4493 21.6304 25.2129C20.1133 25.9765 18.394 26.2423 16.7171 25.9725C15.0402 25.7026 13.4911 24.9109 12.2901 23.7099C11.0891 22.5089 10.2974 20.9598 10.0276 19.2829C9.75772 17.606 10.0235 15.8867 10.7871 14.3696C11.5507 12.8524 12.7733 11.6147 14.2809 10.8325ZM27.9 9.9C28.8941 9.9 29.7 9.09411 29.7 8.1C29.7 7.10589 28.8941 6.3 27.9 6.3C26.9059 6.3 26.1 7.10589 26.1 8.1C26.1 9.09411 26.9059 9.9 27.9 9.9Z" fill="#FF5C00"/>
</g>
<defs>
<clipPath id="clip0_80_3654">
<rect width="36" height="36" fill="white"/>
</clipPath>
</defs>
</svg>
