<svg width="36" height="36" viewBox="0 0 36 36" fill="none" xmlns="http://www.w3.org/2000/svg">
<path fill-rule="evenodd" clip-rule="evenodd" d="M13.5 18C17.2279 18 20.25 14.9779 20.25 11.25C20.25 7.52208 17.2279 4.5 13.5 4.5C9.77208 4.5 6.75 7.52208 6.75 11.25C6.75 14.9779 9.77208 18 13.5 18ZM25.5 31.5V28C25.5 26.1435 24.8679 24.363 23.7426 23.0503C22.6174 21.7375 21.0913 21 19.5 21H7.5C5.9087 21 4.38258 21.7375 3.25736 23.0503C2.13214 24.363 1.5 26.1435 1.5 28V31.5H25.5ZM30 10.5C30.8284 10.5 31.5 11.1716 31.5 12V15H34.5C35.3284 15 36 15.6716 36 16.5C36 17.3284 35.3284 18 34.5 18H31.5V21C31.5 21.8284 30.8284 22.5 30 22.5C29.1716 22.5 28.5 21.8284 28.5 21V18H25.5C24.6716 18 24 17.3284 24 16.5C24 15.6716 24.6716 15 25.5 15H28.5V12C28.5 11.1716 29.1716 10.5 30 10.5Z" fill="#FFBB6A"/>
</svg>
