<svg width="40" height="40" viewBox="0 0 40 40" fill="none" xmlns="http://www.w3.org/2000/svg">
<path opacity="0.8" fill-rule="evenodd" clip-rule="evenodd" d="M16.4762 1.78319C18.2238 -0.594398 21.7762 -0.594398 23.5238 1.78319C25.1001 3.92773 27.7471 5.02085 30.3819 4.61833C33.305 4.17172 35.8281 6.695 35.3816 9.6182C34.9791 12.2528 36.0723 14.8998 38.2168 16.4762C40.5944 18.2238 40.5944 21.7762 38.2168 23.5238C36.0723 25.1001 34.9791 27.7471 35.3816 30.3819C35.8281 33.305 33.305 35.8281 30.3819 35.3816C27.7471 34.9791 25.1001 36.0723 23.5238 38.2168C21.7762 40.5944 18.2238 40.5944 16.4762 38.2168C14.8998 36.0723 12.2528 34.9791 9.6182 35.3816C6.695 35.8281 4.17172 33.305 4.61833 30.3819C5.02085 27.7471 3.92773 25.1001 1.78319 23.5238C-0.594398 21.7762 -0.594398 18.2238 1.78319 16.4762C3.92773 14.8998 5.02085 12.2528 4.61833 9.6182C4.17172 6.695 6.695 4.17172 9.6182 4.61833C12.2528 5.02085 14.8998 3.92773 16.4762 1.78319Z" fill="#FFD28F"/>
<circle opacity="0.7" cx="20" cy="20" r="14.5" stroke="white"/>
<g opacity="0.8">
<path d="M14.2457 16.4268L15.4056 16.116L15.7295 17.3251L14.5697 17.6359L14.2457 16.4268ZM11.0049 16.5409L18.278 14.5921L18.5125 15.4673L11.2394 17.4161L11.0049 16.5409ZM13.1046 12.1681L14.2557 11.8597L14.5265 12.8702L13.3754 13.1787L13.1046 12.1681ZM13.3201 13.2515L14.3404 12.9781L14.384 13.1405C14.7055 14.3405 13.7409 15.45 11.5423 16.1745L10.9803 15.3677C12.9294 14.7584 13.5184 13.9914 13.3636 13.4139L13.3201 13.2515ZM13.5905 13.1791L14.6108 12.9057L14.6543 13.0681C14.809 13.6455 15.7026 14.0153 17.6865 13.5708L17.6032 14.5505C15.3456 15.02 13.9555 14.5415 13.634 13.3415L13.5905 13.1791ZM10.909 13.4624L16.813 11.8804L17.0475 12.7556L11.1435 14.3376L10.909 13.4624ZM12.1945 17.7017L17.7758 16.2062L18.3294 18.2724L13.8993 19.4595L14.112 20.2535L12.9696 20.5596L12.5417 18.9626L16.9719 17.7755L16.8655 17.3785L12.4266 18.5679L12.1945 17.7017ZM12.8729 20.1987L18.6548 18.6494L18.8893 19.5246L13.1074 21.0739L12.8729 20.1987Z" fill="white"/>
<path d="M22.2735 11.3843L23.913 10.945L24.1741 11.9195L22.5346 12.3588L22.2735 11.3843ZM19.6976 10.8754L20.6481 10.6207L20.8584 11.4057C21.3009 13.0568 20.9789 14.6807 19.5915 15.6423L18.7272 14.8585C19.9556 14.0362 20.2101 12.7882 19.9079 11.6604L19.6976 10.8754ZM19.933 10.8123L20.8661 10.5623L21.0958 11.4194C21.3738 12.457 22.1877 13.3317 23.5659 13.417L23.2156 14.5166C21.6102 14.3858 20.5761 13.2123 20.1627 11.6695L19.933 10.8123ZM20.4221 15.9516L25.925 14.4772L26.73 17.4817L25.5702 17.7925L25.0189 15.7353L20.676 16.899L20.4221 15.9516ZM23.3314 9.43752L24.4913 9.12674L25.8234 14.0982L24.6635 14.409L23.3314 9.43752Z" fill="white"/>
<path d="M17.6351 20.6343L18.7862 20.3259L21.0249 28.6809L19.8738 28.9893L17.6351 20.6343ZM19.3973 23.6532L20.8275 23.2699L21.0959 24.2714L19.6657 24.6547L19.3973 23.6532ZM12.7512 23.2678L17.4517 22.0083L17.708 22.9647L13.0075 24.2242L12.7512 23.2678ZM15.4966 24.0601C16.6739 23.7447 17.7684 24.3411 18.0802 25.505C18.3921 26.6689 17.7424 27.7327 16.5651 28.0481C15.3878 28.3636 14.2933 27.7672 13.9815 26.6033C13.6696 25.4393 14.3193 24.3756 15.4966 24.0601ZM15.7577 25.0346C15.2083 25.1818 14.9174 25.6659 15.089 26.3065C15.2607 26.9471 15.7546 27.2209 16.304 27.0737C16.8535 26.9265 17.1443 26.4424 16.9727 25.8018C16.801 25.1611 16.3071 24.8873 15.7577 25.0346ZM14.2353 21.6903L15.3952 21.3795L15.7869 22.8412L14.627 23.152L14.2353 21.6903Z" fill="white"/>
<path d="M25.7142 18.4695L26.8828 18.1564L29.1215 26.5114L27.9529 26.8245L25.7142 18.4695ZM23.5655 19.9736L24.7166 19.6652C25.4008 22.2186 25.1245 24.5362 22.6398 26.7396L21.7818 25.9444C23.792 24.1679 24.2231 22.4278 23.6235 20.1902L23.5655 19.9736ZM20.8359 20.705L24.1149 19.8264L24.3687 20.7738L21.0897 21.6524L20.8359 20.705Z" fill="white"/>
</g>
</svg>
