<svg width="76" height="76" viewBox="0 0 76 76" fill="none" xmlns="http://www.w3.org/2000/svg">
<g filter="url(#filter0_d_80_3533)">
<circle cx="36" cy="34" r="32" fill="url(#paint0_linear_80_3533)"/>
</g>
<path fill-rule="evenodd" clip-rule="evenodd" d="M34 46C34 47.1046 34.8954 48 36 48C37.1046 48 38 47.1046 38 46V36H48C49.1046 36 50 35.1046 50 34C50 32.8954 49.1046 32 48 32H38V22C38 20.8954 37.1046 20 36 20C34.8954 20 34 20.8954 34 22V32H24C22.8954 32 22 32.8954 22 34C22 35.1046 22.8954 36 24 36H34V46Z" fill="white"/>
<defs>
<filter id="filter0_d_80_3533" x="0" y="0" width="76" height="76" filterUnits="userSpaceOnUse" color-interpolation-filters="sRGB">
<feFlood flood-opacity="0" result="BackgroundImageFix"/>
<feColorMatrix in="SourceAlpha" type="matrix" values="0 0 0 0 0 0 0 0 0 0 0 0 0 0 0 0 0 0 127 0" result="hardAlpha"/>
<feOffset dx="2" dy="4"/>
<feGaussianBlur stdDeviation="3"/>
<feComposite in2="hardAlpha" operator="out"/>
<feColorMatrix type="matrix" values="0 0 0 0 1 0 0 0 0 0.18 0 0 0 0 0 0 0 0 0.21 0"/>
<feBlend mode="normal" in2="BackgroundImageFix" result="effect1_dropShadow_80_3533"/>
<feBlend mode="normal" in="SourceGraphic" in2="effect1_dropShadow_80_3533" result="shape"/>
</filter>
<linearGradient id="paint0_linear_80_3533" x1="36" y1="2" x2="36" y2="66" gradientUnits="userSpaceOnUse">
<stop stop-color="#FE0000"/>
<stop offset="1" stop-color="#FF7000"/>
</linearGradient>
</defs>
</svg>
