<svg width="76" height="76" viewBox="0 0 76 76" fill="none" xmlns="http://www.w3.org/2000/svg">
<g filter="url(#filter0_d_102_4893)">
<circle cx="36" cy="34" r="32" fill="url(#paint0_linear_102_4893)"/>
</g>
<path d="M45.3966 24.3965L45.1699 24.1698C44.4199 23.4207 43.4033 23 42.3433 23C41.2833 23 40.2666 23.4207 39.5166 24.1698L26.7299 36.9431C26.5594 37.1165 26.4395 37.3332 26.3833 37.5698L25.0499 42.9031C24.9865 43.1285 24.9834 43.3667 25.0412 43.5936C25.099 43.8205 25.2155 44.0282 25.3791 44.1958C25.5426 44.3634 25.7474 44.485 25.9728 44.5483C26.1983 44.6116 26.4364 44.6144 26.6633 44.5565L31.9966 43.2231C32.2332 43.1669 32.4499 43.047 32.6233 42.8765L45.3966 30.0898C46.1457 29.3398 46.5664 28.3232 46.5664 27.2631C46.5664 26.2031 46.1457 25.1865 45.3966 24.4365V24.3965ZM30.9966 40.6898L28.1699 41.3965L28.8766 38.5698L37.6499 29.7965L39.7699 31.9165L30.9966 40.6898ZM43.5166 28.1698L41.6499 30.0231L39.5433 27.9165L41.3966 26.0498C41.5205 25.9248 41.668 25.8256 41.8305 25.758C41.993 25.6903 42.1672 25.6554 42.3433 25.6554C42.5193 25.6554 42.6936 25.6903 42.856 25.758C43.0185 25.8256 43.166 25.9248 43.2899 26.0498L43.5166 26.2765C43.6416 26.4004 43.7408 26.5479 43.8085 26.7104C43.8761 26.8729 43.911 27.0471 43.911 27.2231C43.911 27.3992 43.8761 27.5734 43.8085 27.7359C43.7408 27.8984 43.6416 28.0459 43.5166 28.1698Z" fill="white"/>
<defs>
<filter id="filter0_d_102_4893" x="0" y="0" width="76" height="76" filterUnits="userSpaceOnUse" color-interpolation-filters="sRGB">
<feFlood flood-opacity="0" result="BackgroundImageFix"/>
<feColorMatrix in="SourceAlpha" type="matrix" values="0 0 0 0 0 0 0 0 0 0 0 0 0 0 0 0 0 0 127 0" result="hardAlpha"/>
<feOffset dx="2" dy="4"/>
<feGaussianBlur stdDeviation="3"/>
<feComposite in2="hardAlpha" operator="out"/>
<feColorMatrix type="matrix" values="0 0 0 0 1 0 0 0 0 0.18 0 0 0 0 0 0 0 0 0.21 0"/>
<feBlend mode="normal" in2="BackgroundImageFix" result="effect1_dropShadow_102_4893"/>
<feBlend mode="normal" in="SourceGraphic" in2="effect1_dropShadow_102_4893" result="shape"/>
</filter>
<linearGradient id="paint0_linear_102_4893" x1="36" y1="2" x2="36" y2="66" gradientUnits="userSpaceOnUse">
<stop stop-color="#FE0000"/>
<stop offset="1" stop-color="#FF7000"/>
</linearGradient>
</defs>
</svg>
