<svg width="109" height="174" viewBox="0 0 109 174" fill="none" xmlns="http://www.w3.org/2000/svg">
<g filter="url(#filter0_d_93_865)">
<path fill-rule="evenodd" clip-rule="evenodd" d="M71.8901 22C71.9627 21.3433 72 20.676 72 20C72 10.0589 63.9411 2 54 2C44.0589 2 36 10.0589 36 20C36 20.676 36.0373 21.3433 36.1099 22H14C8.47715 22 4 26.4771 4 32V158C4 163.523 8.47715 168 14 168H95C100.523 168 105 163.523 105 158V32C105 26.4772 100.523 22 95 22H71.8901Z" fill="white"/>
</g>
<circle cx="54" cy="20" r="14" fill="#FF8D4D"/>
<path d="M49.1133 27L49.0938 24.8711L54.1719 20.2031C55.4902 18.9434 56.2031 18.1621 56.2031 17.0391C56.2031 15.7793 55.2559 14.998 53.957 15.0078C52.6289 14.998 51.7598 15.8379 51.7695 17.1953H48.9766C48.9668 14.4316 51.0176 12.6641 53.9961 12.6641C57.0234 12.6641 59.0352 14.3926 59.0352 16.8438C59.0352 18.4551 58.2539 19.7734 55.3438 22.4102L53.1953 24.5V24.5781H59.2305V27H49.1133Z" fill="white"/>
<defs>
<filter id="filter0_d_93_865" x="0" y="0" width="109" height="174" filterUnits="userSpaceOnUse" color-interpolation-filters="sRGB">
<feFlood flood-opacity="0" result="BackgroundImageFix"/>
<feColorMatrix in="SourceAlpha" type="matrix" values="0 0 0 0 0 0 0 0 0 0 0 0 0 0 0 0 0 0 127 0" result="hardAlpha"/>
<feOffset dy="2"/>
<feGaussianBlur stdDeviation="2"/>
<feComposite in2="hardAlpha" operator="out"/>
<feColorMatrix type="matrix" values="0 0 0 0 0 0 0 0 0 0 0 0 0 0 0 0 0 0 0.16 0"/>
<feBlend mode="normal" in2="BackgroundImageFix" result="effect1_dropShadow_93_865"/>
<feBlend mode="normal" in="SourceGraphic" in2="effect1_dropShadow_93_865" result="shape"/>
</filter>
</defs>
</svg>
