<svg width="48" height="48" viewBox="0 0 48 48" fill="none" xmlns="http://www.w3.org/2000/svg">
<path d="M10.534 36.6582C10.5291 38.04 11.4422 39.583 12.7703 40.2129L12.243 40.9355C11.2615 40.4668 10.4803 39.4805 10.0848 38.3379C9.68438 39.583 8.86406 40.6621 7.86797 41.1602L7.32109 40.4277C8.64922 39.7881 9.61113 38.1377 9.61602 36.6582V35.7305H7.64336V34.959H12.4383V35.7305H10.534V36.6582ZM13.3758 42.8301V34.0801H14.3035V37.5469H15.7098V38.3281H14.3035V42.8301H13.3758ZM23.1051 34.0898V40.7207H22.1773V39.8809H20.4195V39.2266H22.1773V34.0898H23.1051ZM15.7906 38.084C17.4068 38.0693 19.5895 38.0547 21.4547 37.8203L21.5133 38.4844C20.7662 38.6113 19.9801 38.6895 19.2086 38.7432V40.4473H18.2809V38.792C17.4313 38.8262 16.6158 38.8262 15.9078 38.8262L15.7906 38.084ZM16.4742 35.9648C16.4693 35.0371 17.3531 34.4219 18.652 34.4219C19.9313 34.4219 20.8199 35.0371 20.8199 35.9648C20.8199 36.8975 19.9313 37.4883 18.652 37.4883C17.358 37.4883 16.4693 36.8975 16.4742 35.9648ZM17.0016 42.6445V40.0762H17.9195V41.8926H23.3199V42.6445H17.0016ZM17.3531 35.9648C17.3482 36.4824 17.8756 36.8047 18.652 36.8047C19.399 36.8047 19.9361 36.4824 19.941 35.9648C19.9361 35.4424 19.399 35.1055 18.652 35.1152C17.8756 35.1055 17.3482 35.4424 17.3531 35.9648ZM32.1508 38.4062V39.168H24.1723V38.4062H27.6977V37.5566H25.2172V34.3145H26.1352V35.2227H30.1879V34.3145H31.1156V37.5566H28.6156V38.4062H32.1508ZM25.1293 41.2773C25.1244 40.291 26.2475 39.7344 28.1566 39.7344C30.0414 39.7344 31.1742 40.291 31.184 41.2773C31.1742 42.2686 30.0414 42.8154 28.1566 42.8105C26.2475 42.8154 25.1244 42.2686 25.1293 41.2773ZM26.057 41.2773C26.057 41.8096 26.8188 42.1074 28.1566 42.0977C29.475 42.1074 30.2367 41.8096 30.2367 41.2773C30.2367 40.7402 29.475 40.4521 28.1566 40.4473C26.8188 40.4521 26.057 40.7402 26.057 41.2773ZM26.1352 36.8242H30.1879V35.9355H26.1352V36.8242ZM35.552 36.3066C35.5422 37.8545 36.4455 39.4414 37.7492 40.0762L37.173 40.8184C36.2209 40.3203 35.4836 39.3438 35.0979 38.1768C34.7072 39.417 33.9406 40.4668 32.9445 40.9844L32.3684 40.2324C33.7111 39.5879 34.6193 37.9082 34.6242 36.3066V34.8125H35.552V36.3066ZM38.4035 42.8301V34.0801H39.3313V37.5664H40.7375V38.3574H39.3313V42.8301H38.4035Z" fill="#939393"/>
<path d="M16 17.9999H20L21.5 14.9999L23.5 19.9999L25 17.9999H27M24 12.4297C24.4844 11.4645 25.4683 10.7256 26.2187 10.3594C28.1094 9.43683 29.9832 9.91215 31.5355 11.4645C33.4881 13.4171 33.4881 16.5829 31.5355 18.5355L24.7071 25.364C24.3166 25.7545 23.6834 25.7545 23.2929 25.364L16.4645 18.5355C14.5118 16.5829 14.5118 13.4171 16.4645 11.4645C18.0168 9.91215 19.8906 9.43683 21.7812 10.3594C22.5317 10.7256 23.5156 11.4645 24 12.4297Z" stroke="#939393" stroke-width="1.4" stroke-linecap="round" stroke-linejoin="round"/>
</svg>
