<svg width="161" height="161" viewBox="0 0 161 161" fill="none" xmlns="http://www.w3.org/2000/svg">
<path fill-rule="evenodd" clip-rule="evenodd" d="M37.4408 90.3281C38.8197 81.7481 42.8287 72.9208 49.2921 64.3293C50.5751 62.6238 51.8276 60.9608 53.048 59.3404C64.4004 44.2674 72.9739 32.884 77.4901 25.3107C78.5446 23.5424 81.4832 23.5424 82.5377 25.3106C87.0525 32.8814 95.6222 44.2597 106.969 59.3251C108.193 60.9503 109.449 62.6184 110.736 64.3293C117.284 73.0332 121.313 81.9791 122.641 90.6648H115.245L105.386 72.3348C104.529 70.7421 102.837 69.7797 101.03 69.8575C99.2232 69.9353 97.62 71.0396 96.9034 72.7L87.2341 95.1051L78.4728 79.5946C77.6488 78.1359 76.1127 77.224 74.4376 77.1989C72.7624 77.1739 71.1998 78.0396 70.3326 79.473L63.7655 90.3281H37.4408ZM37.0015 99.7589C37.6684 109.044 41.6843 117.799 49.2921 125.355C57.7759 133.781 68.8953 137.994 80.0147 137.994C91.1341 137.994 102.253 133.781 110.736 125.355C118.252 117.891 122.262 109.256 123.001 100.096H112.427C110.691 100.096 109.096 99.1422 108.274 97.6138L101.699 85.3891L92.1294 107.563C91.4197 109.207 89.8399 110.307 88.0516 110.403C86.2632 110.498 84.5751 109.573 83.6943 108.013L74.2276 91.2541L70.4585 97.4843C69.6043 98.8962 68.0741 99.7589 66.424 99.7589H37.0015Z" fill="url(#paint0_linear_143_7048)"/>
<defs>
<linearGradient id="paint0_linear_143_7048" x1="80.0014" y1="23.9844" x2="80.0014" y2="137.994" gradientUnits="userSpaceOnUse">
<stop stop-color="#FE0000"/>
<stop offset="1" stop-color="#FF7000"/>
</linearGradient>
</defs>
</svg>
